<svg xmlns="http://www.w3.org/2000/svg" xmlns:xlink="http://www.w3.org/1999/xlink" width="483" zoomAndPan="magnify" viewBox="0 0 362.25 290.999983" height="388" preserveAspectRatio="xMidYMid meet" version="1.0"><defs><filter x="0%" y="0%" width="100%" height="100%" id="5749047186"><feColorMatrix values="0 0 0 0 1 0 0 0 0 1 0 0 0 0 1 0 0 0 1 0" color-interpolation-filters="sRGB"/></filter><clipPath id="e82c37caf0"><path d="M 0 71 L 361.5 71 L 361.5 290.699219 L 0 290.699219 Z M 0 71 " clip-rule="nonzero"/></clipPath><mask id="97186aafe0"><g filter="url(#5749047186)"><rect x="-36.225" width="434.7" fill="#000000" y="-29.099998" height="349.19998" fill-opacity="0.8"/></g></mask><clipPath id="cb224928d3"><path d="M 0 4 L 361.5 4 L 361.5 219.699219 L 0 219.699219 Z M 0 4 " clip-rule="nonzero"/></clipPath><clipPath id="fe0d728fe7"><path d="M 0 3 L 361.5 3 L 361.5 219.699219 L 0 219.699219 Z M 0 3 " clip-rule="nonzero"/></clipPath><clipPath id="69bdbb2527"><rect x="0" width="362" y="0" height="220"/></clipPath><clipPath id="c6f16a07f9"><path d="M 0 0.300781 L 361.5 0.300781 L 361.5 76 L 0 76 Z M 0 0.300781 " clip-rule="nonzero"/></clipPath></defs><g clip-path="url(#e82c37caf0)"><g mask="url(#97186aafe0)"><g transform="matrix(1, 0, 0, 1, 0, 71)"><g clip-path="url(#69bdbb2527)"><g clip-path="url(#cb224928d3)"><path fill="#000000" d="M 0.128906 4.257812 L 361.589844 4.257812 L 361.589844 219.398438 L 0.128906 219.398438 Z M 0.128906 4.257812 " fill-opacity="1" fill-rule="nonzero"/></g><g clip-path="url(#fe0d728fe7)"><path stroke-linecap="butt" transform="matrix(0.749296, 0, 0, 0.748836, -0.244302, -70.699399)" fill="none" stroke-linejoin="miter" d="M 0.498079 100.098242 L 482.89884 100.098242 L 482.89884 387.39813 L 0.498079 387.39813 Z M 0.498079 100.098242 " stroke="#666666" stroke-width="1" stroke-opacity="1" stroke-miterlimit="10"/></g></g></g></g></g><g clip-path="url(#c6f16a07f9)"><path stroke-linecap="butt" transform="matrix(0.749296, 0, 0, 0.748836, -0.244302, 0.300601)" fill-opacity="1" fill="#000000" fill-rule="nonzero" stroke-linejoin="miter" d="M 0.498079 0.501017 L 482.89884 0.501017 L 482.89884 100.098242 L 0.498079 100.098242 Z M 0.498079 0.501017 " stroke="#808080" stroke-width="1" stroke-opacity="1" stroke-miterlimit="10"/></g><path stroke-linecap="round" transform="matrix(0.749296, 0, 0, 0.748836, -0.244302, 0.300601)" fill-opacity="1" fill="#000000" fill-rule="nonzero" stroke-linejoin="round" d="M 7.598494 235.401904 L 258.902109 365.499573 L 479.802183 229.898575 L 321.200174 185.501571 L 241.69846 134.902238 L 162.598164 187.097798 Z M 7.598494 235.401904 " stroke="#f2f2f2" stroke-width="1" stroke-opacity="1" stroke-miterlimit="4"/><path stroke-linecap="round" transform="matrix(0.749296, 0, 0, 0.748836, -0.244302, 0.300601)" fill="none" stroke-linejoin="round" d="M 65.501808 217.300905 L 103.798175 243.701238 L 44.899135 254.697465 " stroke="#f2f2f2" stroke-width="1" stroke-opacity="1" stroke-miterlimit="4"/><path stroke-linecap="round" transform="matrix(0.749296, 0, 0, 0.748836, -0.244302, 0.300601)" fill="none" stroke-linejoin="round" d="M 87.001157 276.502126 L 155.800116 238.698686 L 103.798175 243.701238 L 154.700125 205.897798 L 116.299494 201.500351 " stroke="#f2f2f2" stroke-width="1" stroke-opacity="1" stroke-miterlimit="4"/><path stroke-linecap="round" transform="matrix(0.749296, 0, 0, 0.748836, -0.244302, 0.300601)" fill="none" stroke-linejoin="round" d="M 154.700125 205.897798 L 198.100241 196.200462 L 155.800116 238.698686 L 195.597892 274.801571 L 135.802176 301.801793 " stroke="#f2f2f2" stroke-width="1" stroke-opacity="1" stroke-miterlimit="4"/><path stroke-linecap="round" transform="matrix(0.749296, 0, 0, 0.748836, -0.244302, 0.300601)" fill="none" stroke-linejoin="round" d="M 321.200174 185.501571 L 244.497963 215.798575 L 198.100241 196.200462 L 248.001251 251.90146 L 195.597892 274.801571 L 252.901685 256.60146 L 192.000765 330.899018 " stroke="#f2f2f2" stroke-width="1" stroke-opacity="1" stroke-miterlimit="4"/><path stroke-linecap="round" transform="matrix(0.749296, 0, 0, 0.748836, -0.244302, 0.300601)" fill="none" stroke-linejoin="round" d="M 162.598164 187.097798 L 191.098877 197.697576 " stroke="#f2f2f2" stroke-width="1" stroke-opacity="1" stroke-miterlimit="4"/><path stroke-linecap="round" transform="matrix(0.749296, 0, 0, 0.748836, -0.244302, 0.300601)" fill="none" stroke-linejoin="round" d="M 202.901623 198.198353 L 241.69846 134.902238 L 285.499994 199.601571 L 389.597714 206.398575 L 411.8999 210.90035 " stroke="#f2f2f2" stroke-width="1" stroke-opacity="1" stroke-miterlimit="4"/><path stroke-linecap="round" transform="matrix(0.749296, 0, 0, 0.748836, -0.244302, 0.300601)" fill="none" stroke-linejoin="round" d="M 244.497963 215.798575 L 293.398033 240.498353 L 333.300074 202.700129 L 368.499784 198.798242 " stroke="#f2f2f2" stroke-width="1" stroke-opacity="1" stroke-miterlimit="4"/><path stroke-linecap="round" transform="matrix(0.749296, 0, 0, 0.748836, -0.244302, 0.300601)" fill="none" stroke-linejoin="round" d="M 448.799122 249.001127 L 389.597714 206.398575 L 347.699007 263.998353 L 293.398033 240.498353 L 248.001251 251.90146 L 304.298891 269.100017 L 252.901685 256.60146 L 318.598773 328.901127 " stroke="#f2f2f2" stroke-width="1" stroke-opacity="1" stroke-miterlimit="4"/><path stroke-linecap="round" transform="matrix(0.749296, 0, 0, 0.748836, -0.244302, 0.300601)" fill="none" stroke-linejoin="round" d="M 368.499784 298.301571 L 304.298891 269.100017 L 347.699007 263.998353 L 411.8999 271.598685 " stroke="#f2f2f2" stroke-width="1" stroke-opacity="1" stroke-miterlimit="4"/><path fill="#ffffff" d="M 16.164062 261.046875 L 18.1875 261.046875 L 18.1875 269.132812 L 19.988281 269.132812 L 19.988281 259.546875 L 16.164062 259.546875 Z M 16.164062 261.046875 " fill-opacity="1" fill-rule="nonzero"/><path fill="#ffffff" d="M 28.003906 259.996094 C 27.40625 259.621094 26.730469 259.398438 25.90625 259.398438 C 25.15625 259.398438 24.40625 259.621094 23.808594 259.996094 C 23.207031 260.371094 22.757812 260.96875 22.382812 261.71875 C 22.011719 262.46875 21.859375 263.367188 21.859375 264.414062 C 21.859375 265.464844 22.011719 266.363281 22.382812 267.109375 C 22.757812 267.859375 23.207031 268.457031 23.808594 268.832031 C 24.40625 269.207031 25.082031 269.433594 25.90625 269.433594 C 26.65625 269.433594 27.40625 269.207031 28.003906 268.832031 C 28.605469 268.457031 29.128906 267.859375 29.429688 267.109375 C 29.800781 266.363281 29.953125 265.464844 29.953125 264.414062 C 29.953125 263.367188 29.800781 262.46875 29.429688 261.71875 C 29.054688 260.894531 28.605469 260.371094 28.003906 259.996094 Z M 27.554688 266.886719 C 27.179688 267.484375 26.582031 267.710938 25.90625 267.710938 C 25.230469 267.710938 24.707031 267.410156 24.257812 266.886719 C 23.808594 266.363281 23.660156 265.464844 23.660156 264.339844 C 23.660156 263.21875 23.882812 262.394531 24.257812 261.792969 C 24.632812 261.195312 25.230469 260.96875 25.90625 260.96875 C 26.582031 260.96875 27.105469 261.269531 27.554688 261.792969 C 28.003906 262.320312 28.152344 263.21875 28.152344 264.339844 C 28.152344 265.464844 27.929688 266.289062 27.554688 266.886719 Z M 27.554688 266.886719 " fill-opacity="1" fill-rule="nonzero"/><path fill="#ffffff" d="M 37.296875 259.996094 C 36.695312 259.621094 36.023438 259.398438 35.199219 259.398438 C 34.449219 259.398438 33.699219 259.621094 33.097656 259.996094 C 32.5 260.371094 32.050781 260.96875 31.675781 261.71875 C 31.300781 262.46875 31.152344 263.367188 31.152344 264.414062 C 31.152344 265.464844 31.300781 266.363281 31.675781 267.109375 C 32.050781 267.859375 32.5 268.457031 33.097656 268.832031 C 33.699219 269.207031 34.375 269.433594 35.199219 269.433594 C 35.945312 269.433594 36.695312 269.207031 37.296875 268.832031 C 37.894531 268.457031 38.417969 267.859375 38.71875 267.109375 C 39.09375 266.363281 39.242188 265.464844 39.242188 264.414062 C 39.242188 263.367188 39.09375 262.46875 38.71875 261.71875 C 38.34375 260.894531 37.894531 260.371094 37.296875 259.996094 Z M 36.847656 266.886719 C 36.472656 267.484375 35.871094 267.710938 35.199219 267.710938 C 34.523438 267.710938 34 267.410156 33.550781 266.886719 C 33.097656 266.363281 32.949219 265.464844 32.949219 264.339844 C 32.949219 263.21875 33.175781 262.394531 33.550781 261.792969 C 33.921875 261.195312 34.523438 260.96875 35.199219 260.96875 C 35.871094 260.96875 36.394531 261.269531 36.847656 261.792969 C 37.296875 262.320312 37.445312 263.21875 37.445312 264.339844 C 37.445312 265.464844 37.21875 266.289062 36.847656 266.886719 Z M 36.847656 266.886719 " fill-opacity="1" fill-rule="nonzero"/><path fill="#ffffff" d="M 47.335938 261.792969 L 45.460938 261.792969 L 43.664062 264.191406 L 41.867188 261.792969 L 39.917969 261.792969 L 42.691406 265.464844 L 39.84375 269.132812 L 41.714844 269.132812 L 43.589844 266.585938 L 45.539062 269.132812 L 47.484375 269.132812 L 44.5625 265.390625 Z M 47.335938 261.792969 " fill-opacity="1" fill-rule="nonzero"/><path fill="#ffffff" d="M 47.859375 261.046875 L 49.882812 261.046875 L 49.882812 269.132812 L 51.683594 269.132812 L 51.683594 259.546875 L 47.859375 259.546875 Z M 47.859375 261.046875 " fill-opacity="1" fill-rule="nonzero"/><path fill="#ffffff" d="M 59.699219 259.996094 C 59.101562 259.621094 58.425781 259.398438 57.601562 259.398438 C 56.851562 259.398438 56.101562 259.621094 55.503906 259.996094 C 54.902344 260.371094 54.453125 260.894531 54.078125 261.644531 C 53.703125 262.394531 53.554688 263.292969 53.554688 264.339844 C 53.554688 265.390625 53.703125 266.289062 54.078125 267.035156 C 54.453125 267.785156 54.902344 268.382812 55.503906 268.757812 C 56.101562 269.132812 56.777344 269.359375 57.601562 269.359375 C 58.351562 269.359375 59.101562 269.132812 59.699219 268.757812 C 60.296875 268.382812 60.824219 267.785156 61.121094 267.035156 C 61.496094 266.289062 61.648438 265.390625 61.648438 264.339844 C 61.648438 263.292969 61.496094 262.394531 61.121094 261.644531 C 60.75 260.894531 60.296875 260.371094 59.699219 259.996094 Z M 59.25 266.886719 C 58.875 267.484375 58.277344 267.710938 57.601562 267.710938 C 56.925781 267.710938 56.402344 267.410156 55.953125 266.886719 C 55.503906 266.363281 55.351562 265.464844 55.351562 264.339844 C 55.351562 263.21875 55.578125 262.394531 55.953125 261.792969 C 56.328125 261.195312 56.925781 260.96875 57.601562 260.96875 C 58.277344 260.96875 58.800781 261.269531 59.25 261.792969 C 59.699219 262.320312 59.847656 263.21875 59.847656 264.339844 C 59.847656 265.464844 59.625 266.289062 59.25 266.886719 Z M 59.25 266.886719 " fill-opacity="1" fill-rule="nonzero"/><path fill="#ffffff" d="M 68.992188 259.996094 C 68.390625 259.621094 67.71875 259.398438 66.894531 259.398438 C 66.144531 259.398438 65.394531 259.621094 64.792969 259.996094 C 64.195312 260.371094 63.746094 260.96875 63.371094 261.71875 C 62.996094 262.46875 62.847656 263.367188 62.847656 264.414062 C 62.847656 265.464844 62.996094 266.363281 63.371094 267.109375 C 63.746094 267.859375 64.195312 268.457031 64.792969 268.832031 C 65.394531 269.207031 66.070312 269.433594 66.894531 269.433594 C 67.640625 269.433594 68.390625 269.207031 68.992188 268.832031 C 69.589844 268.457031 70.113281 267.859375 70.414062 267.109375 C 70.789062 266.363281 70.9375 265.464844 70.9375 264.414062 C 70.9375 263.367188 70.789062 262.46875 70.414062 261.71875 C 70.039062 260.894531 69.589844 260.371094 68.992188 259.996094 Z M 68.542969 266.886719 C 68.167969 267.484375 67.566406 267.710938 66.894531 267.710938 C 66.21875 267.710938 65.695312 267.410156 65.246094 266.886719 C 64.792969 266.363281 64.644531 265.464844 64.644531 264.339844 C 64.644531 263.21875 64.871094 262.394531 65.246094 261.792969 C 65.617188 261.195312 66.21875 260.96875 66.894531 260.96875 C 67.566406 260.96875 68.089844 261.269531 68.542969 261.792969 C 68.992188 262.320312 69.140625 263.21875 69.140625 264.339844 C 69.140625 265.464844 68.914062 266.289062 68.542969 266.886719 Z M 68.542969 266.886719 " fill-opacity="1" fill-rule="nonzero"/><path fill="#ffffff" d="M 87.949219 262.542969 C 87.421875 262.019531 86.675781 261.71875 85.773438 261.71875 C 85.175781 261.71875 84.652344 261.792969 84.203125 262.019531 C 83.75 262.242188 83.300781 262.542969 83.003906 262.917969 C 82.777344 262.542969 82.402344 262.242188 81.953125 262.019531 C 81.503906 261.792969 81.054688 261.71875 80.453125 261.71875 C 79.929688 261.71875 79.480469 261.792969 79.105469 261.945312 C 78.65625 262.09375 78.355469 262.394531 78.058594 262.691406 L 78.058594 261.71875 L 76.410156 261.71875 L 76.410156 269.058594 L 78.132812 269.058594 L 78.132812 265.3125 C 78.132812 264.566406 78.28125 264.039062 78.65625 263.667969 C 79.03125 263.292969 79.480469 263.066406 80.082031 263.066406 C 80.605469 263.066406 81.054688 263.21875 81.277344 263.589844 C 81.503906 263.964844 81.730469 264.414062 81.730469 265.015625 L 81.730469 268.984375 L 83.453125 268.984375 L 83.453125 265.238281 C 83.453125 264.566406 83.601562 263.964844 83.976562 263.589844 C 84.351562 263.21875 84.800781 262.992188 85.398438 262.992188 C 85.925781 262.992188 86.375 263.140625 86.597656 263.515625 C 86.898438 263.816406 87.046875 264.339844 87.046875 264.9375 L 87.046875 268.910156 L 88.773438 268.910156 L 88.773438 264.714844 C 88.773438 263.890625 88.546875 263.066406 87.949219 262.542969 Z M 87.949219 262.542969 " fill-opacity="1" fill-rule="nonzero"/><path fill="#f2f2f2" d="M 45.835938 33.25 C 46.738281 32.726562 47.785156 32.5 48.984375 32.5 C 50.859375 32.5 52.429688 33.25 53.78125 34.746094 L 56.628906 32.125 C 55.726562 31.078125 54.605469 30.179688 53.253906 29.65625 C 51.90625 29.054688 50.40625 28.757812 48.835938 28.757812 C 46.886719 28.757812 45.164062 29.207031 43.589844 30.03125 C 42.015625 30.851562 40.816406 32.050781 39.917969 33.550781 C 39.019531 35.046875 38.570312 36.695312 38.570312 38.566406 C 38.570312 40.4375 39.019531 42.160156 39.917969 43.582031 C 40.816406 45.082031 42.015625 46.203125 43.589844 47.101562 C 45.164062 47.925781 46.886719 48.375 48.835938 48.375 C 50.484375 48.375 51.980469 48.078125 53.332031 47.476562 C 54.679688 46.878906 55.804688 46.054688 56.703125 44.929688 L 53.855469 42.308594 C 52.582031 43.808594 51.007812 44.558594 49.058594 44.558594 C 47.859375 44.558594 46.8125 44.332031 45.914062 43.808594 C 45.011719 43.285156 44.265625 42.609375 43.738281 41.636719 C 43.214844 40.738281 42.988281 39.6875 42.988281 38.492188 C 42.988281 37.292969 43.214844 36.246094 43.738281 35.347656 C 44.265625 34.449219 44.9375 33.773438 45.835938 33.25 Z M 45.835938 33.25 " fill-opacity="1" fill-rule="nonzero"/><path fill="#f2f2f2" d="M 59.25 27.933594 L 63.445312 27.933594 L 63.445312 48 L 59.25 48 Z M 59.25 27.933594 " fill-opacity="1" fill-rule="nonzero"/><path fill="#f2f2f2" d="M 73.261719 33.25 C 72.0625 33.25 70.9375 33.398438 69.816406 33.699219 C 68.691406 34 67.71875 34.449219 66.96875 34.972656 L 68.464844 37.890625 C 68.992188 37.441406 69.589844 37.144531 70.339844 36.917969 C 71.089844 36.695312 71.839844 36.542969 72.664062 36.542969 C 73.785156 36.542969 74.609375 36.769531 75.210938 37.292969 C 75.734375 37.816406 76.035156 38.492188 76.035156 39.390625 L 72.664062 39.390625 C 70.5625 39.390625 68.992188 39.765625 67.941406 40.589844 C 66.894531 41.335938 66.441406 42.460938 66.441406 43.808594 C 66.441406 44.632812 66.667969 45.378906 67.117188 46.054688 C 67.566406 46.726562 68.167969 47.253906 68.992188 47.628906 C 69.816406 48 70.789062 48.226562 71.914062 48.226562 C 74.085938 48.226562 75.585938 47.550781 76.332031 46.203125 L 76.332031 48 L 80.304688 48 L 80.304688 39.6875 C 80.304688 37.519531 79.707031 35.871094 78.507812 34.820312 C 77.234375 33.773438 75.507812 33.25 73.261719 33.25 Z M 76.035156 43.433594 C 75.808594 44.109375 75.433594 44.558594 74.835938 44.929688 C 74.3125 45.230469 73.636719 45.457031 72.886719 45.457031 C 72.136719 45.457031 71.539062 45.304688 71.164062 45.007812 C 70.714844 44.707031 70.5625 44.257812 70.5625 43.734375 C 70.5625 42.609375 71.464844 42.011719 73.1875 42.011719 L 76.109375 42.011719 L 76.109375 43.433594 Z M 76.035156 43.433594 " fill-opacity="1" fill-rule="nonzero"/><path fill="#f2f2f2" d="M 93.042969 39.914062 C 92.292969 39.6875 91.320312 39.464844 90.121094 39.316406 C 89.070312 39.164062 88.246094 39.015625 87.796875 38.789062 C 87.273438 38.640625 87.046875 38.265625 87.046875 37.816406 C 87.046875 37.441406 87.273438 37.070312 87.722656 36.84375 C 88.171875 36.621094 88.847656 36.46875 89.746094 36.46875 C 91.246094 36.46875 92.667969 36.84375 93.941406 37.519531 L 95.367188 34.523438 C 94.691406 34.148438 93.867188 33.847656 92.816406 33.625 C 91.769531 33.398438 90.796875 33.25 89.746094 33.25 C 88.324219 33.25 87.125 33.472656 86.148438 33.847656 C 85.101562 34.222656 84.351562 34.820312 83.828125 35.496094 C 83.300781 36.246094 83.003906 36.992188 83.003906 37.96875 C 83.003906 39.089844 83.300781 39.914062 83.828125 40.511719 C 84.351562 41.113281 85.101562 41.488281 85.851562 41.785156 C 86.597656 42.011719 87.574219 42.234375 88.773438 42.386719 C 89.746094 42.535156 90.496094 42.683594 91.019531 42.835938 C 91.542969 42.984375 91.769531 43.285156 91.769531 43.734375 C 91.769531 44.632812 90.871094 45.082031 89.070312 45.082031 C 88.171875 45.082031 87.273438 44.929688 86.375 44.707031 C 85.476562 44.480469 84.652344 44.109375 84.050781 43.660156 L 82.628906 46.652344 C 83.300781 47.101562 84.203125 47.476562 85.398438 47.777344 C 86.523438 48.078125 87.722656 48.226562 88.921875 48.226562 C 90.34375 48.226562 91.542969 48 92.59375 47.628906 C 93.640625 47.253906 94.390625 46.726562 94.992188 45.980469 C 95.589844 45.230469 95.816406 44.480469 95.816406 43.582031 C 95.816406 42.535156 95.515625 41.710938 94.992188 41.113281 C 94.464844 40.511719 93.792969 40.140625 93.042969 39.914062 Z M 93.042969 39.914062 " fill-opacity="1" fill-rule="nonzero"/><path fill="#f2f2f2" d="M 107.429688 39.914062 C 106.679688 39.6875 105.707031 39.464844 104.507812 39.316406 C 103.457031 39.164062 102.632812 39.015625 102.183594 38.789062 C 101.660156 38.640625 101.433594 38.265625 101.433594 37.816406 C 101.433594 37.441406 101.660156 37.070312 102.109375 36.84375 C 102.558594 36.621094 103.234375 36.46875 104.132812 36.46875 C 105.632812 36.46875 107.054688 36.84375 108.328125 37.519531 L 109.753906 34.523438 C 109.078125 34.148438 108.253906 33.847656 107.203125 33.625 C 106.15625 33.398438 105.179688 33.25 104.132812 33.25 C 102.707031 33.25 101.511719 33.472656 100.535156 33.847656 C 99.488281 34.222656 98.738281 34.820312 98.214844 35.496094 C 97.6875 36.246094 97.390625 36.992188 97.390625 37.96875 C 97.390625 39.089844 97.6875 39.914062 98.214844 40.511719 C 98.738281 41.113281 99.488281 41.488281 100.234375 41.785156 C 100.984375 42.011719 101.960938 42.234375 103.160156 42.386719 C 104.132812 42.535156 104.882812 42.683594 105.40625 42.835938 C 105.929688 42.984375 106.15625 43.285156 106.15625 43.734375 C 106.15625 44.632812 105.257812 45.082031 103.457031 45.082031 C 102.558594 45.082031 101.660156 44.929688 100.761719 44.707031 C 99.863281 44.480469 99.039062 44.109375 98.4375 43.660156 L 97.015625 46.652344 C 97.6875 47.101562 98.585938 47.476562 99.785156 47.777344 C 100.910156 48.078125 102.109375 48.226562 103.308594 48.226562 C 104.730469 48.226562 105.929688 48 106.980469 47.628906 C 108.027344 47.253906 108.777344 46.726562 109.378906 45.980469 C 109.976562 45.230469 110.203125 44.480469 110.203125 43.582031 C 110.203125 42.535156 109.902344 41.710938 109.378906 41.113281 C 108.851562 40.511719 108.179688 40.140625 107.429688 39.914062 Z M 107.429688 39.914062 " fill-opacity="1" fill-rule="nonzero"/><path fill="#f2f2f2" d="M 114.921875 26.734375 C 114.171875 26.734375 113.5 26.960938 113.050781 27.410156 C 112.523438 27.859375 112.300781 28.382812 112.300781 29.054688 C 112.300781 29.730469 112.523438 30.253906 113.050781 30.703125 C 113.574219 31.152344 114.171875 31.378906 114.921875 31.378906 C 115.671875 31.378906 116.347656 31.152344 116.796875 30.703125 C 117.320312 30.253906 117.546875 29.65625 117.546875 28.980469 C 117.546875 28.308594 117.320312 27.78125 116.796875 27.332031 C 116.269531 26.882812 115.746094 26.734375 114.921875 26.734375 Z M 114.921875 26.734375 " fill-opacity="1" fill-rule="nonzero"/><path fill="#f2f2f2" d="M 112.824219 33.472656 L 117.019531 33.472656 L 117.019531 48 L 112.824219 48 Z M 112.824219 33.472656 " fill-opacity="1" fill-rule="nonzero"/><path fill="#f2f2f2" d="M 127.960938 36.695312 C 129.382812 36.695312 130.507812 37.367188 131.257812 38.714844 L 134.554688 36.992188 C 134.03125 35.796875 133.207031 34.898438 132.082031 34.222656 C 130.957031 33.550781 129.609375 33.25 128.035156 33.25 C 126.460938 33.25 125.113281 33.550781 123.839844 34.222656 C 122.640625 34.898438 121.667969 35.71875 120.917969 36.917969 C 120.242188 38.042969 119.867188 39.316406 119.867188 40.8125 C 119.867188 42.234375 120.242188 43.507812 120.917969 44.707031 C 121.589844 45.828125 122.566406 46.726562 123.839844 47.402344 C 125.039062 48.078125 126.460938 48.375 128.035156 48.375 C 129.535156 48.375 130.882812 48.078125 132.082031 47.402344 C 133.207031 46.726562 134.03125 45.828125 134.554688 44.707031 L 131.257812 42.910156 C 130.507812 44.257812 129.457031 44.929688 127.960938 44.929688 C 126.835938 44.929688 125.9375 44.558594 125.261719 43.882812 C 124.511719 43.132812 124.214844 42.160156 124.214844 40.960938 C 124.214844 39.765625 124.589844 38.714844 125.261719 38.042969 C 126.011719 37.070312 126.910156 36.695312 127.960938 36.695312 Z M 127.960938 36.695312 " fill-opacity="1" fill-rule="nonzero"/><path fill="#f2f2f2" d="M 142.871094 33.25 C 141.671875 33.25 140.546875 33.398438 139.425781 33.699219 C 138.300781 34 137.328125 34.449219 136.578125 34.972656 L 138.074219 37.890625 C 138.601562 37.441406 139.199219 37.144531 139.949219 36.917969 C 140.699219 36.695312 141.449219 36.542969 142.273438 36.542969 C 143.394531 36.542969 144.21875 36.769531 144.820312 37.292969 C 145.34375 37.816406 145.644531 38.492188 145.644531 39.390625 L 142.273438 39.390625 C 140.171875 39.390625 138.601562 39.765625 137.550781 40.589844 C 136.503906 41.335938 136.050781 42.460938 136.050781 43.808594 C 136.050781 44.632812 136.277344 45.378906 136.726562 46.054688 C 137.175781 46.726562 137.777344 47.253906 138.601562 47.628906 C 139.425781 48 140.398438 48.226562 141.523438 48.226562 C 143.695312 48.226562 145.195312 47.550781 145.941406 46.203125 L 145.941406 48 L 149.914062 48 L 149.914062 39.6875 C 149.914062 37.519531 149.316406 35.871094 148.117188 34.820312 C 146.84375 33.773438 145.117188 33.25 142.871094 33.25 Z M 145.644531 43.433594 C 145.417969 44.109375 145.042969 44.558594 144.445312 44.929688 C 143.921875 45.230469 143.246094 45.457031 142.496094 45.457031 C 141.746094 45.457031 141.148438 45.304688 140.773438 45.007812 C 140.324219 44.707031 140.171875 44.257812 140.171875 43.734375 C 140.171875 42.609375 141.074219 42.011719 142.796875 42.011719 L 145.71875 42.011719 L 145.71875 43.433594 Z M 145.644531 43.433594 " fill-opacity="1" fill-rule="nonzero"/><path fill="#f2f2f2" d="M 153.660156 27.933594 L 157.855469 27.933594 L 157.855469 48 L 153.660156 48 Z M 153.660156 27.933594 " fill-opacity="1" fill-rule="nonzero"/><path fill="#f2f2f2" d="M 175.988281 33.25 C 176.964844 32.726562 178.011719 32.5 179.210938 32.5 C 181.160156 32.5 182.734375 33.25 184.082031 34.671875 L 186.929688 32.050781 C 186.03125 31.003906 184.90625 30.179688 183.484375 29.582031 C 182.132812 29.054688 180.636719 28.757812 178.988281 28.757812 C 177.039062 28.757812 175.242188 29.207031 173.59375 30.03125 C 172.019531 30.851562 170.746094 32.050781 169.847656 33.550781 C 168.945312 35.046875 168.496094 36.695312 168.496094 38.566406 C 168.496094 40.4375 168.945312 42.160156 169.847656 43.582031 C 170.746094 45.082031 171.945312 46.203125 173.515625 47.101562 C 175.089844 47.925781 176.890625 48.375 178.835938 48.375 C 180.1875 48.375 181.535156 48.152344 182.957031 47.777344 C 184.308594 47.328125 185.507812 46.804688 186.554688 45.980469 L 186.554688 38.265625 L 182.582031 38.265625 L 182.582031 43.808594 C 181.609375 44.332031 180.410156 44.632812 179.136719 44.632812 C 177.9375 44.632812 176.890625 44.40625 175.988281 43.882812 C 175.089844 43.359375 174.339844 42.683594 173.816406 41.710938 C 173.292969 40.8125 173.066406 39.765625 173.066406 38.566406 C 173.066406 37.367188 173.292969 36.320312 173.816406 35.421875 C 174.339844 34.449219 175.089844 33.773438 175.988281 33.25 Z M 175.988281 33.25 " fill-opacity="1" fill-rule="nonzero"/><path fill="#f2f2f2" d="M 194.421875 35.347656 L 194.421875 33.398438 L 190.375 33.398438 L 190.375 47.925781 L 194.574219 47.925781 L 194.574219 41.039062 C 194.574219 39.6875 194.949219 38.640625 195.621094 37.96875 C 196.296875 37.292969 197.269531 36.917969 198.46875 36.917969 C 198.617188 36.917969 198.917969 36.917969 199.441406 36.992188 L 199.441406 33.25 C 198.320312 33.25 197.34375 33.398438 196.445312 33.773438 C 195.546875 34.148438 194.871094 34.671875 194.421875 35.347656 Z M 194.421875 35.347656 " fill-opacity="1" fill-rule="nonzero"/><path fill="#f2f2f2" d="M 207.683594 33.25 C 206.488281 33.25 205.363281 33.398438 204.238281 33.699219 C 203.113281 34 202.140625 34.449219 201.390625 34.972656 L 202.890625 37.890625 C 203.414062 37.441406 204.015625 37.144531 204.761719 36.917969 C 205.511719 36.695312 206.261719 36.542969 207.085938 36.542969 C 208.210938 36.542969 209.035156 36.769531 209.632812 37.292969 C 210.15625 37.816406 210.457031 38.492188 210.457031 39.390625 L 207.085938 39.390625 C 204.988281 39.390625 203.414062 39.765625 202.367188 40.589844 C 201.316406 41.335938 200.867188 42.460938 200.867188 43.808594 C 200.867188 44.632812 201.089844 45.378906 201.542969 46.054688 C 201.992188 46.726562 202.589844 47.253906 203.414062 47.628906 C 204.238281 48 205.210938 48.226562 206.335938 48.226562 C 208.507812 48.226562 210.007812 47.550781 210.757812 46.203125 L 210.757812 48 L 214.730469 48 L 214.730469 39.6875 C 214.730469 37.519531 214.128906 35.871094 212.929688 34.820312 C 211.730469 33.773438 209.933594 33.25 207.683594 33.25 Z M 210.53125 43.433594 C 210.308594 44.109375 209.933594 44.558594 209.332031 44.929688 C 208.808594 45.230469 208.136719 45.457031 207.386719 45.457031 C 206.636719 45.457031 206.035156 45.304688 205.664062 45.007812 C 205.210938 44.707031 205.0625 44.257812 205.0625 43.734375 C 205.0625 42.609375 205.960938 42.011719 207.683594 42.011719 L 210.609375 42.011719 L 210.609375 43.433594 Z M 210.53125 43.433594 " fill-opacity="1" fill-rule="nonzero"/><path fill="#f2f2f2" d="M 224.46875 43.359375 L 220.421875 33.472656 L 216.078125 33.472656 L 222.222656 48 L 226.566406 48 L 232.710938 33.472656 L 228.664062 33.472656 Z M 224.46875 43.359375 " fill-opacity="1" fill-rule="nonzero"/><path fill="#f2f2f2" d="M 236.535156 26.734375 C 235.785156 26.734375 235.109375 26.960938 234.660156 27.410156 C 234.210938 27.859375 233.910156 28.382812 233.910156 29.054688 C 233.910156 29.730469 234.136719 30.253906 234.660156 30.703125 C 235.183594 31.152344 235.785156 31.378906 236.535156 31.378906 C 237.28125 31.378906 237.957031 31.152344 238.40625 30.703125 C 238.929688 30.253906 239.15625 29.65625 239.15625 28.980469 C 239.15625 28.308594 238.929688 27.78125 238.40625 27.332031 C 237.957031 26.960938 237.359375 26.734375 236.535156 26.734375 Z M 236.535156 26.734375 " fill-opacity="1" fill-rule="nonzero"/><path fill="#f2f2f2" d="M 234.433594 33.472656 L 238.632812 33.472656 L 238.632812 48 L 234.433594 48 Z M 234.433594 33.472656 " fill-opacity="1" fill-rule="nonzero"/><path fill="#f2f2f2" d="M 261.261719 33.25 C 260.210938 33.25 259.160156 33.472656 258.261719 33.847656 C 257.363281 34.296875 256.613281 34.820312 256.015625 35.570312 C 255.492188 34.820312 254.816406 34.222656 253.992188 33.773438 C 253.167969 33.398438 252.269531 33.175781 251.21875 33.175781 C 250.246094 33.175781 249.421875 33.324219 248.597656 33.699219 C 247.847656 34 247.171875 34.523438 246.574219 35.121094 L 246.574219 33.472656 L 242.527344 33.472656 L 242.527344 48 L 246.722656 48 L 246.722656 40.738281 C 246.722656 39.464844 247.023438 38.492188 247.621094 37.890625 C 248.222656 37.21875 248.972656 36.917969 249.945312 36.917969 C 251.820312 36.917969 252.71875 38.042969 252.71875 40.363281 L 252.71875 48.078125 L 256.914062 48.078125 L 256.914062 40.738281 C 256.914062 39.464844 257.214844 38.492188 257.8125 37.890625 C 258.414062 37.21875 259.160156 36.917969 260.136719 36.917969 C 261.035156 36.917969 261.710938 37.21875 262.160156 37.742188 C 262.609375 38.339844 262.910156 39.164062 262.910156 40.289062 L 262.910156 48 L 267.105469 48 L 267.105469 39.6875 C 267.105469 37.519531 266.578125 35.945312 265.53125 34.898438 C 264.558594 33.773438 263.058594 33.25 261.261719 33.25 Z M 261.261719 33.25 " fill-opacity="1" fill-rule="nonzero"/><path fill="#f2f2f2" d="M 281.714844 34.148438 C 280.59375 33.550781 279.242188 33.25 277.820312 33.25 C 276.320312 33.25 275.046875 33.550781 273.847656 34.222656 C 272.648438 34.898438 271.75 35.71875 271.074219 36.917969 C 270.402344 38.042969 270.027344 39.316406 270.027344 40.738281 C 270.027344 42.160156 270.402344 43.433594 271.074219 44.632812 C 271.75 45.753906 272.722656 46.652344 273.996094 47.328125 C 275.273438 48 276.695312 48.300781 278.34375 48.300781 C 280.964844 48.300781 282.988281 47.550781 284.339844 45.980469 L 282.089844 43.507812 C 281.566406 44.03125 281.042969 44.332031 280.441406 44.558594 C 279.84375 44.78125 279.167969 44.929688 278.417969 44.929688 C 277.292969 44.929688 276.394531 44.707031 275.644531 44.183594 C 274.898438 43.660156 274.449219 42.984375 274.222656 42.011719 L 285.238281 42.011719 C 285.3125 41.335938 285.3125 40.960938 285.3125 40.886719 C 285.3125 39.390625 285.011719 38.042969 284.339844 36.917969 C 283.738281 35.644531 282.839844 34.746094 281.714844 34.148438 Z M 274.296875 39.464844 C 274.449219 38.492188 274.820312 37.816406 275.496094 37.21875 C 276.171875 36.621094 276.921875 36.394531 277.894531 36.394531 C 278.867188 36.394531 279.617188 36.695312 280.292969 37.21875 C 280.964844 37.742188 281.339844 38.492188 281.492188 39.390625 L 274.296875 39.390625 Z M 274.296875 39.464844 " fill-opacity="1" fill-rule="nonzero"/><path fill="#f2f2f2" d="M 294.753906 44.855469 C 294.152344 44.855469 293.703125 44.707031 293.40625 44.332031 C 293.105469 44.03125 292.957031 43.507812 292.957031 42.910156 L 292.957031 36.992188 L 296.550781 36.992188 L 296.550781 33.773438 L 292.957031 33.773438 L 292.957031 30.253906 L 288.757812 30.253906 L 288.757812 33.773438 L 286.511719 33.773438 L 286.511719 36.992188 L 288.757812 36.992188 L 288.757812 42.984375 C 288.757812 44.707031 289.207031 45.980469 290.183594 46.878906 C 291.15625 47.777344 292.503906 48.226562 294.230469 48.226562 C 294.902344 48.226562 295.503906 48.152344 296.101562 48 C 296.703125 47.851562 297.226562 47.628906 297.601562 47.328125 L 296.476562 44.332031 C 296.027344 44.707031 295.429688 44.855469 294.753906 44.855469 Z M 294.753906 44.855469 " fill-opacity="1" fill-rule="nonzero"/><path fill="#f2f2f2" d="M 310.113281 34.148438 C 308.988281 33.550781 307.640625 33.25 306.21875 33.25 C 304.71875 33.25 303.445312 33.550781 302.246094 34.222656 C 301.046875 34.898438 300.148438 35.71875 299.472656 36.917969 C 298.800781 38.042969 298.425781 39.316406 298.425781 40.738281 C 298.425781 42.160156 298.800781 43.433594 299.472656 44.632812 C 300.148438 45.753906 301.121094 46.652344 302.394531 47.328125 C 303.671875 48 305.09375 48.300781 306.742188 48.300781 C 309.363281 48.300781 311.386719 47.550781 312.738281 45.980469 L 310.488281 43.507812 C 309.964844 44.03125 309.441406 44.332031 308.839844 44.558594 C 308.242188 44.78125 307.566406 44.929688 306.816406 44.929688 C 305.691406 44.929688 304.792969 44.707031 304.042969 44.183594 C 303.296875 43.660156 302.847656 42.984375 302.621094 42.011719 L 313.710938 42.011719 C 313.785156 41.335938 313.785156 40.960938 313.785156 40.886719 C 313.785156 39.390625 313.484375 38.042969 312.8125 36.917969 C 312.136719 35.644531 311.238281 34.746094 310.113281 34.148438 Z M 302.695312 39.464844 C 302.847656 38.492188 303.21875 37.816406 303.894531 37.21875 C 304.570312 36.621094 305.320312 36.394531 306.292969 36.394531 C 307.265625 36.394531 308.015625 36.695312 308.691406 37.21875 C 309.363281 37.742188 309.738281 38.492188 309.890625 39.390625 L 302.695312 39.390625 Z M 302.695312 39.464844 " fill-opacity="1" fill-rule="nonzero"/><path fill="#f2f2f2" d="M 322.703125 33.773438 C 321.878906 34.148438 321.128906 34.671875 320.679688 35.347656 L 320.679688 33.398438 L 316.632812 33.398438 L 316.632812 47.925781 L 320.828125 47.925781 L 320.828125 41.039062 C 320.828125 39.6875 321.203125 38.640625 321.878906 37.96875 C 322.550781 37.292969 323.527344 36.917969 324.726562 36.917969 C 324.875 36.917969 325.175781 36.917969 325.699219 36.992188 L 325.699219 33.25 C 324.574219 33.25 323.601562 33.398438 322.703125 33.773438 Z M 322.703125 33.773438 " fill-opacity="1" fill-rule="nonzero"/></svg>