<?xml version="1.0" encoding="utf-8"?>
<!-- Generator: Adobe Illustrator 27.0.0, SVG Export Plug-In . SVG Version: 6.00 Build 0)  -->
<svg version="1.1" id="Layer_1" xmlns="http://www.w3.org/2000/svg" xmlns:xlink="http://www.w3.org/1999/xlink" x="0px" y="0px"
	 viewBox="0 0 483.4 387.8" style="enable-background:new 0 0 483.4 387.8;" xml:space="preserve">
<style type="text/css">
	.st0{opacity:0.8;stroke:#666666;stroke-miterlimit:10;enable-background:new    ;}
	.st1{stroke:#808080;stroke-miterlimit:10;}
	.st2{stroke:#F2F2F2;stroke-linecap:round;stroke-linejoin:round;}
	.st3{fill:none;stroke:#F2F2F2;stroke-linecap:round;stroke-linejoin:round;}
	.st4{fill:#FFFFFF;}
	.st5{font-family:'Arial-BoldMT';}
	.st6{font-size:18.4px;}
</style>
<g id="Layer_5">
	<rect x="0.5" y="100.1" class="st0" width="482.4" height="287.3"/>
	<rect x="0.5" y="0.5" class="st1" width="482.4" height="99.6"/>
</g>
<g id="Layer_6">
	<polygon class="st2" points="7.6,235.4 258.9,365.5 479.8,229.9 321.2,185.5 241.7,134.9 162.6,187.1 	"/>
	<polyline class="st3" points="65.5,217.3 103.8,243.7 44.9,254.7 	"/>
	<polyline class="st3" points="87,276.5 155.8,238.7 103.8,243.7 154.7,205.9 116.3,201.5 	"/>
	<polyline class="st3" points="154.7,205.9 198.1,196.2 155.8,238.7 195.6,274.8 135.8,301.8 	"/>
	<polyline class="st3" points="321.2,185.5 244.5,215.8 198.1,196.2 248,251.9 195.6,274.8 252.9,256.6 192,330.9 	"/>
	<line class="st3" x1="162.6" y1="187.1" x2="191.1" y2="197.7"/>
	<polyline class="st3" points="202.9,198.2 241.7,134.9 285.5,199.6 389.6,206.4 411.9,210.9 	"/>
	<polyline class="st3" points="244.5,215.8 293.4,240.5 333.3,202.7 368.5,198.8 	"/>
	<polyline class="st3" points="448.8,249 389.6,206.4 347.7,264 293.4,240.5 248,251.9 304.3,269.1 252.9,256.6 318.6,328.9 	"/>
	<polyline class="st3" points="368.5,298.3 304.3,269.1 347.7,264 411.9,271.6 	"/>
	<text transform="matrix(1 0 0 1 21.71 359.04)" class="st4 st5 st6">10</text>
	<text transform="matrix(1 0 0 1 41.1001 359.04)" class="st4 st5 st6">0</text>
	<text transform="matrix(1 0 0 1 53.2998 359.04)" class="st4 st5 st6">x</text>
	<text transform="matrix(1 0 0 1 64.02 359.04)" class="st4 st5 st6">100 m</text>
</g>
</svg>
