<svg width="128" height="329" viewBox="0 0 128 329" fill="none" xmlns="http://www.w3.org/2000/svg">
<path opacity="0.6" d="M63.622 18.7531C63.8581 18.7531 64.1793 18.8769 64.5886 19.3159C64.997 19.754 65.4311 20.4428 65.8778 21.4084C66.7694 23.3352 67.6457 26.2171 68.4888 29.9831C70.1724 37.5044 71.6937 48.414 72.973 61.9252C75.5308 88.9399 77.1139 126.275 77.1139 167.525C77.1139 208.774 75.5308 246.109 72.973 273.124C71.6937 286.635 70.1725 297.545 68.4888 305.066C67.6458 308.832 66.7694 311.714 65.8778 313.641C65.4311 314.606 64.9971 315.295 64.5886 315.733C64.1793 316.172 63.8581 316.296 63.622 316.296C63.3859 316.296 63.0646 316.172 62.6553 315.733C62.2469 315.295 61.8128 314.606 61.3661 313.641C60.4746 311.714 59.5982 308.832 58.7552 305.066C57.0715 297.545 55.5502 286.635 54.271 273.124C51.7131 246.109 50.13 208.774 50.13 167.525C50.13 126.275 51.7131 88.9399 54.2709 61.9252C55.5502 48.414 57.0715 37.5044 58.7552 29.9831C59.5982 26.2171 60.4745 23.3352 61.3661 21.4084C61.8128 20.4428 62.2469 19.754 62.6553 19.3159C63.0646 18.8769 63.3858 18.7531 63.622 18.7531Z" fill="#0C0C0C" stroke="#650018" stroke-width="1.31224"/>
<path opacity="0.6" d="M94.577 18.7531C94.8132 18.7531 95.1344 18.8769 95.5437 19.3159C95.9521 19.754 96.3862 20.4428 96.8329 21.4084C97.7245 23.3352 98.6008 26.2171 99.4438 29.9831C101.128 37.5044 102.649 48.414 103.928 61.9252C106.486 88.9399 108.069 126.275 108.069 167.525C108.069 208.774 106.486 246.109 103.928 273.124C102.649 286.635 101.128 297.545 99.4439 305.066C98.6008 308.832 97.7245 311.714 96.8329 313.641C96.3862 314.606 95.9521 315.295 95.5437 315.733C95.1344 316.172 94.8132 316.296 94.5771 316.296C94.3409 316.296 94.0197 316.172 93.6104 315.733C93.202 315.295 92.7679 314.606 92.3212 313.641C91.4296 311.714 90.5533 308.832 89.7102 305.066C88.0266 297.545 86.5053 286.635 85.226 273.124C82.6682 246.109 81.0851 208.774 81.0851 167.525C81.0851 126.275 82.6682 88.9399 85.226 61.9252C86.5053 48.414 88.0266 37.5044 89.7102 29.9831C90.5533 26.2171 91.4296 23.3352 92.3212 21.4084C92.7679 20.4428 93.202 19.754 93.6104 19.3159C94.0197 18.8769 94.3409 18.7531 94.577 18.7531Z" fill="#0C0C0C" stroke="#650018" stroke-width="1.31224"/>
<rect x="47.8306" y="329" width="329" height="17.5321" transform="rotate(-90 47.8306 329)" fill="url(#paint0_linear_752_34)"/>
<rect x="78.7856" y="329" width="329" height="17.5321" transform="rotate(-90 78.7856 329)" fill="url(#paint1_linear_752_34)"/>
<rect x="109.741" y="329" width="329" height="17.5321" transform="rotate(-90 109.741 329)" fill="url(#paint2_linear_752_34)"/>
<path opacity="0.6" d="M46.1862 18.7531C46.4223 18.7531 46.7435 18.8769 47.1528 19.3159C47.5612 19.754 47.9953 20.4428 48.442 21.4084C49.3336 23.3352 50.2099 26.2171 51.053 29.9831C52.7367 37.5044 54.2579 48.414 55.5372 61.9252C58.095 88.9399 59.6782 126.275 59.6782 167.525C59.6782 208.774 58.095 246.109 55.5372 273.124C54.2579 286.635 52.7367 297.545 51.053 305.066C50.21 308.832 49.3336 311.714 48.4421 313.641C47.9953 314.606 47.5613 315.295 47.1528 315.733C46.7435 316.172 46.4223 316.296 46.1862 316.296C45.9501 316.296 45.6288 316.172 45.2195 315.733C44.8111 315.295 44.3771 314.606 43.9303 313.641C43.0388 311.714 42.1624 308.832 41.3194 305.066C39.6357 297.545 38.1144 286.635 36.8352 273.124C34.2774 246.109 32.6942 208.774 32.6942 167.525C32.6942 126.275 34.2773 88.9399 36.8352 61.9252C38.1144 48.414 39.6357 37.5044 41.3194 29.9831C42.1624 26.2171 43.0388 23.3352 43.9303 21.4084C44.377 20.4428 44.8111 19.754 45.2195 19.3159C45.6288 18.8769 45.9501 18.7531 46.1862 18.7531Z" fill="#0C0C0C" stroke="#650018" stroke-width="1.31224"/>
<rect x="30.394" y="329" width="329" height="17.5321" transform="rotate(-90 30.394 329)" fill="url(#paint3_linear_752_34)"/>
<path opacity="0.6" d="M28.8876 18.7531C29.1237 18.7531 29.4449 18.8769 29.8542 19.3159C30.2627 19.754 30.6967 20.4428 31.1435 21.4084C32.035 23.3352 32.9114 26.2171 33.7544 29.9831C35.4381 37.5044 36.9593 48.414 38.2386 61.9252C40.7964 88.9399 42.3796 126.275 42.3796 167.525C42.3796 208.774 40.7964 246.109 38.2386 273.124C36.9594 286.635 35.4381 297.545 33.7544 305.066C32.9114 308.832 32.035 311.714 31.1435 313.641C30.6967 314.606 30.2627 315.295 29.8543 315.733C29.4449 316.172 29.1237 316.296 28.8876 316.296C28.6515 316.296 28.3303 316.172 27.9209 315.733C27.5125 315.295 27.0785 314.606 26.6317 313.641C25.7402 311.714 24.8638 308.832 24.0208 305.066C22.3371 297.545 20.8158 286.635 19.5366 273.124C16.9788 246.109 15.3956 208.774 15.3956 167.525C15.3956 126.275 16.9788 88.9399 19.5366 61.9252C20.8158 48.414 22.3371 37.5044 24.0208 29.9831C24.8638 26.2171 25.7402 23.3352 26.6317 21.4084C27.0785 20.4428 27.5125 19.754 27.9209 19.3159C28.3302 18.8769 28.6515 18.7531 28.8876 18.7531Z" fill="#0C0C0C" stroke="#650018" stroke-width="1.31224"/>
<rect x="17.7354" y="328.964" width="328.869" height="12.7871" transform="rotate(-90 17.7354 328.964)" fill="url(#paint4_linear_752_34)"/>
<path d="M14.1481 18.7531C14.3842 18.7531 14.7054 18.8769 15.1147 19.3159C15.5232 19.754 15.9572 20.4428 16.404 21.4084C17.2955 23.3352 18.1719 26.2171 19.0149 29.9831C20.6986 37.5044 22.2198 48.414 23.4991 61.9252C26.0569 88.9399 27.6401 126.275 27.6401 167.525C27.6401 208.774 26.0569 246.109 23.4991 273.124C22.2199 286.635 20.6986 297.545 19.0149 305.066C18.1719 308.832 17.2955 311.714 16.404 313.641C15.9572 314.606 15.5232 315.295 15.1148 315.733C14.7054 316.172 14.3842 316.296 14.1481 316.296C13.912 316.296 13.5908 316.172 13.1814 315.733C12.773 315.295 12.339 314.606 11.8922 313.641C11.0007 311.714 10.1243 308.832 9.28129 305.066C7.59762 297.545 6.07634 286.635 4.79708 273.124C2.23927 246.109 0.656115 208.774 0.656113 167.525C0.656112 126.275 2.23926 88.9399 4.79707 61.9252C6.07633 48.414 7.5976 37.5044 9.28128 29.9831C10.1243 26.2171 11.0007 23.3352 11.8922 21.4084C12.339 20.4428 12.773 19.754 13.1814 19.3159C13.5907 18.8769 13.912 18.7531 14.1481 18.7531Z" fill="#0C0C0C" stroke="#650018" stroke-width="1.31224"/>
<defs>
<linearGradient id="paint0_linear_752_34" x1="212.331" y1="329" x2="212.331" y2="346.532" gradientUnits="userSpaceOnUse">
<stop offset="0.432292" stop-color="#0C0C0C"/>
<stop offset="1" stop-color="#0C0C0C" stop-opacity="0"/>
</linearGradient>
<linearGradient id="paint1_linear_752_34" x1="243.286" y1="329" x2="243.286" y2="346.532" gradientUnits="userSpaceOnUse">
<stop offset="0.432292" stop-color="#0C0C0C"/>
<stop offset="1" stop-color="#0C0C0C" stop-opacity="0"/>
</linearGradient>
<linearGradient id="paint2_linear_752_34" x1="274.241" y1="329" x2="274.241" y2="346.532" gradientUnits="userSpaceOnUse">
<stop offset="0.432292" stop-color="#0C0C0C"/>
<stop offset="1" stop-color="#0C0C0C" stop-opacity="0"/>
</linearGradient>
<linearGradient id="paint3_linear_752_34" x1="194.894" y1="329" x2="194.894" y2="346.532" gradientUnits="userSpaceOnUse">
<stop offset="0.432292" stop-color="#0C0C0C"/>
<stop offset="1" stop-color="#0C0C0C" stop-opacity="0"/>
</linearGradient>
<linearGradient id="paint4_linear_752_34" x1="182.17" y1="328.964" x2="182.17" y2="341.751" gradientUnits="userSpaceOnUse">
<stop offset="0.432292" stop-color="#0C0C0C"/>
<stop offset="1" stop-color="#0C0C0C" stop-opacity="0"/>
</linearGradient>
</defs>
</svg>
