<svg width="54" height="58" viewBox="0 0 54 58" fill="none" xmlns="http://www.w3.org/2000/svg">
<g clip-path="url(#clip0_990_11038)">
<path d="M13.2465 19.1531L13.1042 42.6485L40.8948 42.9296V18.8331C40.8948 18.8331 36.4879 11.7421 26.3091 11.3188C16.1303 10.8954 13.2465 19.1531 13.2465 19.1531Z" fill="#211413"/>
<path d="M42.9167 42.0888C40.7204 40.58 37.1245 39.2838 31.329 39.6826L30.5636 42.9287H23.5455L22.7801 39.6826C16.9845 39.2838 13.3887 40.58 11.1924 42.0888C11.1924 42.0888 1.06188 48.5033 0.398926 57.9573H7.88781H8.5931H24.4023H27.0203H27.088H38.5309H45.516H46.2204H53.7102C53.0472 48.5033 42.9167 42.0888 42.9167 42.0888Z" fill="#EDEDED"/>
<path d="M22.8149 36.1587V45.0988H31.3342V36.3771L22.8149 36.1587Z" fill="#F18C81"/>
<path d="M11.7056 57.8964V52.9517C11.7056 52.7917 11.5515 52.6613 11.361 52.6613C11.1705 52.6613 11.0164 52.7909 11.0164 52.9517V57.8964H11.7056Z" fill="#893124"/>
<path d="M16.0718 16.0466C16.0718 16.0466 11.0163 38.3042 27.0999 38.0756C43.191 37.8487 37.9238 16.0466 37.9238 16.0466H16.0718Z" fill="#F9BBB7"/>
<path d="M16.2125 18.2539C16.2125 18.2539 11.1273 18.3073 11.0181 23.4212C10.9088 28.5352 16.0719 28.6944 16.0719 28.6944L16.2125 18.2539Z" fill="#F9BBB7"/>
<path d="M16.1516 20.9921C16.1516 20.9921 13.6124 21.0183 13.5582 23.5719C13.504 26.1255 16.0813 26.2043 16.0813 26.2043L16.1516 20.9921Z" fill="#F18C81"/>
<path d="M37.8645 28.818C37.8645 28.818 42.9497 28.7646 43.0589 23.6507C43.1681 18.5367 38.0034 18.3775 38.0034 18.3775L37.8645 28.818Z" fill="#F9BBB7"/>
<path d="M37.9246 26.0806C37.9246 26.0806 40.4646 26.0544 40.5188 23.5008C40.5721 20.9472 37.9957 20.8685 37.9957 20.8685L37.9246 26.0806Z" fill="#F18C81"/>
<path d="M14.4955 19.4723C14.4955 19.4723 20.2605 19.789 23.7979 16.0466C23.7979 16.0466 26.9603 20.214 40.3599 19.8618C40.3599 19.8618 40.7967 9.69654 33.1859 7.89734C22.9758 5.48261 13.079 6.90419 14.4955 19.4723Z" fill="#F18C81"/>
<path d="M13.3431 20.3325C13.3431 20.3325 21.6033 18.6011 23.7699 14.8367C23.7699 14.8367 27.1016 20.0684 40.9127 19.8567C40.9127 19.8567 43.0607 1.59719 27.028 1.59719C10.7497 1.59719 13.3431 20.3325 13.3431 20.3325Z" fill="#4D2F2B"/>
<path d="M30.8532 24.0012C30.8532 24.0012 30.6279 23.5702 31.0614 23.102C31.4933 22.6338 33.2527 21.5755 34.8715 23.185C34.8715 23.185 35.3211 23.6642 34.83 24.2611C34.3372 24.8572 33.5947 24.1638 33.5947 24.1638C33.5947 24.1638 32.776 23.6126 32.1613 24.2611C31.5466 24.9097 30.9014 24.1646 30.8532 24.0012Z" fill="#4D2F2B"/>
<path d="M26.9984 32.7838C27.6605 32.7838 28.315 32.6568 28.9263 32.4003C29.5367 32.1471 30.0904 31.7754 30.5553 31.3055C30.7043 31.1582 30.7864 30.9567 30.7864 30.7484C30.7864 30.5384 30.7034 30.3386 30.5553 30.1913C30.408 30.0423 30.2064 29.9584 29.9982 29.9584C29.7899 29.9584 29.5884 30.0423 29.441 30.1913C28.7908 30.8348 27.9145 31.1971 26.9984 31.1971C26.0848 31.1971 25.2059 30.8348 24.5557 30.1913C24.4092 30.0423 24.2077 29.9584 23.9986 29.9584C23.7894 29.9584 23.5888 30.0423 23.4415 30.1913C23.295 30.3386 23.2095 30.5384 23.2095 30.7484C23.2095 30.9567 23.295 31.1582 23.4415 31.3055C23.9063 31.7771 24.4592 32.1522 25.0713 32.4087C25.6809 32.6636 26.3371 32.7957 26.9984 32.7957V32.7838Z" fill="#4D2F2B"/>
<path d="M23.1595 24.0012C23.1595 24.0012 23.3839 23.5702 22.9513 23.102C22.5186 22.6338 20.7592 21.5755 19.1412 23.185C19.1412 23.185 18.6899 23.6642 19.1818 24.2611C19.6738 24.858 20.4171 24.1638 20.4171 24.1638C20.4171 24.1638 21.235 23.6126 21.8497 24.2611C22.4644 24.9097 23.1113 24.1646 23.1595 24.0012Z" fill="#4D2F2B"/>
<path d="M27.7924 26.7385L27.7932 26.0705H27.7916V25.3203C27.7916 25.3203 27.8559 24.4449 26.9982 24.4432C26.204 24.4415 26.2049 25.3203 26.2049 25.3203V26.0705V26.2661V26.9341L26.2057 27.6843C26.2057 27.6843 26.1405 28.5597 26.9991 28.5614C27.7941 28.5631 27.7924 27.6843 27.7924 27.6843V26.9341V26.7385Z" fill="#4D2F2B"/>
<g opacity="0.4">
<path d="M21.086 28.5403C23.9706 28.5403 26.3091 26.2018 26.3091 23.3171C26.3091 20.4324 23.9706 18.0939 21.086 18.0939C18.2013 18.0939 15.8628 20.4324 15.8628 23.3171C15.8628 26.2018 18.2013 28.5403 21.086 28.5403Z" fill="#1F9FDA"/>
<path opacity="0.5" d="M16.3674 25.5455C16.8585 26.5827 17.6764 27.432 18.6933 27.9569L23.0774 18.4893C22.4635 18.2362 21.7904 18.0939 21.0851 18.0939C20.6169 18.0939 20.1656 18.1616 19.733 18.2768L16.3674 25.5455Z" fill="white"/>
<path opacity="0.5" d="M23.7834 18.8508L19.4238 28.2651C19.9462 28.4403 20.5042 28.5394 21.0859 28.5394C21.1934 28.5394 21.2984 28.5293 21.4034 28.5233L25.2625 20.1894C24.8604 19.6552 24.3591 19.1997 23.7834 18.8508Z" fill="white"/>
</g>
<g opacity="0.4">
<path d="M32.9275 28.6479C35.8122 28.6479 38.1507 26.3094 38.1507 23.4248C38.1507 20.5401 35.8122 18.2016 32.9275 18.2016C30.0428 18.2016 27.7043 20.5401 27.7043 23.4248C27.7043 26.3094 30.0428 28.6479 32.9275 28.6479Z" fill="#1F9FDA"/>
<path opacity="0.5" d="M28.1445 25.5185C28.6111 26.581 29.4196 27.4607 30.4314 28.0128L34.8104 18.5562C34.2271 18.3293 33.5929 18.2006 32.9266 18.2006C32.4076 18.2006 31.9046 18.2793 31.4313 18.4207L28.1445 25.5185Z" fill="white"/>
<path opacity="0.5" d="M35.5268 18.8983L31.158 28.3337C31.7117 28.5326 32.3052 28.6478 32.9275 28.6478C32.9919 28.6478 33.0528 28.6402 33.1163 28.6376L37.0271 20.1928C36.6148 19.6713 36.1051 19.2319 35.5268 18.8983Z" fill="white"/>
</g>
<path d="M21.0859 28.4852C23.9136 28.4852 26.2058 26.193 26.2058 23.3653C26.2058 20.5377 23.9136 18.2455 21.0859 18.2455C18.2583 18.2455 15.9661 20.5377 15.9661 23.3653C15.9661 26.193 18.2583 28.4852 21.0859 28.4852Z" stroke="#263E8C" stroke-miterlimit="10"/>
<path d="M32.9785 28.4852C35.8062 28.4852 38.0984 26.193 38.0984 23.3653C38.0984 20.5377 35.8062 18.2455 32.9785 18.2455C30.1509 18.2455 27.8586 20.5377 27.8586 23.3653C27.8586 26.193 30.1509 28.4852 32.9785 28.4852Z" stroke="#263E8C" stroke-miterlimit="10"/>
<path d="M27.9348 22.5822H26.0696V23.8522H27.9348V22.5822Z" fill="#263E8C"/>
<path d="M40.6662 54.099C40.2945 54.0059 38.5097 54.0042 37.9729 54.005C37.4361 54.0042 35.6521 54.0059 35.2796 54.099C34.8308 54.2108 34.637 54.679 34.637 54.679C34.637 54.679 34.6708 56.4451 34.6742 57.9582H38.5308H41.2707C41.2741 56.4451 41.3088 54.679 41.3088 54.679C41.3088 54.679 41.1149 54.2108 40.6662 54.099Z" fill="#D8D8D8"/>
<path d="M41.2944 55.441C41.2944 55.4986 41.2351 55.5443 41.1632 55.5443H34.7792C34.7064 55.5443 34.6479 55.4986 34.6479 55.441C34.6479 55.3851 34.7064 55.3385 34.7792 55.3385H41.1632C41.2351 55.3385 41.2944 55.3843 41.2944 55.441Z" fill="#9B9A9A"/>
<path d="M25.2542 47.3891L24.0544 57.9573H30.1226L28.6409 47.3891H25.2542Z" fill="#F1583D"/>
<path d="M26.8899 42.679L23.4414 42.5418L24.9248 48.4127C24.9248 48.4127 24.9815 48.9817 25.8909 48.9766C26.2075 48.9749 26.4928 48.9749 26.7054 48.9757C26.7054 48.9757 26.7833 48.9766 26.8899 48.9766C26.9966 48.9766 27.0745 48.9766 27.0745 48.9766C27.287 48.9757 27.5724 48.9749 27.889 48.9766C28.7984 48.9817 28.8551 48.4127 28.8551 48.4127L30.5298 42.5418L26.8899 42.679Z" fill="#F1583D"/>
<path d="M28.7417 48.7835C28.7417 48.8191 28.7103 48.8479 28.6705 48.8479H25.2364C25.1966 48.8479 25.1653 48.8191 25.1653 48.7835C25.1653 48.748 25.1975 48.7183 25.2364 48.7183H28.6705C28.7103 48.7183 28.7417 48.748 28.7417 48.7835Z" fill="#893124"/>
<path d="M19.8057 42.3953C19.8057 42.3953 20.7709 39.7655 21.7361 39.4193L27.0778 42.6714C27.0778 42.6714 24.4497 44.8228 24.0552 47.1063C24.0552 47.1063 21.9986 45.7169 19.8057 42.3953Z" fill="#D8D8D8"/>
<path d="M34.1909 42.3953C34.1909 42.3953 33.2197 39.7655 32.2469 39.4192L26.8679 42.6714C26.8679 42.6714 29.3284 45.1056 29.7255 47.3891C29.7255 47.3891 31.9827 45.7169 34.1909 42.3953Z" fill="#D8D8D8"/>
<path d="M43.4045 57.9573V53.0119C43.4045 52.8527 43.2504 52.7215 43.0608 52.7215C42.8694 52.7215 42.7153 52.8518 42.7153 53.0119V57.9573H43.4045Z" fill="#893124"/>
<path opacity="0.3" d="M53.7103 57.9573C53.5409 55.546 52.7544 53.3353 51.6799 51.3769C51.6588 51.9958 51.3379 54.3581 47.7522 54.4749V54.5046C39.6605 54.5105 14.2643 54.5105 6.42318 54.5046C2.33203 54.3699 2.49205 51.3134 2.49543 51.2618C1.38713 53.2498 0.572625 55.4986 0.399902 57.9573H6.42403H7.88879H8.59407H17.933H24.4033H24.7953H27.0212H27.089H29.552H36.4143H38.531H45.5161H46.2206H47.7522H53.7103Z" fill="black"/>
<path d="M40.5486 8.42313C38.7494 3.64277 29.7949 0.856346 26.8679 0.856346C24.0095 0.856346 15.3184 3.92556 13.1881 8.42313C12.3431 10.2062 12.0383 16.4429 12.0383 16.4429C12.0383 16.4429 25.1229 12.4042 26.8679 12.2679C28.6138 12.4042 41.6975 16.4429 41.6975 16.4429C41.6975 16.4429 41.2437 10.2697 40.5486 8.42313Z" fill="#F1583D"/>
<path d="M39.9975 14.4295L39.9983 14.4286C26.3168 8.36809 9.35186 15.5327 9.59063 16.9771C9.59063 16.9771 9.58978 18.6443 12.8952 17.2667C15.3735 16.2346 21.6109 13.8216 26.3083 13.9274C32.2469 13.8216 38.5945 16.2346 41.0727 17.2667C44.3782 18.6443 44.3782 16.9771 44.3782 16.9771C44.2072 16.2024 41.9228 15.1322 39.9975 14.4295Z" fill="#893124"/>
<path fill-rule="evenodd" clip-rule="evenodd" d="M26.8781 9.73294C26.7104 9.62542 26.5445 9.51535 26.3743 9.4129C26.3489 9.39766 26.3015 9.40951 26.2676 9.41882C25.9958 9.49249 25.7283 9.58647 25.4523 9.63896C25.1043 9.70585 24.7487 9.72871 24.4007 9.62287C24.1814 9.55599 24.0383 9.40951 23.9596 9.19361C23.9393 9.13773 23.8842 9.0937 23.847 9.04374C23.7742 8.94722 23.6751 8.85917 23.637 8.74995C23.5879 8.60855 23.5202 8.48663 23.4406 8.36217C23.3872 8.27919 23.3821 8.16658 23.3525 8.06752C23.3373 8.01587 23.3144 7.96677 23.2975 7.91512C23.2534 7.78558 23.2103 7.65519 23.1679 7.5248C23.151 7.47231 23.151 7.4105 23.1205 7.36901C22.9224 7.09807 22.9402 6.81105 23.0748 6.52995C23.2086 6.25139 23.3694 5.98638 23.5159 5.71544C23.5532 5.64602 23.5777 5.57151 23.6141 5.50208C23.6319 5.46821 23.6641 5.44197 23.6895 5.41233C23.7124 5.44959 23.7555 5.48769 23.7547 5.52494C23.7521 5.65533 23.7386 5.78656 23.7208 5.91526C23.6929 6.12185 23.6539 6.32675 23.6268 6.53249C23.5938 6.78734 23.7818 6.86354 23.9934 6.79412C24.2771 6.70013 24.5548 6.58499 24.8359 6.48254C25.0586 6.40126 25.2863 6.3513 25.5259 6.36146C25.7706 6.37162 25.9332 6.57737 25.8909 6.82206C25.8587 7.00579 25.8384 7.1929 25.8257 7.37917C25.8163 7.52311 25.8858 7.63656 26.0094 7.717C26.0272 7.54766 26.0026 7.36478 26.0695 7.22508C26.2024 6.94821 26.166 6.68659 26.1059 6.40972C25.9772 5.8162 25.8578 5.22098 25.7351 4.62661C25.7334 4.61815 25.7351 4.60883 25.7325 4.60037C25.6453 4.24476 25.6453 4.24476 25.2762 4.22783C25.2558 4.22698 25.2347 4.22105 25.1847 4.21259C25.2237 4.16856 25.2431 4.133 25.2736 4.11437C25.4243 4.01954 25.5734 3.91879 25.7334 3.84343C25.8121 3.80618 25.9163 3.80703 26.0069 3.81465C26.067 3.81973 26.0907 3.81042 26.1305 3.76469C26.2084 3.6741 26.3049 3.59874 26.3946 3.51831C26.4463 3.47174 26.4988 3.42687 26.5521 3.382C26.5801 3.35913 26.6199 3.31765 26.6385 3.32527C26.6707 3.33797 26.691 3.38199 26.7316 3.4311C26.8239 3.34813 26.9255 3.25076 27.0347 3.16355C27.0644 3.14069 27.138 3.12884 27.1609 3.14831C27.2701 3.23806 27.3692 3.34135 27.4742 3.44211C27.5097 3.39131 27.5343 3.35659 27.5588 3.32188C27.5952 3.34897 27.6316 3.37522 27.6672 3.40231C27.7536 3.46835 27.8391 3.53609 27.9254 3.60213C27.9322 3.60721 27.9458 3.60552 27.9491 3.61229C28.049 3.77485 28.1803 3.83158 28.3784 3.80618C28.4665 3.79517 28.5723 3.89339 28.6654 3.94758C28.762 4.0043 28.8568 4.0678 28.9499 4.13131C28.9728 4.14739 28.9889 4.17449 29.0354 4.22783C28.9228 4.22783 28.8551 4.22783 28.7857 4.22783C28.6104 4.22783 28.5604 4.25661 28.5181 4.43103C28.4597 4.66217 28.4148 4.89671 28.3657 5.12954C28.2556 5.66464 28.149 6.20144 28.0363 6.73569C28.0152 6.83306 28.0313 6.91435 28.0601 7.01002C28.1286 7.23608 28.1684 7.47061 28.2192 7.7026C28.3428 7.60439 28.4004 7.45537 28.3793 7.27588C28.364 7.14634 28.3479 7.01595 28.3217 6.88894C28.2556 6.5816 28.4207 6.34707 28.7399 6.35723C29.1091 6.36908 29.4325 6.51217 29.7687 6.62732C29.9566 6.69252 30.142 6.77041 30.3359 6.80597C30.4985 6.8356 30.5899 6.73993 30.5755 6.57652C30.5578 6.36485 30.5137 6.15572 30.4866 5.94489C30.4689 5.80688 30.4553 5.66719 30.4502 5.52833C30.4494 5.49023 30.49 5.45043 30.5112 5.41149C30.5391 5.44281 30.5755 5.47075 30.5959 5.50716C30.7381 5.77133 30.8753 6.03803 31.0175 6.30219C31.1335 6.5181 31.247 6.734 31.2241 6.99139C31.219 7.04727 31.2233 7.11501 31.1936 7.15565C31.0607 7.33768 31.0573 7.56036 30.9811 7.75933C30.9235 7.90919 30.8736 8.0599 30.8219 8.21146C30.7364 8.46038 30.5967 8.69068 30.4739 8.92605C30.4494 8.97432 30.391 9.00395 30.3529 9.04544C30.3148 9.08523 30.2648 9.12503 30.2504 9.17414C30.1446 9.51958 29.8389 9.65505 29.518 9.68045C28.9897 9.72109 28.4842 9.61187 27.9932 9.43152C27.9026 9.3985 27.8475 9.40866 27.762 9.46455C27.5749 9.58647 27.3717 9.69061 27.1626 9.77104C27.083 9.80152 26.9712 9.74564 26.8739 9.72956L26.8781 9.73294ZM26.9018 6.14556C26.8849 6.15149 26.8679 6.15826 26.851 6.16419C26.851 6.25393 26.8485 6.34453 26.8518 6.43512C26.8637 6.73908 26.7426 6.98716 26.5504 7.21576C26.3684 7.43167 26.1542 7.62979 26.1 7.93967C25.846 7.77711 25.6741 7.58661 25.7147 7.27164C25.7368 7.09892 25.7672 6.92535 25.7613 6.75347C25.7588 6.67304 25.6978 6.57567 25.6335 6.52149C25.5412 6.44359 25.3955 6.45968 25.305 6.52318C25.4734 6.64764 25.5115 6.70521 25.498 6.91773C25.4878 7.07183 25.4574 7.22677 25.4184 7.37663C25.3295 7.71361 25.2076 8.04466 25.2618 8.40366C25.2931 8.61448 25.3727 8.7999 25.5403 8.93029C25.7452 9.08947 25.9857 9.17159 26.2431 9.20631C26.2905 9.21223 26.3379 9.24441 26.3785 9.27489C26.5267 9.38072 26.6681 9.49672 26.8197 9.59663C26.934 9.67283 27.0669 9.72448 27.2015 9.66013C27.3641 9.58223 27.5351 9.50603 27.6723 9.39427C27.8154 9.27743 27.9601 9.20546 28.1422 9.17159C28.3725 9.12841 28.5901 9.0285 28.7509 8.84901C28.9906 8.5823 28.9779 8.2521 28.9287 7.93205C28.8915 7.68652 28.8017 7.44945 28.7442 7.20645C28.6832 6.95075 28.6273 6.69167 28.916 6.5181C28.668 6.39279 28.4368 6.52741 28.4419 6.78988C28.4453 6.91942 28.4605 7.05066 28.4876 7.17766C28.5562 7.49855 28.397 7.81267 28.1024 7.91597C28.0372 7.60608 27.801 7.40711 27.6172 7.17343C27.4615 6.9753 27.3531 6.75856 27.3565 6.49863C27.3573 6.38686 27.3565 6.2751 27.3565 6.16334C27.3387 6.15826 27.3217 6.15233 27.304 6.14641C27.2362 6.27002 27.1693 6.39364 27.1008 6.51894C27.0364 6.39618 26.9687 6.27087 26.9018 6.14556ZM25.509 4.13384C25.7224 4.17194 25.7816 4.31927 25.8138 4.46828C25.9366 5.02963 26.0466 5.59352 26.1626 6.15572C26.2067 6.36823 26.2549 6.58075 26.2947 6.76617C26.3709 6.70437 26.4395 6.62309 26.5276 6.58329C26.7638 6.47661 26.8078 6.29119 26.7739 6.06343C26.768 6.0211 26.7519 5.97707 26.7553 5.93643C26.7655 5.82043 26.757 5.69258 26.8036 5.59183C26.8908 5.40386 27.0119 5.23114 27.1008 5.08213C27.1812 5.21506 27.2684 5.37931 27.3759 5.52833C27.4699 5.65872 27.464 5.79419 27.4513 5.93982C27.4386 6.08375 27.4377 6.22853 27.4352 6.37331C27.4352 6.39194 27.4572 6.41565 27.4742 6.43004C27.6155 6.54858 27.7569 6.66542 27.9 6.78395C27.9102 6.75686 27.928 6.72215 27.9356 6.68574C28.0787 5.97453 28.2175 5.26162 28.3649 4.55126C28.4021 4.37261 28.447 4.1838 28.6773 4.12114C28.5791 4.0568 28.4834 3.99922 28.3801 3.96028C28.2396 3.90609 28.1007 3.97044 28.0694 4.11268C28.0076 4.39462 27.961 4.6808 27.9085 4.96529C27.8797 5.11515 27.8492 5.26501 27.8204 5.41403C27.8052 5.41318 27.79 5.41233 27.7747 5.41064C27.7696 5.38101 27.7552 5.34883 27.7595 5.32089C27.834 4.9094 27.9187 4.49876 27.9847 4.08558C27.9999 3.99076 27.9813 3.86545 27.9271 3.79094C27.8526 3.68849 27.7298 3.6216 27.6088 3.52508C27.5851 3.72998 27.5614 3.90524 27.5453 4.0805C27.5283 4.25407 27.5368 4.43272 27.5029 4.60206C27.4699 4.76462 27.5173 4.94835 27.3937 5.09229C27.3861 4.96867 27.3954 4.8476 27.4081 4.72652C27.4335 4.48014 27.4657 4.23376 27.4835 3.98737C27.4979 3.79772 27.53 3.59874 27.3277 3.46751C27.2447 3.41417 27.1736 3.34305 27.1016 3.28293C27.0296 3.3422 26.9526 3.39469 26.8899 3.46074C26.8247 3.53016 26.7248 3.61229 26.7257 3.68849C26.7291 3.98822 26.7672 4.28794 26.7909 4.58767C26.8044 4.75616 26.8146 4.92465 26.8264 5.09314C26.8087 5.09568 26.7909 5.09821 26.7731 5.10076C26.691 4.85522 26.7147 4.59021 26.6732 4.33874C26.6309 4.07796 26.6215 3.81211 26.597 3.53016C26.514 3.59112 26.4641 3.63346 26.4082 3.66732C26.2693 3.75115 26.1847 3.86375 26.2143 4.03394C26.2871 4.45982 26.3625 4.8857 26.4361 5.31158C26.4412 5.34375 26.4361 5.37677 26.4361 5.40979C26.4234 5.41148 26.4107 5.41318 26.3972 5.41487C26.3811 5.36746 26.3582 5.32174 26.3489 5.27348C26.2769 4.89162 26.2117 4.50808 26.1313 4.12792C26.1186 4.06526 26.0517 3.9916 25.9925 3.96705C25.802 3.88323 25.6758 4.02886 25.509 4.13384ZM26.2101 9.33585C26.2092 9.31976 26.2084 9.30452 26.2067 9.28928C26.1525 9.27743 26.0966 9.26896 26.0433 9.25288C25.796 9.17752 25.5513 9.08439 25.3854 8.87949C25.1542 8.59416 25.1111 8.25972 25.1974 7.90835C25.266 7.63233 25.3498 7.3597 25.4091 7.08199C25.4413 6.93128 25.4692 6.76533 25.3168 6.6451C25.1847 6.54096 25.045 6.53164 24.8901 6.59176C24.6124 6.69929 24.3338 6.80343 24.0536 6.90334C23.8029 6.99308 23.6488 6.91943 23.5633 6.79327C23.4626 6.64595 23.4888 6.48169 23.5278 6.31744C23.565 6.16165 23.5921 6.00332 23.6226 5.84583C23.6091 5.84075 23.5955 5.83652 23.5811 5.83144C23.4414 6.17011 23.1933 6.45036 23.1104 6.8246C23.0536 7.08368 23.1798 7.32499 23.3525 7.3978C23.4897 7.45622 23.6378 7.48924 23.7818 7.53411C23.8444 7.55359 23.9062 7.57475 23.9689 7.59507C23.9621 7.61624 23.9553 7.63741 23.9486 7.65858C23.7276 7.59762 23.5075 7.53496 23.2873 7.47231C23.2382 7.77203 23.5024 8.07091 23.8402 8.09292C23.9274 8.09885 24.0129 8.12594 24.0984 8.14372C24.0934 8.16743 24.0874 8.19114 24.0815 8.21485C23.8766 8.17082 23.6726 8.12679 23.4321 8.07514C23.4778 8.17929 23.5041 8.28089 23.5616 8.35878C23.6895 8.53235 23.8808 8.58908 24.0891 8.59416C24.1679 8.59585 24.2475 8.59416 24.3262 8.59416C24.3262 8.61194 24.3253 8.62972 24.3245 8.6475C24.1145 8.71185 23.9096 8.6475 23.6937 8.59331C23.7733 8.85663 23.9206 9.02851 24.1865 9.06915C24.3016 9.08693 24.4202 9.08608 24.5379 9.09793C24.5768 9.10217 24.6149 9.11995 24.6539 9.13265C24.6505 9.15297 24.6471 9.17329 24.6429 9.19445C24.4523 9.17921 24.2618 9.16482 24.0663 9.14958C24.1196 9.35278 24.2669 9.46031 24.4524 9.51958C24.7419 9.61102 25.0408 9.59748 25.3337 9.54413C25.6301 9.48995 25.9188 9.40697 26.2101 9.33585ZM30.6136 5.84499C30.6026 5.85007 30.5925 5.85515 30.5815 5.86023C30.6255 6.07105 30.6687 6.28187 30.7127 6.49185C30.7483 6.66288 30.6086 6.87963 30.4435 6.92704C30.2944 6.97022 30.1624 6.91604 30.032 6.86947C29.767 6.77718 29.5087 6.66711 29.2437 6.57483C29.0007 6.49016 28.7746 6.65357 28.7873 6.91011C28.7958 7.06844 28.828 7.22762 28.8678 7.38171C28.9584 7.728 29.0972 8.06498 29.0236 8.43583C28.9787 8.6602 28.8856 8.84901 28.7001 8.99379C28.4927 9.15466 28.2523 9.2334 27.9796 9.2986C28.0194 9.31807 28.0363 9.33162 28.0558 9.33585C28.3445 9.40782 28.6316 9.49164 28.922 9.54752C29.1963 9.60086 29.4774 9.60679 29.7509 9.52127C29.9414 9.46116 30.0836 9.34855 30.1327 9.14027C29.938 9.15551 29.7492 9.24271 29.557 9.13603C29.6069 9.11148 29.6577 9.09793 29.7094 9.09963C29.8897 9.10555 30.065 9.08862 30.2267 8.99718C30.3825 8.90912 30.4866 8.74233 30.4689 8.60347C30.1243 8.70084 29.9397 8.70169 29.8813 8.6077C30.01 8.595 30.1437 8.59924 30.2665 8.56537C30.3842 8.5332 30.4976 8.47478 30.5984 8.40535C30.7085 8.32915 30.7576 8.21315 30.7271 8.06837C30.413 8.19199 30.2089 8.22162 30.0828 8.15473C30.1276 8.14034 30.1632 8.12764 30.2005 8.11917C30.3258 8.09123 30.4553 8.0726 30.5781 8.0362C30.7889 7.97439 30.9481 7.71107 30.9159 7.45622C30.8067 7.49855 30.7017 7.54936 30.5899 7.57984C30.4799 7.61032 30.3639 7.62132 30.2513 7.6408C30.2479 7.6264 30.2436 7.61201 30.2394 7.59677C30.2682 7.58407 30.2953 7.56713 30.3258 7.55951C30.4629 7.52311 30.6035 7.49601 30.7373 7.45283C30.9667 7.37833 31.1428 7.13448 31.114 6.9372C31.0581 6.52148 30.805 6.19805 30.6136 5.84499ZM27.1033 6.26155C27.519 5.77048 27.4479 5.67734 27.0965 5.21421C26.6783 5.77894 26.7689 5.85599 27.1033 6.26155ZM27.4369 6.48338C27.431 6.98631 27.801 7.23693 28.0592 7.59592C28.0601 7.08707 27.8331 6.75263 27.4369 6.48338ZM26.1499 7.57052C26.6656 6.98123 26.8036 6.73654 26.757 6.50709C26.3396 6.74331 26.1305 7.16242 26.1499 7.57052Z" fill="#9B6928"/>
<path fill-rule="evenodd" clip-rule="evenodd" d="M26.8746 9.73125C27.0186 9.84809 27.1524 9.84555 27.3335 9.77274C27.6858 9.63134 28.0575 9.55091 28.4418 9.67537C28.7162 9.76512 28.9939 9.84894 29.2682 9.94292C29.3021 9.95477 29.33 10.0073 29.3436 10.0471C29.4011 10.2147 29.4494 10.3849 29.507 10.5525C29.5247 10.605 29.5849 10.6516 29.5849 10.7007C29.5832 10.8175 29.5061 10.876 29.374 10.8455C29.1387 10.7913 28.9033 10.7278 28.6772 10.6474C28.4478 10.5652 28.2268 10.4467 27.9745 10.4814C27.8255 10.5017 27.6731 10.5331 27.5351 10.5906C27.2802 10.6982 27.0279 10.721 26.7807 10.5999C26.3785 10.401 26.0017 10.4763 25.6122 10.6431C25.3921 10.738 25.1516 10.7896 24.9163 10.8429C24.8595 10.8565 24.7706 10.8184 24.7266 10.7735C24.6665 10.7117 24.7266 10.6474 24.7579 10.5771C24.8333 10.4094 24.8858 10.2308 24.9374 10.053C24.9578 9.98187 24.9806 9.94885 25.0619 9.93445C25.2736 9.89551 25.4988 9.87095 25.6884 9.77866C26.0627 9.59747 26.4301 9.60594 26.812 9.72025C26.8323 9.72617 26.8552 9.72871 26.8763 9.7321L26.8746 9.73125ZM29.4621 10.7388C29.4706 10.7244 29.479 10.7109 29.4866 10.6965C29.4206 10.6397 29.3639 10.5576 29.2868 10.5297C29.1023 10.4628 28.8931 10.4509 28.7213 10.3646C28.2751 10.1385 27.8272 10.1495 27.3835 10.3324C27.1913 10.412 27.0262 10.4679 26.8425 10.3409C26.8221 10.3265 26.7951 10.3205 26.7705 10.3129C26.4208 10.2029 26.0745 10.1216 25.713 10.2824C25.5013 10.3764 25.2837 10.478 25.0585 10.5127C24.8993 10.5381 24.8875 10.6457 24.7791 10.7388C25.1068 10.738 25.3667 10.6431 25.6165 10.5237C26.0203 10.3307 26.4242 10.3095 26.8332 10.495C27.0245 10.5822 27.2091 10.5932 27.4089 10.5178C27.5765 10.4543 27.7518 10.3976 27.9288 10.373C28.2463 10.3282 28.5324 10.4585 28.8152 10.5822C29.0235 10.6736 29.236 10.7346 29.4621 10.7388ZM27.149 10.3188C27.2717 10.274 27.3818 10.2266 27.497 10.1935C27.7789 10.1139 28.0676 10.0555 28.358 10.136C28.5443 10.1876 28.7187 10.2774 28.9016 10.3434C29.032 10.3908 29.1666 10.4264 29.3368 10.478C29.2953 10.3146 29.2707 10.1969 29.2335 10.0843C29.2242 10.0572 29.1785 10.0344 29.1446 10.0242C28.9719 9.97171 28.7983 9.9226 28.6247 9.87434C28.4469 9.82523 28.2708 9.75411 28.0905 9.73633C27.7543 9.70331 27.4529 9.85148 27.1507 9.96324C27.149 10.0809 27.149 10.1935 27.149 10.3188ZM27.0618 9.96155C26.9991 9.93192 26.9415 9.90397 26.8831 9.87773C26.5834 9.74649 26.271 9.67283 25.9568 9.79814C25.663 9.91498 25.376 10.042 25.0577 10.053C25.0289 10.1791 25.0026 10.2951 24.9764 10.4145C25.1804 10.4518 25.3472 10.3637 25.5013 10.274C25.8993 10.0428 26.3065 10.0742 26.7214 10.1986C26.834 10.2325 26.9432 10.2757 27.0626 10.318C27.0618 10.1859 27.0618 10.0716 27.0618 9.96155Z" fill="#9B6928"/>
<path fill-rule="evenodd" clip-rule="evenodd" d="M27.249 8.72455C27.1499 8.62549 27.0627 8.61956 26.9509 8.68814C26.912 8.71185 26.8468 8.72709 26.8078 8.71185C26.5488 8.61279 26.4065 8.29782 26.4463 8.02096C26.4785 7.80167 26.5733 7.62217 26.6859 7.44098C26.73 7.36986 26.7426 7.28011 26.7757 7.20052C26.8002 7.14295 26.7858 7.05151 26.8934 7.05489C26.9061 7.05489 26.9247 7.01425 26.9332 6.9897C26.9696 6.88048 26.9992 6.76702 27.0424 6.6595C27.0559 6.62647 27.105 6.60785 27.138 6.58329C27.1567 6.61716 27.1889 6.65018 27.1931 6.68574C27.2303 6.99139 27.3802 7.24625 27.5411 7.49856C27.6528 7.67467 27.7443 7.86178 27.751 8.07684C27.7621 8.42228 27.6097 8.63734 27.2769 8.75249C27.2676 8.74318 27.2583 8.73471 27.249 8.72455ZM27.0017 8.30544C27.1135 7.93798 27.0949 7.59 26.895 7.27673C26.8332 7.39357 26.7664 7.52057 26.7003 7.64672C26.5869 7.86178 26.4776 8.08192 26.597 8.32661C26.6427 8.4189 26.7215 8.50356 26.8062 8.56453C26.8426 8.59162 26.9289 8.54336 26.9924 8.54167C27.0695 8.53997 27.1601 8.52981 27.2219 8.56368C27.3192 8.61871 27.3895 8.59416 27.4479 8.52558C27.5123 8.45107 27.5783 8.3681 27.6113 8.27835C27.696 8.04297 27.5961 7.83638 27.4852 7.63318C27.3446 7.37663 27.2092 7.11839 27.0847 6.88471C27.0542 6.99986 26.9755 7.15142 27.0847 7.32499C27.1423 7.41812 27.1719 7.53411 27.1939 7.64334C27.2405 7.89226 27.1364 8.10224 27.0017 8.30544Z" fill="#9B6928"/>
<path fill-rule="evenodd" clip-rule="evenodd" d="M27.2488 8.72455C27.2582 8.73386 27.2666 8.74318 27.2759 8.75249C27.3115 8.90997 27.3081 9.07 27.3936 9.22324C27.4732 9.36633 27.3081 9.44423 27.2209 9.52551C27.1566 9.58562 27.066 9.60425 26.9838 9.53313C26.9313 9.48741 26.8611 9.45269 26.8297 9.39597C26.7976 9.34009 26.784 9.25796 26.7967 9.1953C26.8179 9.08862 26.8814 8.98871 26.9 8.88119C26.9195 8.76096 26.9677 8.71016 27.0897 8.7254C27.1422 8.73217 27.1963 8.7254 27.2488 8.72455ZM27.1566 8.8397C27.0084 8.81599 26.9906 8.87526 26.9813 8.954C26.9737 9.02173 26.9635 9.09116 26.9373 9.15382C26.8915 9.26558 26.9119 9.36887 27.0194 9.43068C27.055 9.451 27.1337 9.45777 27.154 9.43576C27.2082 9.37395 27.27 9.29606 27.2776 9.21986C27.2869 9.12672 27.2497 9.02597 27.2209 8.93368C27.2065 8.88796 27.165 8.85071 27.1566 8.8397Z" fill="#9B6928"/>
<path fill-rule="evenodd" clip-rule="evenodd" d="M26.9018 6.14556C26.9696 6.27087 27.0365 6.39618 27.1017 6.5181C27.1702 6.39279 27.2371 6.26918 27.3049 6.14556C27.3226 6.15064 27.3396 6.15657 27.3573 6.16249C27.3573 6.27425 27.3582 6.38602 27.3573 6.49778C27.354 6.75771 27.4623 6.97446 27.6181 7.17258C27.801 7.40627 28.0381 7.60524 28.1033 7.91512C28.3979 7.81183 28.5571 7.49771 28.4885 7.17682C28.4623 7.05066 28.4462 6.91943 28.4428 6.78904C28.4369 6.52657 28.6689 6.39194 28.9169 6.51725C28.6282 6.69082 28.6841 6.94991 28.7451 7.2056C28.8018 7.4486 28.8924 7.68567 28.9296 7.93121C28.9787 8.2521 28.9914 8.58231 28.7518 8.84816C28.5918 9.02681 28.3742 9.12757 28.1431 9.17075C27.961 9.20546 27.8163 9.27658 27.6732 9.39343C27.5352 9.50603 27.365 9.58223 27.2024 9.65928C27.0678 9.72363 26.9349 9.67198 26.8206 9.59578C26.669 9.49503 26.5276 9.37988 26.3794 9.27404C26.3388 9.24441 26.2914 9.21224 26.244 9.20546C25.9866 9.1699 25.7461 9.08862 25.5412 8.92944C25.3736 8.79906 25.294 8.61278 25.2627 8.40281C25.2085 8.04297 25.3304 7.71277 25.4193 7.37579C25.4582 7.22592 25.4896 7.07183 25.4989 6.91689C25.5124 6.70437 25.4743 6.6468 25.3058 6.52233C25.3964 6.45883 25.5421 6.44274 25.6344 6.52064C25.6987 6.57483 25.7597 6.67304 25.7622 6.75263C25.7673 6.92451 25.7376 7.09892 25.7156 7.2708C25.675 7.58576 25.8469 7.77542 26.1009 7.93883C26.1551 7.62895 26.3693 7.42997 26.5513 7.21492C26.7435 6.98631 26.8646 6.73824 26.8527 6.43428C26.8493 6.34368 26.8519 6.25309 26.8519 6.16334C26.8671 6.15741 26.8849 6.15149 26.9018 6.14556ZM27.249 8.72455C27.1956 8.72539 27.1423 8.73217 27.0898 8.72539C26.9679 8.71015 26.9205 8.76096 26.9001 8.88118C26.8824 8.98787 26.8189 9.08777 26.7968 9.1953C26.7841 9.2588 26.7977 9.34008 26.8299 9.39596C26.862 9.45269 26.9315 9.48741 26.984 9.53313C27.0661 9.60425 27.1567 9.58562 27.221 9.52551C27.3082 9.44338 27.4733 9.36633 27.3938 9.22324C27.3082 9.06999 27.3108 8.90997 27.2761 8.75249C27.6088 8.63649 27.7612 8.42144 27.7502 8.07684C27.7434 7.86263 27.652 7.67467 27.5402 7.49856C27.3802 7.24625 27.2295 6.99139 27.1922 6.68574C27.188 6.65018 27.1567 6.61716 27.1372 6.58329C27.1042 6.60785 27.0551 6.62647 27.0415 6.65949C26.9984 6.76618 26.9687 6.87963 26.9323 6.9897C26.9238 7.01425 26.9052 7.05574 26.8925 7.05489C26.7858 7.05235 26.7994 7.14295 26.7748 7.20052C26.7418 7.27926 26.7291 7.36986 26.6851 7.44098C26.5725 7.62217 26.4768 7.80167 26.4455 8.02096C26.4057 8.29867 26.5479 8.61279 26.807 8.71185C26.8468 8.72709 26.9111 8.71185 26.9501 8.68814C27.0627 8.61956 27.1499 8.62549 27.249 8.72455Z" fill="#FDB936"/>
<path fill-rule="evenodd" clip-rule="evenodd" d="M25.509 4.13385C25.6758 4.02886 25.802 3.88323 25.995 3.96452C26.0543 3.98907 26.1212 4.06358 26.1339 4.12538C26.2143 4.50554 26.2787 4.88909 26.3515 5.27094C26.3608 5.3192 26.3837 5.36492 26.3997 5.41234C26.4133 5.41064 26.426 5.40895 26.4387 5.40726C26.4387 5.37424 26.4438 5.34122 26.4387 5.30904C26.365 4.88316 26.2897 4.45728 26.2169 4.0314C26.1872 3.86122 26.2719 3.74946 26.4107 3.66479C26.4658 3.63092 26.5166 3.58859 26.5996 3.52763C26.625 3.80957 26.6343 4.07543 26.6758 4.33621C26.7173 4.58852 26.6935 4.85268 26.7757 5.09822C26.7934 5.09568 26.8112 5.09314 26.829 5.0906C26.8172 4.92211 26.8062 4.75362 26.7935 4.58513C26.7697 4.28541 26.7316 3.98653 26.7283 3.68596C26.7274 3.6106 26.8273 3.52763 26.8925 3.4582C26.9552 3.39216 27.0322 3.33966 27.1042 3.2804C27.1761 3.34051 27.2473 3.41163 27.3302 3.46497C27.5326 3.59536 27.4996 3.79518 27.486 3.98483C27.4683 4.23206 27.4361 4.4776 27.4107 4.72399C27.398 4.84506 27.3887 4.96529 27.3963 5.08975C27.5199 4.94666 27.4725 4.76293 27.5055 4.59953C27.5394 4.42934 27.5318 4.25154 27.5478 4.07797C27.5639 3.90186 27.5868 3.7266 27.6113 3.52255C27.7324 3.61907 27.8552 3.68596 27.9297 3.78841C27.9839 3.86291 28.0017 3.98822 27.9873 4.08305C27.9212 4.49623 27.8374 4.90687 27.7621 5.31836C27.757 5.3463 27.7714 5.37847 27.7773 5.4081C27.7925 5.40895 27.8078 5.4098 27.823 5.41149C27.8526 5.26163 27.8831 5.11176 27.9111 4.96275C27.9644 4.67826 28.0101 4.39209 28.0719 4.11014C28.1033 3.9679 28.2421 3.90355 28.3827 3.95774C28.4851 3.99753 28.5808 4.05426 28.6799 4.11861C28.4496 4.18211 28.4047 4.37007 28.3674 4.54872C28.2201 5.25909 28.0813 5.97115 27.9382 6.6832C27.9305 6.71961 27.9128 6.75348 27.9026 6.78142C27.7595 6.66289 27.6173 6.54604 27.4767 6.42751C27.4589 6.41312 27.4369 6.39025 27.4378 6.37078C27.4395 6.226 27.4412 6.08121 27.4539 5.93728C27.4666 5.79165 27.4725 5.65618 27.3785 5.52579C27.271 5.37678 27.1838 5.21252 27.1033 5.07959C27.0144 5.22861 26.8934 5.40133 26.8062 5.58929C26.7596 5.69005 26.7681 5.8179 26.7579 5.93389C26.7545 5.97538 26.7706 6.01856 26.7765 6.06089C26.8104 6.28865 26.7664 6.47408 26.5301 6.58076C26.4421 6.62055 26.3735 6.70183 26.2973 6.76364C26.2575 6.57822 26.2092 6.36655 26.1652 6.15318C26.0492 5.59014 25.9383 5.0271 25.8164 4.46575C25.7817 4.31927 25.7224 4.17195 25.509 4.13385Z" fill="#FDB936"/>
<path fill-rule="evenodd" clip-rule="evenodd" d="M26.2101 9.33585C25.9189 9.40613 25.6302 9.48995 25.3355 9.54414C25.0434 9.59748 24.7445 9.61187 24.4541 9.51958C24.2687 9.46031 24.1214 9.35278 24.068 9.14958C24.2628 9.16482 24.4541 9.17922 24.6446 9.19446C24.648 9.17414 24.6514 9.15297 24.6556 9.13265C24.6167 9.1208 24.5786 9.10217 24.5396 9.09794C24.4228 9.08608 24.3043 9.08693 24.1883 9.06915C23.9224 9.02851 23.7751 8.85663 23.6955 8.59331C23.9114 8.6475 24.1163 8.71185 24.3263 8.6475C24.3271 8.62972 24.3271 8.61194 24.328 8.59416C24.2492 8.59416 24.1696 8.59585 24.0909 8.59416C23.8826 8.58908 23.6913 8.53235 23.5634 8.35878C23.5058 8.28089 23.4796 8.17929 23.4339 8.07515C23.6743 8.12679 23.8784 8.17082 24.0833 8.21485C24.0892 8.19114 24.0943 8.16658 24.1002 8.14372C24.0139 8.12594 23.9283 8.09885 23.842 8.09293C23.5042 8.07091 23.24 7.77203 23.2891 7.47231C23.5084 7.53496 23.7294 7.59677 23.9504 7.66027C23.9571 7.6391 23.9648 7.61794 23.9707 7.59677C23.908 7.57645 23.8462 7.55528 23.7836 7.53581C23.6405 7.49094 23.4915 7.45792 23.3543 7.39949C23.1816 7.32668 23.0554 7.08537 23.1121 6.82629C23.1943 6.4529 23.4432 6.17265 23.5829 5.83313C23.5973 5.83821 23.6108 5.84245 23.6244 5.84753C23.5931 6.00501 23.5668 6.16334 23.5296 6.31913C23.4906 6.48339 23.4635 6.64764 23.5651 6.79496C23.6515 6.92027 23.8047 6.99478 24.0553 6.90503C24.3356 6.80428 24.615 6.70098 24.8919 6.59345C25.0468 6.53334 25.1865 6.54265 25.3186 6.6468C25.471 6.76702 25.4422 6.93213 25.4109 7.08368C25.3516 7.36139 25.2678 7.63318 25.1992 7.91004C25.112 8.26142 25.156 8.5967 25.3872 8.88118C25.5531 9.08608 25.7978 9.17921 26.045 9.25457C26.0984 9.27066 26.1543 9.27913 26.2085 9.29098C26.2085 9.30537 26.2093 9.32061 26.2101 9.33585Z" fill="#FDB936"/>
<path fill-rule="evenodd" clip-rule="evenodd" d="M30.6136 5.84499C30.8058 6.19805 31.0581 6.52148 31.1149 6.9389C31.1428 7.13533 30.9667 7.38002 30.7381 7.45453C30.6043 7.49771 30.4638 7.5248 30.3266 7.56121C30.297 7.56883 30.2699 7.58576 30.2403 7.59846C30.2445 7.6137 30.2487 7.6281 30.2521 7.64249C30.3656 7.62302 30.4816 7.61201 30.5908 7.58153C30.7025 7.5502 30.8075 7.50025 30.9168 7.45791C30.9481 7.71276 30.7898 7.97523 30.5789 8.03789C30.4553 8.0743 30.3266 8.09208 30.2013 8.12087C30.1641 8.12849 30.1285 8.14203 30.0836 8.15643C30.2089 8.22331 30.4138 8.19453 30.7279 8.07006C30.7584 8.21485 30.7093 8.33169 30.5992 8.40704C30.4993 8.47647 30.385 8.53489 30.2673 8.56706C30.1437 8.60093 30.0108 8.5967 29.8821 8.6094C29.9405 8.70253 30.1251 8.70169 30.4697 8.60517C30.4875 8.74487 30.3825 8.91166 30.2276 8.99887C30.0658 9.09031 29.8906 9.1064 29.7102 9.10132C29.6586 9.09963 29.6078 9.11317 29.5578 9.13773C29.75 9.24356 29.938 9.1572 30.1336 9.14196C30.0836 9.35109 29.9414 9.46285 29.7517 9.52297C29.4791 9.60848 29.198 9.60255 28.9228 9.54921C28.6316 9.49333 28.3445 9.40951 28.0567 9.33754C28.038 9.33331 28.0203 9.31976 27.9805 9.30029C28.2523 9.23509 28.4927 9.15635 28.701 8.99548C28.8864 8.8507 28.9795 8.66189 29.0244 8.43752C29.0981 8.06668 28.9601 7.7297 28.8686 7.38341C28.8288 7.22931 28.7967 7.07013 28.7882 6.9118C28.7755 6.65611 29.0016 6.4927 29.2446 6.57652C29.5096 6.66881 29.7678 6.77888 30.0328 6.87116C30.1632 6.91773 30.2961 6.97192 30.4443 6.92874C30.6094 6.88048 30.7491 6.66373 30.7136 6.49355C30.6687 6.28357 30.6255 6.07274 30.5823 5.86192C30.5916 5.85515 30.6026 5.85007 30.6136 5.84499Z" fill="#FDB936"/>
<path fill-rule="evenodd" clip-rule="evenodd" d="M27.1032 6.26155C26.7688 5.85599 26.6782 5.77895 27.0965 5.21421C27.4478 5.6765 27.5189 5.77048 27.1032 6.26155Z" fill="#FDB936"/>
<path fill-rule="evenodd" clip-rule="evenodd" d="M27.4368 6.48338C27.8331 6.75263 28.06 7.08707 28.0591 7.59592C27.8017 7.23693 27.4317 6.98631 27.4368 6.48338Z" fill="#FDB936"/>
<path fill-rule="evenodd" clip-rule="evenodd" d="M26.1499 7.57052C26.1305 7.16242 26.3396 6.74247 26.757 6.50709C26.8036 6.73654 26.6656 6.98123 26.1499 7.57052Z" fill="#FDB936"/>
<path fill-rule="evenodd" clip-rule="evenodd" d="M29.462 10.7388C29.2351 10.7346 29.0226 10.6736 28.8152 10.5822C28.5324 10.4585 28.2462 10.3282 27.9287 10.373C27.7517 10.3976 27.5765 10.4552 27.4088 10.5178C27.209 10.5932 27.0245 10.5822 26.8331 10.495C26.4242 10.3087 26.0203 10.3307 25.6164 10.5237C25.3667 10.6431 25.1067 10.738 24.7791 10.7388C24.8874 10.6457 24.8993 10.5381 25.0585 10.5127C25.2837 10.4772 25.5013 10.3764 25.7129 10.2824C26.0745 10.1216 26.4208 10.2028 26.7704 10.3129C26.795 10.3205 26.8221 10.3265 26.8424 10.3409C27.0261 10.467 27.1912 10.4111 27.3834 10.3324C27.8271 10.1495 28.275 10.1385 28.7212 10.3646C28.8931 10.4518 29.1022 10.4636 29.2868 10.5297C29.3647 10.5576 29.4206 10.6389 29.4866 10.6965C29.479 10.7109 29.4705 10.7244 29.462 10.7388Z" fill="#FDB936"/>
<path fill-rule="evenodd" clip-rule="evenodd" d="M27.1489 10.3188C27.1489 10.1944 27.1489 10.0809 27.1489 9.96324C27.4512 9.85233 27.7526 9.70331 28.0887 9.73633C28.2691 9.75411 28.4452 9.82523 28.623 9.87434C28.7966 9.9226 28.9701 9.97171 29.1429 10.0242C29.1767 10.0344 29.2233 10.0572 29.2318 10.0843C29.269 10.1969 29.2936 10.3146 29.3351 10.478C29.1649 10.4264 29.0311 10.3908 28.8999 10.3434C28.717 10.2774 28.5426 10.1876 28.3563 10.136C28.0659 10.0555 27.778 10.114 27.4952 10.1935C27.3809 10.2257 27.2708 10.274 27.1489 10.3188Z" fill="#FDB936"/>
<path fill-rule="evenodd" clip-rule="evenodd" d="M27.0618 9.96155C27.0618 10.0716 27.0618 10.1859 27.0618 10.3172C26.9424 10.2748 26.8332 10.2308 26.7206 10.1978C26.3049 10.0742 25.8976 10.042 25.5005 10.2731C25.3464 10.3629 25.1805 10.4509 24.9756 10.4137C25.0018 10.2943 25.0289 10.1791 25.0569 10.0521C25.3752 10.0411 25.6622 9.91413 25.956 9.79729C26.2702 9.67283 26.5826 9.74564 26.8823 9.87688C26.9407 9.90397 26.9992 9.93191 27.0618 9.96155Z" fill="#FDB936"/>
<path fill-rule="evenodd" clip-rule="evenodd" d="M27.0016 8.30544C27.1362 8.10139 27.2404 7.89141 27.1913 7.64249C27.1692 7.53327 27.1396 7.41727 27.082 7.32414C26.9736 7.15057 27.0524 6.99986 27.082 6.88387C27.2065 7.1167 27.342 7.37579 27.4825 7.63233C27.5934 7.83553 27.6933 8.04212 27.6087 8.2775C27.5756 8.3681 27.5096 8.45022 27.4453 8.52473C27.3868 8.59331 27.3174 8.61787 27.2192 8.56283C27.1574 8.52812 27.0676 8.53913 26.9897 8.54082C26.9262 8.54167 26.8399 8.59077 26.8035 8.56368C26.7196 8.50272 26.6401 8.41805 26.5943 8.32576C26.4741 8.08107 26.5833 7.86094 26.6976 7.64588C26.7645 7.51972 26.8314 7.39272 26.8924 7.27588C27.0947 7.59 27.1142 7.93798 27.0016 8.30544Z" fill="#FDB936"/>
<path fill-rule="evenodd" clip-rule="evenodd" d="M27.1568 8.83969C27.1652 8.8507 27.2067 8.88795 27.2211 8.93368C27.2507 9.02681 27.2872 9.12756 27.2778 9.21985C27.2702 9.29605 27.2084 9.37395 27.1542 9.43576C27.1348 9.45777 27.056 9.451 27.0196 9.43068C26.9121 9.36887 26.8918 9.26557 26.9375 9.15381C26.9629 9.09116 26.9739 9.02173 26.9815 8.95399C26.9908 8.87525 27.0086 8.81599 27.1568 8.83969Z" fill="#FDB936"/>
</g>
<defs>
<clipPath id="clip0_990_11038">
<rect width="54" height="58" fill="white"/>
</clipPath>
</defs>
</svg>
