<svg width="55" height="58" viewBox="0 0 55 58" fill="none" xmlns="http://www.w3.org/2000/svg">
<g clip-path="url(#clip0_990_11164)">
<path d="M13.8224 19.1159L13.6802 42.6104L41.4708 42.8915V18.7958C41.4708 18.7958 37.0629 11.7049 26.8842 11.2815C16.7054 10.8582 13.8224 19.1159 13.8224 19.1159Z" fill="#211413"/>
<path d="M43.4925 42.0524C41.2962 40.5428 37.7012 39.2465 31.9048 39.6462L31.1394 42.8906H24.1213L23.3567 39.6462C17.5612 39.2457 13.9645 40.5428 11.7691 42.0524C11.7691 42.0524 1.63854 48.466 0.975586 57.9192H8.46447H9.16976H24.979H27.5978H27.6655H39.1084H46.0926H46.7979H54.2868C53.623 48.466 43.4925 42.0524 43.4925 42.0524Z" fill="#EDEDED"/>
<path d="M23.3916 36.1206V45.0607H31.9109V36.339L23.3916 36.1206Z" fill="#F18C81"/>
<path d="M12.2822 57.8591V52.9137C12.2822 52.7545 12.1273 52.6241 11.9376 52.6241C11.748 52.6241 11.593 52.7536 11.593 52.9137V57.8591H12.2822Z" fill="#155A73"/>
<path d="M16.6487 16.0094C16.6487 16.0094 11.5924 38.2661 27.6768 38.0391C43.7679 37.8105 38.5007 16.0094 38.5007 16.0094H16.6487Z" fill="#F9BBB7"/>
<path d="M16.7884 18.2167C16.7884 18.2167 11.7032 18.27 11.594 23.384C11.4848 28.4979 16.6487 28.6571 16.6487 28.6571L16.7884 18.2167Z" fill="#F9BBB7"/>
<path d="M16.7282 20.9548C16.7282 20.9548 14.1882 20.9811 14.1349 23.5347C14.0815 26.0883 16.658 26.167 16.658 26.167L16.7282 20.9548Z" fill="#F18C81"/>
<path d="M38.4404 28.7807C38.4404 28.7807 43.5256 28.7274 43.6348 23.6134C43.744 18.4995 38.5801 18.3403 38.5801 18.3403L38.4404 28.7807Z" fill="#F9BBB7"/>
<path d="M38.5015 26.0434C38.5015 26.0434 41.0415 26.0172 41.0948 23.4636C41.1482 20.91 38.5717 20.8312 38.5717 20.8312L38.5015 26.0434Z" fill="#F18C81"/>
<path d="M15.0721 19.4351C15.0721 19.4351 20.838 19.7517 24.3746 16.0094C24.3746 16.0094 27.537 20.1767 40.9374 19.8245C40.9374 19.8245 41.3743 9.65928 33.7634 7.86008C23.5516 5.44535 13.6556 6.86693 15.0721 19.4351Z" fill="#F18C81"/>
<path d="M13.9189 20.2953C13.9189 20.2953 22.1791 18.5638 24.3458 14.7995C24.3458 14.7995 27.6774 20.0311 41.4885 19.8194C41.4885 19.8194 43.6357 1.55994 27.6038 1.55994C11.3264 1.55994 13.9189 20.2953 13.9189 20.2953Z" fill="#4D2F2B"/>
<path d="M31.4293 23.9639C31.4293 23.9639 31.2049 23.533 31.6375 23.0648C32.0702 22.5966 33.8296 21.5382 35.4476 23.1477C35.4476 23.1477 35.898 23.627 35.4061 24.2239C34.9142 24.8208 34.1708 24.1265 34.1708 24.1265C34.1708 24.1265 33.3521 23.5753 32.7374 24.2239C32.1227 24.8733 31.4784 24.1274 31.4293 23.9639Z" fill="#4D2F2B"/>
<path d="M27.5742 32.7457C28.2363 32.7457 28.8908 32.6187 29.5021 32.3639C30.1134 32.109 30.6663 31.739 31.1311 31.2674C31.2801 31.1201 31.3631 30.9203 31.3631 30.7103C31.3631 30.502 31.2793 30.3005 31.1311 30.1532C30.9838 30.0042 30.7831 29.9212 30.574 29.9212C30.3657 29.9212 30.1642 30.0042 30.0169 30.1532C29.3666 30.7984 28.4903 31.1599 27.5742 31.1599C26.6615 31.1599 25.7826 30.7975 25.1315 30.1532C24.985 30.0042 24.7844 29.9212 24.5744 29.9212C24.3661 29.9212 24.1646 30.0042 24.0173 30.1532C23.8708 30.3005 23.7861 30.502 23.7861 30.7103C23.7861 30.9203 23.8716 31.1201 24.0173 31.2674C24.4821 31.7407 25.0358 32.1158 25.648 32.3706C26.2567 32.6272 26.9129 32.7576 27.5742 32.7576V32.7457Z" fill="#4D2F2B"/>
<path d="M23.7363 23.9639C23.7363 23.9639 23.9607 23.533 23.528 23.0648C23.0954 22.5966 21.336 21.5382 19.718 23.1477C19.718 23.1477 19.2676 23.627 19.7595 24.2239C20.2514 24.8208 20.9948 24.1265 20.9948 24.1265C20.9948 24.1265 21.8135 23.5753 22.4282 24.2239C23.0429 24.8733 23.6872 24.1274 23.7363 23.9639Z" fill="#4D2F2B"/>
<path d="M28.3693 26.7013L28.3701 26.0332H28.3684V25.2831C28.3684 25.2831 28.4328 24.4076 27.5743 24.4059C26.7801 24.4042 26.7809 25.2831 26.7809 25.2831L26.7801 26.0332V26.2288V26.8968L26.7809 27.647C26.7809 27.647 26.7157 28.5225 27.5743 28.5242C28.3693 28.5259 28.3684 27.647 28.3684 27.647V26.8968L28.3693 26.7013Z" fill="#4D2F2B"/>
<g opacity="0.4">
<path d="M21.6619 28.503C24.5466 28.503 26.8851 26.1645 26.8851 23.2798C26.8851 20.3951 24.5466 18.0566 21.6619 18.0566C18.7772 18.0566 16.4387 20.3951 16.4387 23.2798C16.4387 26.1645 18.7772 28.503 21.6619 28.503Z" fill="#1F9FDA"/>
<path opacity="0.5" d="M16.9441 25.5083C17.4343 26.5455 18.2531 27.3947 19.2699 27.9196L23.654 18.452C23.0402 18.1989 22.3671 18.0566 21.6618 18.0566C21.1927 18.0566 20.7415 18.1244 20.3096 18.2395L16.9441 25.5083Z" fill="white"/>
<path opacity="0.5" d="M24.3593 18.8136L19.9998 28.2278C20.5222 28.4031 21.0801 28.5021 21.6618 28.5021C21.7693 28.5021 21.8743 28.492 21.9801 28.486L25.8393 20.1522C25.4363 19.6179 24.9351 19.1624 24.3593 18.8136Z" fill="white"/>
</g>
<g opacity="0.4">
<path d="M33.5034 28.6107C36.3881 28.6107 38.7266 26.2722 38.7266 23.3875C38.7266 20.5028 36.3881 18.1643 33.5034 18.1643C30.6188 18.1643 28.2803 20.5028 28.2803 23.3875C28.2803 26.2722 30.6188 28.6107 33.5034 28.6107Z" fill="#1F9FDA"/>
<path opacity="0.5" d="M28.7205 25.4812C29.187 26.5438 29.9956 27.4235 31.0082 27.9755L35.3872 18.5189C34.803 18.292 34.1697 18.1633 33.5034 18.1633C32.9835 18.1633 32.4814 18.2421 32.0073 18.3835L28.7205 25.4812Z" fill="white"/>
<path opacity="0.5" d="M36.1028 18.861L31.7339 28.2964C32.2876 28.4954 32.8811 28.6105 33.5043 28.6105C33.5678 28.6105 33.6288 28.6029 33.6923 28.6004L37.6031 20.1556C37.1907 19.634 36.6819 19.1946 36.1028 18.861Z" fill="white"/>
</g>
<path d="M21.6618 28.4481C24.4889 28.4481 26.7808 26.1562 26.7808 23.3291C26.7808 20.5019 24.4889 18.2101 21.6618 18.2101C18.8346 18.2101 16.5427 20.5019 16.5427 23.3291C16.5427 26.1562 18.8346 28.4481 21.6618 28.4481Z" stroke="#263E8C" stroke-miterlimit="10"/>
<path d="M33.5552 28.4488C36.3828 28.4488 38.6751 26.1566 38.6751 23.3289C38.6751 20.5013 36.3828 18.209 33.5552 18.209C30.7276 18.209 28.4353 20.5013 28.4353 23.3289C28.4353 26.1566 30.7276 28.4488 33.5552 28.4488Z" stroke="#263E8C" stroke-miterlimit="10"/>
<path d="M28.5115 22.5449H26.6462V23.8149H28.5115V22.5449Z" fill="#263E8C"/>
<path d="M41.242 54.0617C40.8703 53.9694 39.0855 53.966 38.5495 53.9677C38.0127 53.966 36.2288 53.9694 35.8562 54.0617C35.4075 54.1743 35.2136 54.6425 35.2136 54.6425C35.2136 54.6425 35.2466 56.407 35.2509 57.9201H39.1075H41.8465C41.8507 56.407 41.8846 54.6425 41.8846 54.6425C41.8846 54.6425 41.6916 54.1743 41.242 54.0617Z" fill="#D8D8D8"/>
<path d="M41.8702 55.4046C41.8702 55.4605 41.8118 55.507 41.7398 55.507H35.3558C35.283 55.507 35.2246 55.4605 35.2246 55.4046C35.2246 55.347 35.283 55.3004 35.3558 55.3004H41.7398C41.8118 55.3004 41.8702 55.3462 41.8702 55.4046Z" fill="#9B9A9A"/>
<path d="M25.8308 47.351L24.6311 57.9192H30.6993L29.2176 47.351H25.8308Z" fill="#1F9FDA"/>
<path d="M27.4667 42.6434L24.0173 42.5054L25.5007 48.3754C25.5007 48.3754 25.5574 48.9444 26.4668 48.9402C26.7843 48.9393 27.0696 48.9393 27.2821 48.9393C27.2821 48.9393 27.36 48.9393 27.4676 48.9393C27.5734 48.9393 27.6521 48.9402 27.6521 48.9402C27.8646 48.9402 28.1508 48.9393 28.4666 48.9402C29.376 48.9444 29.4327 48.3754 29.4327 48.3754L31.1083 42.5054L27.4667 42.6434Z" fill="#1F9FDA"/>
<path d="M29.3175 48.7471C29.3175 48.7827 29.2861 48.8115 29.2463 48.8115H25.8122C25.7724 48.8115 25.7402 48.7827 25.7402 48.7471C25.7402 48.7107 25.7724 48.6828 25.8122 48.6828H29.2463C29.2861 48.6819 29.3175 48.7107 29.3175 48.7471Z" fill="#155A73"/>
<path d="M20.3816 42.3572C20.3816 42.3572 21.3468 39.7283 22.312 39.382L27.6537 42.6349C27.6537 42.6349 25.0256 44.7855 24.6311 47.069C24.6311 47.069 22.5753 45.6788 20.3816 42.3572Z" fill="#D8D8D8"/>
<path d="M34.7676 42.3572C34.7676 42.3572 33.7956 39.7283 32.8237 39.382L27.4438 42.6349C27.4438 42.6349 29.9035 45.0674 30.3014 47.3509C30.3014 47.3509 32.5586 45.6788 34.7676 42.3572Z" fill="#D8D8D8"/>
<path d="M43.9812 57.9192V52.9746C43.9812 52.8146 43.8262 52.685 43.6366 52.685C43.4469 52.685 43.292 52.8137 43.292 52.9746V57.9192H43.9812Z" fill="#155A73"/>
<path opacity="0.3" d="M54.286 57.9192C54.1175 55.5096 53.3309 53.2989 52.2565 51.3397C52.2345 51.9586 51.9136 54.3208 48.3279 54.4377V54.4665C40.2362 54.4732 14.8408 54.4732 6.99887 54.4665C2.90687 54.3327 3.06773 51.2762 3.07112 51.2237C1.96282 53.2117 1.14831 55.4621 0.975586 57.9192H6.99887H8.46363H9.16891H18.5078H24.9781H25.371H27.5969H27.6646H30.1276H36.99H39.1067H46.0909H46.7962H48.327H54.286Z" fill="black"/>
<path d="M41.1243 8.38587C39.3251 3.60552 30.3715 0.819092 27.4445 0.819092C24.5861 0.819092 15.8941 3.88831 13.7647 8.38587C12.9197 10.169 12.6157 16.4056 12.6157 16.4056C12.6157 16.4056 25.6995 12.367 27.4453 12.2306C29.1912 12.367 42.2749 16.4056 42.2749 16.4056C42.2749 16.4056 41.8194 10.2325 41.1243 8.38587Z" fill="#1F9FDA"/>
<path d="M40.574 14.3922C26.8933 8.3317 9.92838 15.4955 10.1663 16.9399C10.1663 16.9399 10.1663 18.607 13.4717 17.2295C15.95 16.1974 22.1866 13.7843 26.8848 13.8902C32.8235 13.7843 39.1719 16.1974 41.6493 17.2295C44.9547 18.607 44.9538 16.9399 44.9538 16.9399C44.7828 16.1652 42.4993 15.095 40.574 14.3922Z" fill="#155A73"/>
<path fill-rule="evenodd" clip-rule="evenodd" d="M27.4538 9.6957C27.287 9.58817 27.121 9.4781 26.9508 9.37565C26.9254 9.36041 26.878 9.37227 26.8433 9.38158C26.5724 9.45524 26.304 9.54922 26.028 9.60171C25.68 9.6686 25.3252 9.69146 24.9764 9.58563C24.7571 9.51874 24.614 9.37227 24.5353 9.15636C24.515 9.10048 24.4599 9.05645 24.4227 9.0065C24.3498 8.90998 24.2508 8.82192 24.2127 8.7127C24.1627 8.57131 24.095 8.44938 24.0163 8.32492C23.9629 8.24195 23.9587 8.12934 23.9282 8.03028C23.9121 7.97863 23.8901 7.92952 23.8732 7.87787C23.8291 7.74833 23.786 7.61794 23.7436 7.48756C23.7267 7.43506 23.7267 7.37325 23.6971 7.33176C23.4989 7.06083 23.5167 6.7738 23.6505 6.49271C23.7843 6.21415 23.946 5.94914 24.0916 5.6782C24.1289 5.60877 24.1534 5.53426 24.1898 5.46484C24.2076 5.43097 24.2406 5.40472 24.2652 5.37509C24.288 5.41234 24.3312 5.45044 24.3312 5.4877C24.3278 5.61809 24.3143 5.74932 24.2973 5.87802C24.2694 6.08461 24.2305 6.2895 24.2042 6.49525C24.1712 6.7501 24.3592 6.8263 24.57 6.75687C24.8545 6.66289 25.1322 6.54774 25.4133 6.44529C25.6351 6.36401 25.8629 6.31406 26.1025 6.32422C26.3472 6.33438 26.5097 6.54012 26.4682 6.78481C26.4361 6.96854 26.4149 7.15566 26.403 7.34193C26.3937 7.48586 26.4632 7.59932 26.5868 7.67975C26.6046 7.51041 26.5792 7.32753 26.6469 7.18783C26.779 6.91097 26.7426 6.64934 26.6833 6.37248C26.5546 5.77895 26.4352 5.18374 26.3125 4.58937C26.3099 4.5809 26.3116 4.57159 26.3099 4.56312C26.2227 4.20751 26.2227 4.20752 25.8536 4.19058C25.8332 4.18973 25.8121 4.18381 25.7621 4.17534C25.8011 4.13131 25.8205 4.09575 25.851 4.07713C26.0026 3.9823 26.1507 3.88154 26.3116 3.80619C26.3903 3.76894 26.4945 3.76978 26.5842 3.7774C26.6444 3.78248 26.6689 3.77317 26.7078 3.72745C26.7857 3.63685 26.8814 3.5615 26.972 3.48106C27.0237 3.43449 27.0753 3.38962 27.1303 3.34475C27.1574 3.32189 27.1972 3.2804 27.2167 3.28802C27.248 3.30072 27.2692 3.34475 27.309 3.39386C27.4013 3.31088 27.5029 3.21351 27.6121 3.1263C27.6417 3.10344 27.7154 3.09159 27.7383 3.11106C27.8475 3.20081 27.9465 3.30411 28.0507 3.40486C28.0871 3.35406 28.1108 3.31935 28.1354 3.28463C28.1718 3.31173 28.209 3.33798 28.2446 3.36507C28.3309 3.43111 28.4165 3.49885 28.5028 3.56489C28.5096 3.56997 28.5231 3.56827 28.5265 3.57504C28.6264 3.73761 28.7577 3.79433 28.9566 3.76893C29.0447 3.75793 29.1497 3.85614 29.2437 3.91033C29.3402 3.96706 29.4342 4.03056 29.5281 4.09406C29.551 4.11015 29.5662 4.13724 29.6128 4.19058C29.501 4.19058 29.4325 4.19058 29.363 4.19058C29.1878 4.19058 29.1387 4.21937 29.0955 4.39379C29.0379 4.62493 28.993 4.85946 28.9439 5.0923C28.8339 5.6274 28.7263 6.16419 28.6137 6.69845C28.5934 6.79582 28.6087 6.8771 28.6383 6.97277C28.7069 7.19884 28.7458 7.43337 28.7975 7.66536C28.9211 7.56714 28.9795 7.41813 28.9583 7.23863C28.9431 7.10909 28.927 6.9787 28.8999 6.8517C28.8339 6.54435 28.999 6.30982 29.319 6.31998C29.6873 6.33184 30.0108 6.47492 30.3469 6.59007C30.5357 6.65527 30.7211 6.73316 30.915 6.76872C31.0776 6.79836 31.169 6.70268 31.1538 6.53927C31.136 6.3276 31.0928 6.11847 31.0649 5.90765C31.0471 5.76964 31.0335 5.62994 31.0293 5.49108C31.0285 5.45298 31.0683 5.41319 31.0894 5.37424C31.1182 5.40557 31.1546 5.43351 31.1741 5.46992C31.3163 5.73408 31.4535 6.00078 31.5957 6.26495C31.7126 6.48085 31.826 6.69676 31.8023 6.95415C31.7972 7.01003 31.8023 7.07776 31.7727 7.1184C31.6398 7.30044 31.6355 7.52312 31.5593 7.72209C31.5009 7.87534 31.4501 8.02604 31.3993 8.17675C31.3129 8.42568 31.1741 8.65598 31.0505 8.89135C31.0259 8.93961 30.9683 8.96925 30.9294 9.01073C30.8913 9.05053 30.8413 9.09032 30.827 9.13943C30.722 9.48487 30.4163 9.62034 30.0946 9.64574C29.5671 9.68638 29.0608 9.57716 28.5697 9.39682C28.48 9.3638 28.4241 9.37396 28.3394 9.42984C28.1514 9.55176 27.9482 9.6559 27.74 9.73634C27.6604 9.76682 27.5478 9.71094 27.4512 9.69485L27.4538 9.6957ZM27.4775 6.10831C27.4597 6.11424 27.4436 6.12101 27.4267 6.12694C27.4267 6.21669 27.4233 6.30728 27.4267 6.39788C27.4385 6.70183 27.3175 6.94991 27.1261 7.17852C26.9441 7.39442 26.729 7.59254 26.6757 7.90243C26.4217 7.73986 26.2498 7.54936 26.2904 7.2344C26.3125 7.06168 26.3429 6.88811 26.3379 6.71623C26.3345 6.6358 26.2735 6.53843 26.2092 6.48424C26.1177 6.40634 25.9721 6.42243 25.8806 6.48593C26.0483 6.61039 26.0864 6.66797 26.0737 6.88049C26.0635 7.03458 26.0339 7.18952 25.9941 7.33939C25.9052 7.67637 25.7841 8.00742 25.8375 8.36641C25.8688 8.57723 25.9484 8.76266 26.116 8.89304C26.3209 9.05222 26.5605 9.13435 26.8188 9.16906C26.867 9.17499 26.9127 9.20716 26.9542 9.23764C27.1024 9.34348 27.2438 9.45947 27.3954 9.55938C27.5097 9.63558 27.6426 9.68723 27.7764 9.62288C27.9398 9.54499 28.1108 9.46879 28.248 9.35703C28.391 9.24018 28.5358 9.16822 28.7179 9.13435C28.949 9.09117 29.1658 8.99126 29.3275 8.81176C29.5662 8.54506 29.5535 8.21485 29.5053 7.89481C29.4672 7.64927 29.3783 7.4122 29.3199 7.1692C29.2589 6.91351 29.2039 6.65442 29.4917 6.48085C29.2445 6.35554 29.0125 6.49017 29.0184 6.75264C29.0218 6.88218 29.0362 7.01341 29.0642 7.14042C29.1327 7.46131 28.9736 7.77542 28.6789 7.87872C28.6137 7.56884 28.3775 7.36987 28.1938 7.13618C28.038 6.93806 27.9296 6.72131 27.933 6.46138C27.9338 6.34962 27.9338 6.23785 27.9338 6.12609C27.9161 6.12101 27.8991 6.11509 27.8805 6.10916C27.8136 6.23277 27.7467 6.35639 27.6781 6.4817C27.6121 6.35893 27.5444 6.23362 27.4775 6.10831ZM26.0855 4.0966C26.2997 4.1347 26.3573 4.28202 26.3903 4.43104C26.5131 4.99239 26.6223 5.55628 26.7392 6.11847C26.7832 6.33099 26.8306 6.54351 26.8713 6.72893C26.9475 6.66712 27.016 6.58584 27.1033 6.54605C27.3386 6.43937 27.3835 6.25394 27.3488 6.02618C27.3429 5.98385 27.3276 5.93982 27.331 5.89918C27.3412 5.78319 27.3327 5.65534 27.3793 5.55458C27.4673 5.36662 27.5876 5.1939 27.6773 5.04488C27.7586 5.17781 27.8441 5.34207 27.9525 5.49108C28.0465 5.62147 28.0405 5.75694 28.0278 5.90257C28.0151 6.0465 28.0143 6.19129 28.0117 6.33607C28.0109 6.3547 28.0338 6.37841 28.0507 6.3928C28.1921 6.51133 28.3343 6.62818 28.4774 6.74671C28.4876 6.71962 28.5054 6.6849 28.513 6.64849C28.6561 5.93728 28.7949 5.22438 28.9422 4.51401C28.9803 4.33536 29.0252 4.14655 29.2547 4.0839C29.1573 4.01955 29.0608 3.96198 28.9583 3.92303C28.8178 3.86884 28.6789 3.93319 28.6476 4.07543C28.5858 4.35738 28.5392 4.64355 28.4859 4.92804C28.4579 5.0779 28.4275 5.22777 28.3978 5.37678C28.3817 5.37593 28.3665 5.37509 28.3513 5.37339C28.3462 5.34376 28.3318 5.31159 28.336 5.28365C28.4114 4.87216 28.4952 4.46152 28.5612 4.04834C28.5765 3.95351 28.5578 3.8282 28.5045 3.7537C28.43 3.65125 28.3072 3.58436 28.1862 3.48784C28.1624 3.69274 28.1387 3.868 28.1235 4.04326C28.1066 4.21683 28.1142 4.39548 28.0803 4.56482C28.0473 4.72738 28.0947 4.91111 27.9711 5.05504C27.9626 4.93143 27.9728 4.81035 27.9863 4.68928C28.0109 4.44289 28.0431 4.19651 28.0608 3.95012C28.0761 3.76047 28.1083 3.5615 27.9051 3.43026C27.8221 3.37692 27.751 3.3058 27.679 3.24569C27.607 3.30495 27.5291 3.35745 27.4673 3.42349C27.4021 3.49292 27.3022 3.57504 27.3031 3.65125C27.3065 3.95097 27.3446 4.2507 27.3683 4.55042C27.3818 4.71891 27.392 4.8874 27.4038 5.05589C27.386 5.05843 27.3691 5.06097 27.3505 5.06351C27.2684 4.81797 27.2929 4.55296 27.2514 4.3015C27.2082 4.04072 27.1998 3.77486 27.1744 3.49292C27.0906 3.55388 27.0414 3.59621 26.9856 3.63008C26.8467 3.7139 26.7612 3.82651 26.7917 3.99669C26.8645 4.42257 26.9407 4.84845 27.0135 5.27433C27.0194 5.30651 27.0143 5.33953 27.0143 5.37255C27.0016 5.37424 26.9889 5.37593 26.9754 5.37763C26.9585 5.33021 26.9365 5.28449 26.9271 5.23623C26.8543 4.85438 26.79 4.47083 26.7087 4.09067C26.696 4.02802 26.6291 3.95436 26.5698 3.92981C26.3776 3.84598 26.2523 3.99161 26.0855 4.0966ZM26.7866 9.2986C26.7857 9.28252 26.7841 9.26728 26.7832 9.25204C26.7299 9.24018 26.6731 9.23172 26.6206 9.21563C26.3726 9.14028 26.1279 9.04714 25.9628 8.84224C25.7316 8.55691 25.6884 8.22247 25.774 7.8711C25.8425 7.59508 25.9264 7.32245 25.9856 7.04474C26.017 6.89403 26.0449 6.72808 25.8933 6.60785C25.7621 6.50371 25.6224 6.4944 25.4666 6.55451C25.1898 6.66204 24.9112 6.76618 24.6301 6.86609C24.3795 6.95584 24.2262 6.88218 24.1407 6.75602C24.04 6.6087 24.0662 6.44444 24.1052 6.28019C24.1424 6.1244 24.1687 5.96607 24.2 5.80859C24.1864 5.80351 24.1729 5.79928 24.1585 5.79419C24.0196 6.13287 23.7699 6.41312 23.6877 6.78735C23.631 7.04644 23.7572 7.28774 23.9299 7.36055C24.0671 7.41897 24.2152 7.45199 24.3583 7.49687C24.421 7.51634 24.4836 7.53751 24.5463 7.55783C24.5395 7.579 24.5319 7.60016 24.526 7.62133C24.305 7.55868 24.0848 7.49602 23.8647 7.43337C23.8164 7.73309 24.0798 8.03197 24.4184 8.05398C24.5048 8.05991 24.5903 8.08701 24.6767 8.10479C24.6716 8.12849 24.6657 8.1522 24.6597 8.17591C24.4548 8.13188 24.2508 8.08785 24.0095 8.0362C24.056 8.14035 24.0823 8.24195 24.1399 8.31984C24.2669 8.49341 24.4591 8.55014 24.6674 8.55522C24.7461 8.55691 24.8257 8.55522 24.9036 8.55522C24.9036 8.573 24.9036 8.59078 24.9019 8.60856C24.6928 8.67291 24.4879 8.60856 24.2719 8.55437C24.3515 8.81769 24.4989 8.98957 24.7647 9.03021C24.8807 9.04799 24.9984 9.04714 25.1152 9.05899C25.155 9.06323 25.1931 9.08101 25.2321 9.09371C25.2279 9.11403 25.2245 9.13435 25.2211 9.15551C25.0306 9.14027 24.8401 9.12588 24.6445 9.11064C24.6978 9.31384 24.8452 9.42137 25.0306 9.48064C25.3201 9.57208 25.619 9.55854 25.912 9.50519C26.2066 9.4527 26.4945 9.36973 26.7866 9.2986ZM31.1893 5.80774C31.1792 5.81282 31.1682 5.8179 31.158 5.82298C31.2012 6.03381 31.2444 6.24463 31.2884 6.4546C31.3248 6.62563 31.1842 6.84238 31.02 6.8898C30.8701 6.93298 30.7389 6.87879 30.6077 6.83222C30.3426 6.73993 30.0853 6.62987 29.8202 6.53758C29.5773 6.45291 29.3503 6.61632 29.3639 6.87286C29.3724 7.03119 29.4037 7.19037 29.4435 7.34446C29.5341 7.69076 29.6729 8.02774 29.5993 8.39858C29.5544 8.62295 29.4621 8.81176 29.2767 8.95655C29.0684 9.11742 28.8288 9.19615 28.5562 9.26135C28.5951 9.28082 28.6129 9.29437 28.6324 9.2986C28.9211 9.37057 29.2073 9.45439 29.4977 9.51027C29.7728 9.56362 30.0531 9.56954 30.3266 9.48403C30.5179 9.42391 30.6602 9.31131 30.7093 9.10302C30.5137 9.11826 30.3249 9.20547 30.1335 9.09879C30.1826 9.07423 30.2343 9.06069 30.2851 9.06238C30.4663 9.06831 30.6407 9.05137 30.8024 8.95993C30.9582 8.87188 31.0632 8.70508 31.0454 8.56622C30.7008 8.66359 30.5162 8.66444 30.457 8.57046C30.5856 8.55776 30.7203 8.56199 30.843 8.52813C30.9599 8.49595 31.0733 8.43753 31.1749 8.3681C31.285 8.2919 31.3341 8.17591 31.3036 8.03112C30.9895 8.15474 30.7846 8.18437 30.6585 8.11749C30.7033 8.10309 30.7397 8.09039 30.7761 8.08192C30.9015 8.05398 31.031 8.03536 31.1546 7.99895C31.3654 7.93714 31.5238 7.67382 31.4924 7.41897C31.3832 7.46131 31.2782 7.51211 31.1665 7.54259C31.0564 7.57307 30.9404 7.58408 30.827 7.60355C30.8236 7.58916 30.8202 7.57476 30.8159 7.55952C30.8447 7.54682 30.8718 7.52989 30.9023 7.52227C31.0386 7.48586 31.1792 7.45877 31.3129 7.41559C31.5424 7.34108 31.7185 7.09724 31.6906 6.89996C31.6338 6.48424 31.3815 6.16081 31.1893 5.80774ZM27.6798 6.22431C28.0947 5.73323 28.0236 5.6401 27.6731 5.17696C27.254 5.7417 27.3454 5.81875 27.6798 6.22431ZM28.0134 6.44614C28.0075 6.94907 28.3783 7.19968 28.6357 7.55868C28.6366 7.04982 28.4097 6.71538 28.0134 6.44614ZM26.7256 7.53328C27.2413 6.94399 27.3793 6.6993 27.3327 6.46985C26.9161 6.70607 26.7062 7.12518 26.7256 7.53328Z" fill="#9B6928"/>
<path fill-rule="evenodd" clip-rule="evenodd" d="M27.4512 9.69401C27.596 9.81086 27.7289 9.80832 27.9101 9.7355C28.2623 9.59411 28.6348 9.51367 29.0184 9.63813C29.2936 9.72788 29.5704 9.8117 29.8456 9.90568C29.8786 9.91754 29.9066 9.97003 29.921 10.0098C29.9777 10.1775 30.0268 10.3477 30.0835 10.5153C30.1013 10.5678 30.1614 10.6144 30.1614 10.6635C30.1597 10.7803 30.0835 10.8387 29.9514 10.8082C29.7161 10.7541 29.4807 10.6906 29.2538 10.6101C29.0243 10.528 28.8042 10.4095 28.551 10.4442C28.402 10.4645 28.2505 10.4958 28.1116 10.5534C27.8567 10.6609 27.6044 10.6838 27.3572 10.5627C26.955 10.3637 26.5783 10.4391 26.1888 10.6059C25.9686 10.7007 25.7282 10.7524 25.4928 10.8057C25.4369 10.8193 25.3472 10.7812 25.304 10.7363C25.2439 10.6745 25.304 10.6101 25.3353 10.5398C25.4107 10.3722 25.4623 10.1936 25.5148 10.0158C25.5351 9.94463 25.558 9.91161 25.6393 9.89722C25.851 9.85827 26.0762 9.83372 26.2658 9.74143C26.6401 9.56024 27.0084 9.5687 27.3885 9.68301C27.4097 9.68893 27.4317 9.69147 27.4529 9.69486L27.4512 9.69401ZM30.0386 10.7016C30.0471 10.6872 30.0556 10.6736 30.0632 10.6592C29.9972 10.6025 29.9396 10.5204 29.8634 10.4924C29.6788 10.4255 29.4697 10.4137 29.297 10.3273C28.8508 10.1013 28.4029 10.1123 27.9592 10.2952C27.767 10.3747 27.6019 10.4306 27.4182 10.3036C27.3987 10.2892 27.3708 10.2833 27.3462 10.2757C26.9965 10.1656 26.6502 10.0843 26.2887 10.2452C26.077 10.3392 25.8586 10.4408 25.6342 10.4755C25.475 10.5009 25.464 10.6084 25.3556 10.7016C25.6842 10.7007 25.9432 10.6059 26.193 10.4865C26.5969 10.2935 26.9999 10.2723 27.4097 10.4577C27.601 10.5449 27.7856 10.5559 27.9854 10.4806C28.1531 10.4171 28.3283 10.3604 28.5053 10.3358C28.8228 10.2909 29.1098 10.4213 29.3918 10.5449C29.6001 10.6364 29.8126 10.6973 30.0386 10.7016ZM27.7247 10.2816C27.8474 10.2367 27.9575 10.1893 28.0718 10.1563C28.3546 10.0767 28.6433 10.0183 28.9337 10.0987C29.1191 10.1504 29.2944 10.2401 29.4764 10.3062C29.6068 10.3536 29.7415 10.3891 29.9125 10.4408C29.8702 10.2774 29.8456 10.1597 29.8092 10.0471C29.799 10.02 29.7533 9.99713 29.7203 9.98697C29.5467 9.93447 29.3731 9.88536 29.1996 9.8371C29.0226 9.78799 28.8465 9.71687 28.6653 9.69909C28.33 9.66607 28.0286 9.81424 27.7264 9.92601C27.7247 10.0437 27.7247 10.1563 27.7247 10.2816ZM27.6375 9.92431C27.5756 9.89468 27.5172 9.86674 27.4588 9.84049C27.1591 9.70925 26.8467 9.63559 26.5325 9.7609C26.2379 9.87774 25.9517 10.0047 25.6325 10.0158C25.6046 10.1419 25.5783 10.2579 25.5512 10.3773C25.7544 10.4145 25.9221 10.3265 26.0753 10.2367C26.4733 10.0056 26.8805 10.0369 27.2954 10.1614C27.408 10.1953 27.5172 10.2384 27.6358 10.2808C27.6375 10.1487 27.6375 10.0344 27.6375 9.92431Z" fill="#9B6928"/>
<path fill-rule="evenodd" clip-rule="evenodd" d="M27.8254 8.68816C27.7263 8.5891 27.6382 8.58317 27.5265 8.65175C27.4875 8.67546 27.4232 8.6907 27.3834 8.67546C27.1235 8.5764 26.9812 8.26143 27.021 7.98457C27.0532 7.76528 27.148 7.58578 27.2606 7.40459C27.3055 7.33347 27.3174 7.24372 27.3504 7.16414C27.3741 7.10656 27.3614 7.01512 27.4681 7.01851C27.4808 7.01851 27.4994 6.97787 27.5079 6.95331C27.5451 6.84409 27.5739 6.73064 27.6179 6.62311C27.6315 6.59009 27.6806 6.57146 27.7128 6.54691C27.7314 6.58077 27.7636 6.61379 27.7678 6.64935C27.8042 6.955 27.9549 7.20985 28.1149 7.46216C28.2267 7.63827 28.3181 7.82539 28.3249 8.04045C28.3359 8.3859 28.1827 8.60095 27.8499 8.7161C27.844 8.70594 27.8338 8.69747 27.8254 8.68816ZM27.5773 8.26821C27.6899 7.90075 27.6704 7.55276 27.4706 7.23949C27.4088 7.35633 27.3428 7.48333 27.2759 7.60949C27.1624 7.82455 27.0532 8.04468 27.1726 8.28937C27.2191 8.38166 27.2979 8.46633 27.3817 8.52729C27.419 8.55438 27.5053 8.50612 27.568 8.50443C27.6459 8.50274 27.7356 8.49257 27.7974 8.52644C27.8948 8.58148 27.9642 8.55692 28.0226 8.48834C28.087 8.41383 28.153 8.33086 28.186 8.24111C28.2707 8.00574 28.1708 7.79914 28.0599 7.59594C27.9193 7.3394 27.7839 7.08116 27.6586 6.84748C27.6289 6.96263 27.5493 7.11418 27.6586 7.28775C27.7161 7.38089 27.7466 7.49688 27.7678 7.6061C27.8161 7.85503 27.7119 8.065 27.5773 8.26821Z" fill="#9B6928"/>
<path fill-rule="evenodd" clip-rule="evenodd" d="M27.8255 8.68816C27.834 8.69747 27.8433 8.70678 27.8518 8.7161C27.8873 8.87358 27.8848 9.0336 27.9703 9.18685C28.0507 9.32994 27.8848 9.40783 27.7976 9.48912C27.7332 9.54923 27.6426 9.56786 27.5613 9.49674C27.508 9.45102 27.4386 9.4163 27.4072 9.35957C27.3751 9.30369 27.3607 9.22157 27.3742 9.15891C27.3954 9.05223 27.4589 8.95232 27.4767 8.84479C27.4961 8.72457 27.5444 8.67376 27.6672 8.689C27.718 8.69493 27.773 8.68816 27.8255 8.68816ZM27.7332 8.80246C27.5842 8.77875 27.5664 8.83802 27.558 8.91676C27.5503 8.9845 27.5402 9.05392 27.5139 9.11658C27.4682 9.22834 27.4885 9.33163 27.5961 9.39344C27.6325 9.41376 27.7112 9.42054 27.7307 9.39852C27.7849 9.33671 27.8475 9.25882 27.8543 9.18262C27.8645 9.08948 27.8272 8.98873 27.7984 8.89644C27.7823 8.85072 27.7417 8.81346 27.7332 8.80246Z" fill="#9B6928"/>
<path fill-rule="evenodd" clip-rule="evenodd" d="M27.4775 6.10831C27.5444 6.23362 27.6121 6.35893 27.6773 6.48085C27.7459 6.35554 27.8128 6.23192 27.8797 6.10831C27.8975 6.11339 27.9144 6.11931 27.933 6.12524C27.933 6.237 27.933 6.34876 27.9322 6.46053C27.9288 6.72046 28.0372 6.93721 28.193 7.13533C28.3767 7.36901 28.6129 7.56798 28.6781 7.87787C28.9728 7.77457 29.1319 7.46046 29.0633 7.13957C29.0363 7.01341 29.021 6.88217 29.0176 6.75179C29.0109 6.48931 29.2437 6.35469 29.4909 6.48C29.203 6.65357 29.2581 6.91266 29.319 7.16835C29.3766 7.41135 29.4664 7.64842 29.5045 7.89396C29.5527 8.21485 29.5654 8.54505 29.3267 8.81091C29.1658 8.98956 28.949 9.09032 28.7171 9.1335C28.535 9.16821 28.3902 9.23933 28.2471 9.35617C28.11 9.46878 27.9398 9.54498 27.7755 9.62203C27.6418 9.68638 27.5088 9.63473 27.3945 9.55853C27.243 9.45777 27.1016 9.34263 26.9534 9.23679C26.9119 9.20716 26.8654 9.17498 26.818 9.16821C26.5597 9.13265 26.3201 9.05137 26.1152 8.89219C25.9476 8.7618 25.868 8.57553 25.8366 8.36556C25.7833 8.00572 25.9035 7.67551 25.9933 7.33853C26.0331 7.18867 26.0627 7.03457 26.0729 6.87963C26.0864 6.66712 26.0483 6.60954 25.8798 6.48508C25.9704 6.42158 26.1161 6.40549 26.2083 6.48339C26.2727 6.53757 26.3336 6.63579 26.337 6.71538C26.3421 6.88725 26.3125 7.06167 26.2896 7.23355C26.249 7.54851 26.4209 7.73817 26.6749 7.90158C26.7282 7.59169 26.9433 7.39272 27.1253 7.17766C27.3175 6.94906 27.4377 6.70098 27.4259 6.39702C27.4225 6.30643 27.4259 6.21584 27.4259 6.12609C27.4436 6.12016 27.4606 6.11423 27.4775 6.10831ZM27.8255 8.68814C27.7722 8.68899 27.718 8.69576 27.6663 8.68899C27.5436 8.67375 27.4961 8.72455 27.4758 8.84478C27.458 8.95146 27.3945 9.05137 27.3734 9.1589C27.3598 9.2224 27.3742 9.30368 27.4064 9.35956C27.4377 9.41629 27.5071 9.451 27.5605 9.49672C27.6426 9.56785 27.7324 9.54922 27.7967 9.4891C27.8848 9.40697 28.0499 9.32993 27.9694 9.18684C27.8839 9.03359 27.8865 8.87357 27.8509 8.71608C28.1836 8.60009 28.336 8.38503 28.3259 8.04043C28.3191 7.82622 28.2277 7.63826 28.1159 7.46215C27.9559 7.20984 27.8052 6.95499 27.7688 6.64934C27.7637 6.61378 27.7324 6.58076 27.7137 6.54689C27.6816 6.57144 27.6316 6.59007 27.6189 6.62309C27.5749 6.72977 27.5461 6.84323 27.5088 6.95329C27.5004 6.97785 27.4817 7.01934 27.469 7.01849C27.3624 7.01595 27.3759 7.10654 27.3514 7.16412C27.3183 7.24286 27.3056 7.33346 27.2616 7.40458C27.149 7.58577 27.0542 7.76526 27.022 7.98455C26.9822 8.26226 27.1244 8.57638 27.3844 8.67544C27.4242 8.69068 27.4885 8.67544 27.5275 8.65174C27.6384 8.58231 27.7264 8.58823 27.8255 8.68814Z" fill="#FDB936"/>
<path fill-rule="evenodd" clip-rule="evenodd" d="M26.0854 4.09659C26.2522 3.9916 26.3784 3.84597 26.5706 3.92725C26.6299 3.9518 26.6968 4.02631 26.7095 4.08812C26.7907 4.46828 26.8551 4.85182 26.9279 5.23368C26.9372 5.28194 26.9592 5.32766 26.9762 5.37508C26.9897 5.37338 27.0024 5.37169 27.0151 5.37C27.0151 5.33697 27.0202 5.30395 27.0143 5.27178C26.9414 4.8459 26.8652 4.42002 26.7924 3.99414C26.7628 3.82396 26.8475 3.71219 26.9863 3.62753C27.0414 3.59366 27.0913 3.55133 27.1751 3.49036C27.2005 3.77231 27.209 4.03817 27.2522 4.29895C27.2937 4.55126 27.27 4.81542 27.3512 5.06096C27.369 5.05842 27.3868 5.05588 27.4046 5.05334C27.3927 4.88485 27.3826 4.71636 27.369 4.54787C27.3453 4.24814 27.3072 3.94927 27.3038 3.64869C27.303 3.57334 27.4029 3.49036 27.4681 3.42094C27.5299 3.35489 27.6078 3.3024 27.6798 3.24313C27.7517 3.30325 27.8228 3.37437 27.9058 3.42771C28.1082 3.5581 28.076 3.75792 28.0616 3.94757C28.0438 4.1948 28.0116 4.44034 27.9871 4.68672C27.9735 4.8078 27.9642 4.92803 27.9719 5.05249C28.0955 4.9094 28.0481 4.72567 28.0811 4.56226C28.1149 4.39208 28.1073 4.21428 28.1243 4.04071C28.1403 3.8646 28.1632 3.68933 28.1869 3.48528C28.308 3.58181 28.4308 3.64869 28.5053 3.75114C28.5586 3.82565 28.5772 3.95096 28.562 4.04578C28.4968 4.45896 28.4121 4.86961 28.3368 5.28109C28.3317 5.30903 28.3469 5.34121 28.352 5.37084C28.3673 5.37169 28.3825 5.37253 28.3986 5.37423C28.4274 5.22436 28.4579 5.0745 28.4866 4.92549C28.54 4.641 28.5865 4.35482 28.6484 4.07288C28.6797 3.93064 28.8185 3.86629 28.9591 3.92048C29.0615 3.96027 29.1572 4.017 29.2554 4.08135C29.026 4.14485 28.9811 4.33281 28.943 4.51146C28.7957 5.22183 28.6568 5.93388 28.5137 6.64594C28.5061 6.68235 28.4883 6.71621 28.4782 6.74416C28.3351 6.62562 28.1928 6.50878 28.0514 6.39024C28.0345 6.37585 28.0116 6.35299 28.0125 6.33352C28.015 6.18874 28.0159 6.04395 28.0286 5.90002C28.0421 5.75439 28.0472 5.61892 27.9532 5.48853C27.8449 5.33951 27.7593 5.17526 27.6781 5.04233C27.5892 5.19134 27.4681 5.36407 27.38 5.55203C27.3335 5.65279 27.3419 5.78063 27.3318 5.89663C27.3284 5.93812 27.3445 5.9813 27.3495 6.02363C27.3843 6.25139 27.3394 6.43681 27.104 6.54349C27.016 6.58329 26.9474 6.66457 26.872 6.72638C26.8314 6.54095 26.784 6.32928 26.7399 6.11592C26.6231 5.55288 26.513 4.98984 26.3911 4.42849C26.3572 4.28201 26.2988 4.13469 26.0854 4.09659Z" fill="#FDB936"/>
<path fill-rule="evenodd" clip-rule="evenodd" d="M26.7866 9.29862C26.4945 9.36889 26.2066 9.45271 25.9128 9.5069C25.6199 9.56024 25.321 9.57463 25.0314 9.48234C24.846 9.42308 24.6987 9.31555 24.6454 9.11235C24.8401 9.12759 25.0314 9.14198 25.2219 9.15722C25.2253 9.1369 25.2287 9.11573 25.233 9.09541C25.194 9.08356 25.1559 9.06493 25.1161 9.0607C24.9993 9.04884 24.8816 9.04969 24.7656 9.03191C24.4997 8.99127 24.3524 8.8194 24.2728 8.55608C24.4887 8.61027 24.6936 8.67461 24.9027 8.61027C24.9044 8.59248 24.9044 8.5747 24.9044 8.55692C24.8257 8.55692 24.7461 8.55862 24.6682 8.55692C24.4599 8.55184 24.2677 8.49512 24.1407 8.32155C24.0832 8.24365 24.0561 8.14205 24.0103 8.03791C24.2508 8.08955 24.4549 8.13358 24.6606 8.17761C24.6665 8.1539 24.6725 8.12935 24.6775 8.10649C24.5912 8.08871 24.5057 8.06161 24.4193 8.05569C24.0806 8.03367 23.8173 7.7348 23.8656 7.43507C24.0857 7.49773 24.3067 7.55953 24.5268 7.62304C24.5336 7.60187 24.5412 7.5807 24.5471 7.55953C24.4853 7.53921 24.4227 7.51805 24.3592 7.49857C24.2161 7.4537 24.0679 7.42068 23.9308 7.36226C23.758 7.28944 23.631 7.04814 23.6886 6.78905C23.7707 6.41567 24.0205 6.13542 24.1594 5.7959C24.1738 5.80098 24.1873 5.80521 24.2008 5.81029C24.1695 5.96778 24.1433 6.1261 24.106 6.28189C24.0671 6.44615 24.0408 6.61041 24.1416 6.75773C24.2279 6.88304 24.3803 6.95754 24.631 6.86779C24.9121 6.76704 25.1906 6.66374 25.4675 6.55622C25.6233 6.4961 25.763 6.50542 25.8942 6.60956C26.0466 6.72979 26.0178 6.89489 25.9865 7.04645C25.9272 7.32416 25.8434 7.59594 25.7748 7.8728C25.6885 8.22418 25.7316 8.55946 25.9636 8.84395C26.1287 9.04884 26.3734 9.14198 26.6215 9.21733C26.6748 9.23342 26.7307 9.24189 26.7841 9.25374C26.7841 9.26813 26.7858 9.28338 26.7866 9.29862Z" fill="#FDB936"/>
<path fill-rule="evenodd" clip-rule="evenodd" d="M31.1892 5.80774C31.3823 6.1608 31.6337 6.48424 31.6913 6.90165C31.7184 7.09808 31.5431 7.34277 31.3137 7.41728C31.1799 7.46046 31.0393 7.48755 30.903 7.52396C30.8734 7.53158 30.8463 7.54851 30.8167 7.56121C30.8209 7.57645 30.8243 7.59085 30.8277 7.60524C30.942 7.58577 31.0571 7.57476 31.1672 7.54428C31.279 7.51295 31.3839 7.463 31.4932 7.42066C31.5236 7.67552 31.3662 7.93799 31.1553 8.00064C31.0317 8.03705 30.9022 8.05483 30.7769 8.08362C30.7405 8.09124 30.7041 8.10478 30.6592 8.11918C30.7845 8.18606 30.9902 8.15728 31.3044 8.03282C31.3348 8.1776 31.2857 8.29444 31.1757 8.36979C31.0749 8.43922 30.9606 8.49764 30.8438 8.52982C30.7201 8.56368 30.5864 8.55945 30.4577 8.57215C30.5169 8.66528 30.7015 8.66444 31.0461 8.56792C31.0639 8.70762 30.9581 8.87442 30.8031 8.96163C30.6414 9.05307 30.467 9.06915 30.2858 9.06407C30.235 9.06238 30.1834 9.07593 30.1342 9.10048C30.3256 9.20631 30.5136 9.11995 30.71 9.10471C30.66 9.31384 30.5178 9.42561 30.3273 9.48572C30.0547 9.57123 29.7744 9.56531 29.4984 9.51197C29.2071 9.45608 28.921 9.37226 28.6331 9.3003C28.6145 9.29606 28.5958 9.28252 28.5569 9.26304C28.8287 9.19785 29.0683 9.11911 29.2774 8.95824C29.4628 8.81346 29.5551 8.62464 29.6 8.40027C29.6745 8.02943 29.5356 7.69245 29.4442 7.34616C29.4044 7.19206 29.3731 7.03289 29.3646 6.87456C29.3511 6.61886 29.578 6.45545 29.821 6.53927C30.086 6.63156 30.3434 6.74163 30.6084 6.83392C30.7396 6.88048 30.8717 6.93467 31.0207 6.89149C31.185 6.84323 31.3255 6.62648 31.2891 6.4563C31.2442 6.24632 31.2011 6.0355 31.1587 5.82467C31.1672 5.8179 31.1791 5.81282 31.1892 5.80774Z" fill="#FDB936"/>
<path fill-rule="evenodd" clip-rule="evenodd" d="M27.6798 6.22431C27.3445 5.81875 27.2539 5.74171 27.673 5.17697C28.0244 5.63926 28.0955 5.73324 27.6798 6.22431Z" fill="#FDB936"/>
<path fill-rule="evenodd" clip-rule="evenodd" d="M28.0135 6.44614C28.4097 6.71538 28.6367 7.04982 28.6358 7.55867C28.3784 7.19968 28.0076 6.94906 28.0135 6.44614Z" fill="#FDB936"/>
<path fill-rule="evenodd" clip-rule="evenodd" d="M26.7256 7.53328C26.7061 7.12518 26.9161 6.70523 27.3327 6.46985C27.3801 6.6993 27.2421 6.94399 26.7256 7.53328Z" fill="#FDB936"/>
<path fill-rule="evenodd" clip-rule="evenodd" d="M30.0386 10.7016C29.8117 10.6973 29.5991 10.6364 29.3909 10.5449C29.1089 10.4213 28.8219 10.2909 28.5044 10.3358C28.3274 10.3603 28.1522 10.4179 27.9845 10.4806C27.7856 10.5559 27.6001 10.5449 27.4088 10.4577C26.9998 10.2714 26.596 10.2935 26.1921 10.4865C25.9423 10.6059 25.6824 10.7007 25.3547 10.7016C25.4631 10.6084 25.475 10.5009 25.6333 10.4755C25.8585 10.4399 26.0761 10.3392 26.2878 10.2452C26.6493 10.0843 26.9956 10.1656 27.3453 10.2757C27.3698 10.2833 27.3978 10.2892 27.4173 10.3036C27.601 10.4298 27.7661 10.3739 27.9583 10.2952C28.4019 10.1123 28.8498 10.1013 29.296 10.3273C29.4688 10.4145 29.6779 10.4264 29.8625 10.4924C29.9395 10.5204 29.9962 10.6016 30.0623 10.6592C30.0555 10.6736 30.047 10.6872 30.0386 10.7016Z" fill="#FDB936"/>
<path fill-rule="evenodd" clip-rule="evenodd" d="M27.7246 10.2816C27.7246 10.1572 27.7246 10.0437 27.7246 9.92601C28.0269 9.8151 28.3283 9.66608 28.6636 9.6991C28.8448 9.71688 29.0209 9.788 29.1978 9.83711C29.3714 9.88537 29.545 9.93448 29.7185 9.98697C29.7516 9.99713 29.7981 10.02 29.8074 10.0471C29.8438 10.1597 29.8684 10.2774 29.9107 10.4408C29.7406 10.3891 29.6059 10.3536 29.4747 10.3062C29.2927 10.2401 29.1174 10.1504 28.932 10.0987C28.6416 10.0183 28.3528 10.0767 28.0701 10.1563C27.9574 10.1885 27.8474 10.2367 27.7246 10.2816Z" fill="#FDB936"/>
<path fill-rule="evenodd" clip-rule="evenodd" d="M27.6375 9.92431C27.6375 10.0344 27.6375 10.1487 27.6375 10.2799C27.5181 10.2376 27.4089 10.1936 27.2971 10.1605C26.8823 10.0369 26.4742 10.0047 26.0771 10.2359C25.923 10.3256 25.7562 10.4137 25.553 10.3764C25.5792 10.2571 25.6063 10.1419 25.6343 10.0149C25.9535 10.0039 26.2396 9.8769 26.5343 9.76006C26.8484 9.6356 27.16 9.70841 27.4605 9.83965C27.5173 9.86674 27.5748 9.89468 27.6375 9.92431Z" fill="#FDB936"/>
<path fill-rule="evenodd" clip-rule="evenodd" d="M27.5774 8.2682C27.712 8.06415 27.8161 7.85417 27.7679 7.60524C27.7467 7.49602 27.7162 7.38003 27.6586 7.28689C27.5494 7.11332 27.629 6.96261 27.6586 6.84662C27.7831 7.07946 27.9194 7.33854 28.06 7.59508C28.1717 7.79829 28.2708 8.00488 28.1861 8.24025C28.1531 8.33085 28.0871 8.41298 28.0227 8.48748C27.9651 8.55607 27.8957 8.58062 27.7975 8.52558C27.7357 8.49087 27.6451 8.50188 27.5681 8.50357C27.5054 8.50442 27.419 8.55352 27.3818 8.52643C27.298 8.46547 27.2192 8.3808 27.1727 8.28851C27.0533 8.04382 27.1625 7.82369 27.276 7.60863C27.3428 7.48247 27.4089 7.35547 27.4707 7.23863C27.6713 7.55275 27.69 7.90074 27.5774 8.2682Z" fill="#FDB936"/>
<path fill-rule="evenodd" clip-rule="evenodd" d="M27.7332 8.80246C27.7416 8.81347 27.7831 8.85072 27.7975 8.89644C27.8263 8.98958 27.8636 9.09033 27.8534 9.18262C27.8466 9.25882 27.7848 9.33672 27.7298 9.39853C27.7103 9.42054 27.6316 9.41377 27.5952 9.39345C27.4876 9.33164 27.4682 9.22834 27.513 9.11658C27.5384 9.05393 27.5494 8.9845 27.5571 8.91677C27.5664 8.83802 27.5842 8.77876 27.7332 8.80246Z" fill="#FDB936"/>
</g>
<defs>
<clipPath id="clip0_990_11164">
<rect width="55" height="58" fill="white"/>
</clipPath>
</defs>
</svg>
