<svg width="54" height="58" viewBox="0 0 54 58" fill="none" xmlns="http://www.w3.org/2000/svg">
<g clip-path="url(#clip0_990_11101)">
<path d="M13.2948 18.8576L13.1526 42.3522L40.9432 42.6333V18.5376C40.9432 18.5376 36.5354 11.4466 26.3566 11.0233C16.1778 10.5999 13.2948 18.8576 13.2948 18.8576Z" fill="#211413"/>
<path d="M42.965 41.795C40.7687 40.2854 37.1737 38.9891 31.3773 39.3888L30.6119 42.6333H23.5938L22.8284 39.3888C17.0329 38.9883 13.437 40.2854 11.2407 41.795C11.2407 41.795 1.11022 48.2086 0.447266 57.6618H7.93615H8.64144H24.4506H27.0686H27.1363H38.5792H45.5635H46.2688H53.7576C53.0955 48.2086 42.965 41.795 42.965 41.795Z" fill="#EDEDED"/>
<path d="M22.863 35.8632V44.8024H31.3832V36.0816L22.863 35.8632Z" fill="#F18C81"/>
<path d="M11.7539 57.6017V52.6563C11.7539 52.4971 11.5998 52.3667 11.4093 52.3667C11.2188 52.3667 11.0647 52.4962 11.0647 52.6563V57.6017H11.7539Z" fill="#151E3C"/>
<path d="M16.1202 15.7512C16.1202 15.7512 11.0647 38.0078 27.1482 37.7809C43.2394 37.5523 37.973 15.7512 37.973 15.7512H16.1202Z" fill="#F9BBB7"/>
<path d="M16.2608 17.9593C16.2608 17.9593 11.1756 18.0126 11.0664 23.1266C10.9572 28.2405 16.1202 28.3997 16.1202 28.3997L16.2608 17.9593Z" fill="#F9BBB7"/>
<path d="M16.1999 20.6966C16.1999 20.6966 13.6607 20.7229 13.6066 23.2765C13.5524 25.83 16.1297 25.9088 16.1297 25.9088L16.1999 20.6966Z" fill="#F18C81"/>
<path d="M37.9128 28.5225C37.9128 28.5225 42.998 28.4691 43.1072 23.3552C43.2164 18.2412 38.0525 18.0821 38.0525 18.0821L37.9128 28.5225Z" fill="#F9BBB7"/>
<path d="M37.9729 25.7852C37.9729 25.7852 40.5129 25.7589 40.5663 23.2053C40.6196 20.6517 38.0432 20.573 38.0432 20.573L37.9729 25.7852Z" fill="#F18C81"/>
<path d="M14.5438 19.1768C14.5438 19.1768 20.3089 19.4935 23.8463 15.7512C23.8463 15.7512 27.0086 19.9185 40.409 19.5663C40.409 19.5663 40.8459 9.40105 33.2351 7.60185C23.0242 5.18797 13.1273 6.6087 14.5438 19.1768Z" fill="#F18C81"/>
<path d="M13.3914 20.0379C13.3914 20.0379 21.6516 18.3064 23.8183 14.5421C23.8183 14.5421 27.15 19.7737 40.961 19.5621C40.961 19.5621 43.1082 1.30255 27.0755 1.30255C10.798 1.3017 13.3914 20.0379 13.3914 20.0379Z" fill="#4D2F2B"/>
<path d="M30.9017 23.7066C30.9017 23.7066 30.6773 23.2756 31.1099 22.8074C31.5426 22.3392 33.302 21.2808 34.92 22.8904C34.92 22.8904 35.3704 23.3696 34.8785 23.9665C34.3866 24.5634 33.6432 23.8691 33.6432 23.8691C33.6432 23.8691 32.8245 23.3179 32.2098 23.9665C31.5951 24.615 30.9499 23.8691 30.9017 23.7066Z" fill="#4D2F2B"/>
<path d="M27.0466 32.4875C27.7087 32.4875 28.3623 32.3605 28.9745 32.1056C29.5858 31.8508 30.1387 31.4808 30.6035 31.0092C30.7525 30.8619 30.8355 30.662 30.8355 30.4521C30.8355 30.2438 30.7517 30.0423 30.6035 29.8949C30.4562 29.7459 30.2555 29.663 30.0464 29.663C29.8381 29.663 29.6366 29.7468 29.4893 29.8949C28.839 30.5393 27.9627 30.9016 27.0474 30.9016C26.1339 30.9016 25.255 30.5393 24.6048 29.8949C24.4583 29.7459 24.2568 29.663 24.0477 29.663C23.8385 29.663 23.6379 29.7468 23.4905 29.8949C23.3441 30.0414 23.2585 30.2438 23.2585 30.4521C23.2585 30.662 23.3441 30.8619 23.4905 31.0092C23.9554 31.4825 24.5082 31.8575 25.1204 32.1124C25.73 32.3689 26.3862 32.4993 27.0474 32.4993L27.0466 32.4875Z" fill="#4D2F2B"/>
<path d="M23.2079 23.7066C23.2079 23.7066 23.4323 23.2756 22.9996 22.8074C22.5669 22.3392 20.8075 21.2808 19.1895 22.8904C19.1895 22.8904 18.7383 23.3696 19.2302 23.9665C19.7221 24.5634 20.4655 23.8691 20.4655 23.8691C20.4655 23.8691 21.2834 23.3179 21.8981 23.9665C22.5128 24.615 23.1596 23.8691 23.2079 23.7066Z" fill="#4D2F2B"/>
<path d="M27.8407 26.443L27.8416 25.775H27.8399V25.0248C27.8399 25.0248 27.9042 24.1494 27.0466 24.1477C26.2524 24.146 26.2532 25.0248 26.2532 25.0248V25.775V25.9706V26.6386L26.2541 27.3888C26.2541 27.3888 26.1889 28.2642 27.0474 28.2659C27.8424 28.2676 27.8407 27.3888 27.8407 27.3888V26.6386V26.443Z" fill="#4D2F2B"/>
<g opacity="0.4">
<path d="M21.1343 28.2448C24.019 28.2448 26.3575 25.9063 26.3575 23.0216C26.3575 20.1369 24.019 17.7984 21.1343 17.7984C18.2496 17.7984 15.9111 20.1369 15.9111 23.0216C15.9111 25.9063 18.2496 28.2448 21.1343 28.2448Z" fill="#1F9FDA"/>
<path opacity="0.5" d="M16.4158 25.2501C16.9068 26.2872 17.7247 27.1365 18.7416 27.6614L23.1257 18.1938C22.5119 17.9407 21.8388 17.7984 21.1335 17.7984C20.6653 17.7984 20.214 17.8662 19.7813 17.9813L16.4158 25.2501Z" fill="white"/>
<path opacity="0.5" d="M23.8317 18.5562L19.4722 27.9704C19.9946 28.1457 20.5525 28.2448 21.1342 28.2448C21.2417 28.2448 21.3467 28.2346 21.4517 28.2287L25.3109 19.8948C24.9087 19.3597 24.4075 18.9042 23.8317 18.5562Z" fill="white"/>
</g>
<g opacity="0.4">
<path d="M32.9759 28.3523C35.8605 28.3523 38.199 26.0138 38.199 23.1291C38.199 20.2444 35.8605 17.906 32.9759 17.906C30.0912 17.906 27.7527 20.2444 27.7527 23.1291C27.7527 26.0138 30.0912 28.3523 32.9759 28.3523Z" fill="#1F9FDA"/>
<path opacity="0.5" d="M28.1921 25.2238C28.6587 26.2864 29.4672 27.1661 30.4799 27.7181L34.8589 18.2616C34.2747 18.0346 33.6414 17.906 32.975 17.906C32.4552 17.906 31.9531 17.9847 31.4789 18.1261L28.1921 25.2238Z" fill="white"/>
<path opacity="0.5" d="M35.5744 18.6028L31.2056 28.0382C31.7593 28.2371 32.3528 28.3523 32.976 28.3523C33.0395 28.3523 33.1004 28.3447 33.1639 28.3421L37.0748 19.8973C36.6624 19.3766 36.1544 18.9364 35.5744 18.6028Z" fill="white"/>
</g>
<path d="M21.1343 28.1906C23.9619 28.1906 26.2542 25.8983 26.2542 23.0707C26.2542 20.2431 23.9619 17.9508 21.1343 17.9508C18.3067 17.9508 16.0144 20.2431 16.0144 23.0707C16.0144 25.8983 18.3067 28.1906 21.1343 28.1906Z" stroke="#263E8C" stroke-miterlimit="10"/>
<path d="M33.0269 28.1906C35.8545 28.1906 38.1467 25.8983 38.1467 23.0707C38.1467 20.2431 35.8545 17.9508 33.0269 17.9508C30.1992 17.9508 27.907 20.2431 27.907 23.0707C27.907 25.8983 30.1992 28.1906 33.0269 28.1906Z" stroke="#263E8C" stroke-miterlimit="10"/>
<path d="M27.9832 22.2867H26.1179V23.5567H27.9832V22.2867Z" fill="#263E8C"/>
<path d="M40.7146 53.8035C40.343 53.7112 38.5582 53.7078 38.0222 53.7095C37.4854 53.7078 35.7015 53.7112 35.3289 53.8035C34.8802 53.9161 34.6863 54.3843 34.6863 54.3843C34.6863 54.3843 34.7193 56.1488 34.7235 57.6618H38.5802H41.3192C41.3234 56.1488 41.3573 54.3843 41.3573 54.3843C41.3573 54.3843 41.1642 53.9161 40.7146 53.8035Z" fill="#D8D8D8"/>
<path d="M41.3429 55.1463C41.3429 55.2022 41.2844 55.2488 41.2125 55.2488H34.8285C34.7557 55.2488 34.6973 55.2022 34.6973 55.1463C34.6973 55.0888 34.7557 55.0422 34.8285 55.0422H41.2125C41.2836 55.0422 41.3429 55.0888 41.3429 55.1463Z" fill="#9B9A9A"/>
<path d="M25.3025 47.0927L24.1028 57.6618H30.1709L28.6893 47.0927H25.3025Z" fill="#263E8C"/>
<path d="M26.9383 42.3852L23.4897 42.2472L24.9731 48.1172C24.9731 48.1172 25.0299 48.6862 25.9392 48.6819C26.2558 48.6811 26.5412 48.6811 26.7537 48.6811C26.7537 48.6811 26.8316 48.6811 26.9383 48.6811C27.045 48.6811 27.1229 48.6819 27.1229 48.6819C27.3354 48.6819 27.6207 48.6811 27.9374 48.6819C28.8467 48.6862 28.9026 48.1172 28.9026 48.1172L30.5782 42.2472L26.9383 42.3852Z" fill="#263E8C"/>
<path d="M28.79 48.4889C28.79 48.5245 28.7587 48.5532 28.7189 48.5532H25.2847C25.2449 48.5532 25.2136 48.5245 25.2136 48.4889C25.2136 48.4525 25.2458 48.4245 25.2847 48.4245H28.7189C28.7578 48.4245 28.79 48.4525 28.79 48.4889Z" fill="#151E3C"/>
<path d="M19.854 42.099C19.854 42.099 20.8192 39.47 21.7844 39.1238L27.1261 42.3767C27.1261 42.3767 24.498 44.5273 24.1035 46.8108C24.1035 46.8108 22.0478 45.4214 19.854 42.099Z" fill="#D8D8D8"/>
<path d="M34.24 42.099C34.24 42.099 33.2681 39.4701 32.2961 39.1238L26.9163 42.3767C26.9163 42.3767 29.3759 44.8092 29.7738 47.0927C29.7738 47.0927 32.0311 45.4214 34.24 42.099Z" fill="#D8D8D8"/>
<path d="M43.4536 57.6618V52.7172C43.4536 52.5572 43.2987 52.4277 43.109 52.4277C42.9193 52.4277 42.7644 52.5563 42.7644 52.7172V57.6618H43.4536Z" fill="#151E3C"/>
<path opacity="0.3" d="M53.7584 57.6618C53.5899 55.2522 52.8033 53.0415 51.7289 51.0823C51.7069 51.7012 51.386 54.0634 47.8003 54.1803V54.2091C39.7086 54.2158 14.3132 54.2158 6.47128 54.2091C2.38012 54.0753 2.54014 51.0188 2.54353 50.9663C1.43523 52.9543 0.620721 55.2048 0.447998 57.6618H6.47213H7.93688H8.64217H17.9811H24.4514H24.8434H27.0693H27.1371H29.6009H36.4632H38.5799H45.5642H46.2695H47.8003H53.7584Z" fill="black"/>
<path d="M40.5968 8.12764C38.7976 3.34729 29.844 0.56086 26.917 0.56086C24.0586 0.56086 15.3674 3.63008 13.2372 8.12764C12.3922 9.91075 12.0874 16.1474 12.0874 16.1474C12.0874 16.1474 25.172 12.1087 26.917 11.9724C28.6629 12.1087 41.7466 16.1474 41.7466 16.1474C41.7466 16.1474 41.2911 9.97425 40.5968 8.12764Z" fill="#263E8C"/>
<path d="M40.0457 14.1348C26.3641 8.0743 9.40006 15.2381 9.63797 16.6825C9.63797 16.6825 9.63713 18.3496 12.9426 16.9721C15.4208 15.94 21.6583 13.5269 26.3557 13.6328C32.2943 13.5269 38.6427 15.94 41.1201 16.9721C44.4255 18.3496 44.4247 16.6825 44.4247 16.6825C44.2545 15.9069 41.9718 14.8376 40.0457 14.1348Z" fill="#151E3C"/>
<path fill-rule="evenodd" clip-rule="evenodd" d="M26.9264 9.4383C26.7588 9.33077 26.5928 9.2207 26.4226 9.11825C26.3972 9.10301 26.3498 9.11486 26.316 9.12418C26.0442 9.19784 25.7766 9.29182 25.5006 9.34432C25.1526 9.4112 24.797 9.43406 24.449 9.32823C24.2297 9.26134 24.0867 9.11486 24.0079 8.89896C23.9876 8.84308 23.9326 8.79905 23.8953 8.7491C23.8225 8.65258 23.7234 8.56452 23.6853 8.4553C23.6362 8.3139 23.5685 8.19198 23.4889 8.06752C23.4356 7.98454 23.4305 7.87194 23.4008 7.77287C23.3856 7.72123 23.3627 7.67212 23.3458 7.62047C23.3018 7.49093 23.2586 7.36054 23.2163 7.23015C23.1993 7.17766 23.1993 7.11585 23.1689 7.07437C22.9707 6.80343 22.9885 6.5164 23.1231 6.2353C23.2569 5.95675 23.4178 5.69173 23.5643 5.4208C23.6015 5.35137 23.6261 5.27686 23.6625 5.20743C23.6802 5.17357 23.7124 5.14732 23.7378 5.11769C23.7607 5.15494 23.8039 5.19304 23.803 5.23029C23.8005 5.36068 23.7869 5.49192 23.7692 5.62061C23.7412 5.8272 23.7023 6.0321 23.6752 6.23784C23.6422 6.49269 23.8301 6.5689 24.0418 6.49947C24.3254 6.40549 24.6031 6.29034 24.8842 6.18789C25.1069 6.10661 25.3347 6.05665 25.5743 6.06681C25.819 6.07697 25.9815 6.28272 25.9392 6.52741C25.907 6.71114 25.8867 6.89825 25.874 7.08452C25.8647 7.22846 25.9341 7.34192 26.0577 7.42235C26.0755 7.25301 26.051 7.07013 26.1178 6.93043C26.2508 6.65356 26.2144 6.39194 26.1542 6.11507C26.0256 5.52155 25.9062 4.92634 25.7834 4.33197C25.7817 4.3235 25.7834 4.31419 25.7809 4.30572C25.6937 3.95011 25.6937 3.95011 25.3245 3.93318C25.3042 3.93233 25.283 3.92641 25.2331 3.91794C25.272 3.87391 25.2915 3.83835 25.322 3.81972C25.4727 3.7249 25.6217 3.62414 25.7817 3.54879C25.8605 3.51153 25.9646 3.51238 26.0552 3.52C26.1153 3.52508 26.139 3.51577 26.1788 3.47005C26.2567 3.37945 26.3532 3.3041 26.443 3.22366C26.4946 3.1771 26.5471 3.13222 26.6005 3.08734C26.6284 3.06448 26.6682 3.023 26.6868 3.03062C26.719 3.04332 26.7393 3.08735 26.78 3.13645C26.8722 3.05348 26.9738 2.95611 27.0831 2.8689C27.1127 2.84604 27.1864 2.83419 27.2092 2.85366C27.3184 2.94341 27.4175 3.04671 27.5225 3.14746C27.558 3.09666 27.5826 3.06194 27.6072 3.02723C27.6436 3.05432 27.68 3.08057 27.7155 3.10767C27.8019 3.17371 27.8874 3.24144 27.9738 3.30748C27.9805 3.31256 27.9941 3.31087 27.9975 3.31764C28.0974 3.48021 28.2286 3.53693 28.4276 3.51153C28.5156 3.50053 28.6206 3.59874 28.7146 3.65293C28.8111 3.70966 28.9051 3.77316 28.9991 3.83666C29.022 3.85275 29.0372 3.87984 29.0838 3.93318C28.972 3.93318 28.9034 3.93318 28.834 3.93318C28.6587 3.93318 28.6096 3.96197 28.5664 4.13638C28.5089 4.36753 28.464 4.60206 28.4149 4.8349C28.3048 5.37 28.1973 5.90679 28.0847 6.44105C28.0644 6.53842 28.0796 6.61969 28.1092 6.71537C28.1778 6.94143 28.2168 7.17596 28.2684 7.40796C28.392 7.30974 28.4504 7.16073 28.4293 6.98123C28.414 6.85169 28.398 6.7213 28.3709 6.5943C28.3048 6.28695 28.4699 6.05242 28.79 6.06258C29.1583 6.07443 29.4817 6.21752 29.8178 6.33267C30.0066 6.39787 30.1921 6.47576 30.386 6.51132C30.5485 6.54096 30.64 6.44528 30.6247 6.28187C30.6069 6.0702 30.5638 5.86107 30.5358 5.65025C30.518 5.51224 30.5045 5.37253 30.5003 5.23368C30.4994 5.19558 30.5392 5.15579 30.5604 5.11684C30.5892 5.14817 30.6256 5.17611 30.645 5.21251C30.7873 5.47668 30.9244 5.74338 31.0667 6.00755C31.1835 6.22345 31.297 6.43935 31.2733 6.69674C31.2682 6.75262 31.2733 6.82036 31.2436 6.861C31.1107 7.04304 31.1065 7.26571 31.0303 7.46468C30.9736 7.61455 30.9228 7.76526 30.8711 7.91681C30.7847 8.16574 30.6459 8.39603 30.5223 8.63141C30.4977 8.67967 30.4402 8.7093 30.4012 8.75079C30.3631 8.79059 30.3131 8.83038 30.2988 8.87949C30.1938 9.22493 29.8881 9.3604 29.5664 9.3858C29.0389 9.42644 28.5326 9.31722 28.0415 9.13688C27.9518 9.10386 27.8967 9.11402 27.8112 9.1699C27.6241 9.29182 27.4209 9.39596 27.2118 9.4764C27.1322 9.50688 27.0204 9.451 26.923 9.43491L26.9264 9.4383ZM26.9501 5.85006C26.9332 5.85599 26.9163 5.86276 26.8993 5.86869C26.8993 5.95844 26.8968 6.04904 26.9002 6.13963C26.912 6.44359 26.791 6.69166 26.5988 6.92027C26.4167 7.13617 26.2025 7.33429 26.1483 7.64418C25.8943 7.48162 25.7224 7.29111 25.7631 6.97615C25.7851 6.80343 25.8156 6.62986 25.8097 6.45798C25.8071 6.37755 25.7462 6.28018 25.6818 6.22599C25.5895 6.14809 25.4439 6.16418 25.3533 6.22768C25.5218 6.35215 25.5599 6.40972 25.5463 6.62224C25.5362 6.77633 25.5057 6.93128 25.4667 7.08114C25.3778 7.41812 25.2559 7.74917 25.3101 8.10816C25.3414 8.31898 25.421 8.50441 25.5887 8.6348C25.7936 8.79397 26.034 8.8761 26.2914 8.91081C26.3388 8.91674 26.3862 8.94892 26.4269 8.9794C26.5751 9.08523 26.7164 9.20122 26.868 9.30113C26.9823 9.37733 27.1152 9.42898 27.2499 9.36463C27.4124 9.28674 27.5835 9.21054 27.7206 9.09878C27.8637 8.98194 28.0085 8.90997 28.1905 8.8761C28.4217 8.83292 28.6384 8.73301 28.8001 8.55351C29.0389 8.28681 29.0262 7.9566 28.9779 7.63656C28.9398 7.39102 28.8509 7.15395 28.7925 6.91096C28.7315 6.65526 28.6765 6.39617 28.9644 6.2226C28.7172 6.0973 28.4852 6.23192 28.4911 6.49439C28.4945 6.62393 28.5089 6.75517 28.5368 6.88217C28.6054 7.20306 28.4462 7.51718 28.1516 7.62047C28.0864 7.31059 27.8493 7.11162 27.6664 6.87793C27.5106 6.67981 27.4023 6.46306 27.4056 6.20313C27.4065 6.09137 27.4056 5.9796 27.4056 5.86784C27.3879 5.86276 27.3709 5.85684 27.3531 5.85091C27.2854 5.97452 27.2185 6.09814 27.1499 6.22345C27.0848 6.10068 27.017 5.97537 26.9501 5.85006ZM25.5573 3.83835C25.7707 3.87645 25.83 4.02377 25.8622 4.17279C25.9849 4.73414 26.095 5.29803 26.211 5.86022C26.255 6.07274 26.3033 6.28526 26.3431 6.47068C26.4193 6.40887 26.4878 6.32759 26.5759 6.2878C26.8121 6.18112 26.8561 5.99569 26.8223 5.76793C26.8164 5.7256 26.8003 5.68158 26.8037 5.64093C26.8138 5.52494 26.8054 5.39709 26.8519 5.29633C26.9391 5.10837 27.0602 4.93565 27.1491 4.78663C27.2295 4.91956 27.3167 5.08382 27.4243 5.23283C27.5183 5.36322 27.5123 5.49869 27.4996 5.64432C27.4869 5.78826 27.4861 5.93304 27.4835 6.07782C27.4835 6.09645 27.5056 6.12016 27.5225 6.13455C27.6639 6.25308 27.8053 6.36993 27.9484 6.48846C27.9585 6.46137 27.9763 6.42665 27.9839 6.39025C28.127 5.67903 28.2659 4.96613 28.4132 4.25576C28.4513 4.07711 28.4962 3.88831 28.7256 3.82565C28.6283 3.7613 28.5317 3.70373 28.4293 3.66478C28.2887 3.6106 28.1499 3.67494 28.1185 3.81719C28.0567 4.09913 28.0102 4.38531 27.9568 4.66979C27.928 4.81966 27.8976 4.96952 27.8688 5.11853C27.8535 5.11769 27.8383 5.11684 27.8231 5.11514C27.818 5.08551 27.8036 5.05334 27.8078 5.0254C27.8823 4.61391 27.967 4.20327 28.0322 3.79009C28.0474 3.69526 28.0288 3.56995 27.9755 3.49545C27.901 3.393 27.7782 3.32611 27.6571 3.22959C27.6334 3.43449 27.6097 3.60975 27.5936 3.78501C27.5767 3.95858 27.5851 4.13723 27.5513 4.30657C27.5183 4.46913 27.5657 4.65286 27.4421 4.79679C27.4344 4.67318 27.4437 4.5521 27.4564 4.43103C27.4818 4.18464 27.514 3.93826 27.5318 3.69187C27.5462 3.50222 27.5784 3.30325 27.376 3.17201C27.293 3.11867 27.2219 3.04755 27.1499 2.98744C27.078 3.0467 27.0009 3.0992 26.9383 3.16524C26.8731 3.23467 26.7732 3.3168 26.774 3.393C26.7774 3.69272 26.8155 3.99245 26.8392 4.29217C26.8528 4.46066 26.8629 4.62915 26.8748 4.79764C26.857 4.80018 26.8392 4.80272 26.8214 4.80526C26.7393 4.55972 26.763 4.29471 26.7215 4.04325C26.6792 3.78247 26.6699 3.51661 26.6453 3.23467C26.5624 3.29563 26.5124 3.33796 26.4565 3.37183C26.3177 3.45565 26.233 3.56826 26.2626 3.73844C26.3354 4.16432 26.4108 4.5902 26.4845 5.01608C26.4895 5.04826 26.4845 5.08128 26.4845 5.1143C26.4718 5.11599 26.4591 5.11769 26.4455 5.11938C26.4294 5.07196 26.4066 5.02624 26.3972 4.97798C26.3253 4.59613 26.2601 4.21258 26.1797 3.83242C26.167 3.76977 26.1001 3.69611 26.0408 3.67156C25.8503 3.58773 25.7241 3.73336 25.5573 3.83835ZM26.2584 9.0412C26.2575 9.02512 26.2567 9.00987 26.255 8.99463C26.2008 8.98278 26.1449 8.97431 26.0916 8.95823C25.8444 8.88287 25.5997 8.78974 25.4337 8.58484C25.2026 8.29951 25.1594 7.96507 25.2458 7.6137C25.3143 7.33768 25.3982 7.06505 25.4574 6.78734C25.4896 6.63663 25.5175 6.47068 25.3651 6.35045C25.2331 6.24631 25.0934 6.237 24.9384 6.29711C24.6607 6.40464 24.3822 6.50878 24.1019 6.60869C23.8513 6.69844 23.6972 6.62478 23.6117 6.49862C23.5109 6.3513 23.5372 6.18704 23.5761 6.02279C23.6134 5.867 23.6405 5.70867 23.6709 5.55118C23.6574 5.5461 23.6438 5.54187 23.6295 5.53679C23.4898 5.87546 23.2417 6.15572 23.1587 6.52995C23.102 6.78903 23.2281 7.03033 23.4008 7.10315C23.538 7.16157 23.6862 7.19459 23.8301 7.23947C23.8928 7.25894 23.9546 7.28011 24.0172 7.30043C24.0105 7.32159 24.0037 7.34276 23.9969 7.36393C23.7759 7.30127 23.5558 7.23862 23.3357 7.17597C23.2865 7.47569 23.5507 7.77457 23.8885 7.79658C23.9757 7.80251 24.0613 7.8296 24.1468 7.84738C24.1417 7.87109 24.1358 7.8948 24.1298 7.9185C23.9249 7.87448 23.7209 7.83045 23.4804 7.7788C23.5262 7.88294 23.5524 7.98455 23.61 8.06244C23.7378 8.23601 23.9292 8.29274 24.1375 8.29782C24.2162 8.29951 24.2958 8.29782 24.3745 8.29782C24.3745 8.3156 24.3737 8.33338 24.3728 8.35116C24.1629 8.41551 23.958 8.35116 23.7421 8.29697C23.8216 8.56029 23.969 8.73216 24.2348 8.7728C24.35 8.79058 24.4685 8.78974 24.5862 8.80159C24.6251 8.80582 24.6632 8.82361 24.7022 8.83631C24.6988 8.85663 24.6954 8.87695 24.6912 8.89811C24.5007 8.88287 24.3102 8.86848 24.1146 8.85324C24.1679 9.05644 24.3153 9.16397 24.5007 9.22324C24.7903 9.31468 25.0891 9.30113 25.3821 9.24779C25.6784 9.1953 25.9671 9.11148 26.2584 9.0412ZM30.6611 5.54949C30.651 5.55457 30.64 5.55965 30.6298 5.56473C30.673 5.77556 30.7162 5.98638 30.7602 6.19636C30.7966 6.36738 30.656 6.58414 30.4918 6.63155C30.3419 6.67473 30.2107 6.62054 30.0795 6.57397C29.8144 6.48169 29.5571 6.37162 29.292 6.27933C29.0491 6.19466 28.8221 6.35807 28.8357 6.61462C28.8442 6.77294 28.8755 6.93212 28.9153 7.08622C29.0059 7.43251 29.1447 7.76949 29.0711 8.14034C29.0262 8.36471 28.9339 8.55352 28.7485 8.6983C28.5402 8.85917 28.3006 8.93791 28.028 9.0031C28.0669 9.02258 28.0847 9.03612 28.1042 9.04036C28.3929 9.11232 28.6791 9.19615 28.9695 9.25203C29.2446 9.30537 29.5249 9.31129 29.7984 9.22578C29.9897 9.16566 30.132 9.05306 30.1811 8.84477C29.9855 8.86001 29.7967 8.94722 29.6053 8.84054C29.6544 8.81599 29.7061 8.80244 29.7569 8.80413C29.9381 8.81006 30.1125 8.79312 30.2742 8.70168C30.43 8.61363 30.535 8.44683 30.5172 8.30798C30.1726 8.40534 29.988 8.40619 29.9288 8.31221C30.0574 8.29951 30.1921 8.30374 30.3148 8.26988C30.4317 8.2377 30.5451 8.17928 30.6467 8.10986C30.7568 8.03365 30.8059 7.91766 30.7754 7.77287C30.4613 7.89649 30.2564 7.92612 30.1303 7.85924C30.1751 7.84484 30.2115 7.83214 30.2479 7.82368C30.3733 7.79574 30.5028 7.77711 30.6264 7.7407C30.8372 7.67889 30.9956 7.41558 30.9642 7.16072C30.855 7.20306 30.75 7.25386 30.6383 7.28434C30.5282 7.31482 30.4122 7.32583 30.2988 7.3453C30.2954 7.33091 30.292 7.31651 30.2877 7.30127C30.3165 7.28857 30.3436 7.27164 30.3741 7.26402C30.5104 7.22761 30.651 7.20052 30.7847 7.15734C31.0142 7.08283 31.1903 6.83899 31.1624 6.64171C31.1065 6.22684 30.8542 5.90256 30.6611 5.54949ZM27.1516 5.96606C27.5674 5.47498 27.4962 5.38185 27.1449 4.91872C26.7266 5.48345 26.8172 5.5605 27.1516 5.96606ZM27.4852 6.18789C27.4793 6.69082 27.8493 6.94144 28.1075 7.30043C28.1092 6.79157 27.8815 6.45798 27.4852 6.18789ZM26.1983 7.27587C26.7139 6.68658 26.8519 6.44189 26.8054 6.21244C26.3879 6.44782 26.1788 6.86777 26.1983 7.27587Z" fill="#9B6928"/>
<path fill-rule="evenodd" clip-rule="evenodd" d="M26.9231 9.43576C27.067 9.5526 27.2008 9.55006 27.382 9.47724C27.7342 9.33585 28.1068 9.25541 28.4895 9.37988C28.7646 9.46962 29.0415 9.55344 29.3167 9.64743C29.3497 9.65928 29.3776 9.71177 29.392 9.75157C29.4487 9.91921 29.4979 10.0894 29.5546 10.257C29.5724 10.3095 29.6325 10.3561 29.6325 10.4052C29.6308 10.522 29.5546 10.5805 29.4225 10.55C29.1871 10.4958 28.9517 10.4323 28.7248 10.3519C28.4954 10.2697 28.2752 10.1512 28.0221 10.1859C27.8731 10.2062 27.7207 10.2376 27.5827 10.2951C27.3278 10.4027 27.0755 10.4255 26.8283 10.3044C26.4261 10.1055 26.0493 10.1808 25.6598 10.3476C25.4397 10.4425 25.1993 10.4941 24.9639 10.5474C24.9071 10.561 24.8182 10.5229 24.7742 10.478C24.7141 10.4162 24.7742 10.3519 24.8055 10.2816C24.8809 10.1139 24.9334 9.9353 24.985 9.75749C25.0054 9.68637 25.0282 9.65335 25.1095 9.63896C25.3212 9.60001 25.5464 9.57546 25.736 9.48317C26.1103 9.30198 26.4777 9.31045 26.8596 9.42475C26.8799 9.43067 26.9028 9.43321 26.9239 9.4366L26.9231 9.43576ZM29.5114 10.4433C29.5199 10.4289 29.5283 10.4154 29.5359 10.401C29.4699 10.3442 29.4123 10.2621 29.3361 10.2342C29.1516 10.1673 28.9424 10.1554 28.7697 10.0691C28.3235 9.84301 27.8756 9.85401 27.4319 10.0369C27.2398 10.1165 27.0746 10.1724 26.8909 10.0454C26.8706 10.031 26.8435 10.025 26.819 10.0174C26.4693 9.90736 26.123 9.82608 25.7614 9.98694C25.5498 10.0809 25.3322 10.1825 25.107 10.2172C24.9478 10.2426 24.9359 10.3502 24.8276 10.4433C25.1552 10.4425 25.4152 10.3476 25.6649 10.2282C26.0688 10.0352 26.4727 10.014 26.8816 10.1995C27.073 10.2867 27.2575 10.2977 27.4573 10.2223C27.625 10.1588 27.8003 10.1021 27.9772 10.0775C28.2947 10.0327 28.5817 10.1631 28.8637 10.2867C29.0728 10.3781 29.2845 10.4391 29.5114 10.4433ZM27.1974 10.0234C27.3202 9.97848 27.4303 9.93106 27.5454 9.89804C27.8274 9.81846 28.1161 9.76003 28.4065 9.84047C28.5919 9.89212 28.7672 9.98186 28.9492 10.0479C29.0796 10.0953 29.2142 10.1309 29.3852 10.1825C29.3429 10.0191 29.3183 9.90143 29.2819 9.78882C29.2718 9.76173 29.2261 9.73887 29.193 9.72871C29.0195 9.67621 28.8459 9.6271 28.6723 9.57884C28.4954 9.52974 28.3193 9.45862 28.1381 9.44084C27.8028 9.40782 27.5014 9.55599 27.1991 9.66775C27.1974 9.78544 27.1974 9.89889 27.1974 10.0234ZM27.1102 9.66605C27.0476 9.63642 26.99 9.60848 26.9316 9.58223C26.6318 9.451 26.3194 9.37734 26.0053 9.50264C25.7115 9.61949 25.4245 9.74649 25.1061 9.75749C25.0773 9.88365 25.0511 9.99964 25.0248 10.119C25.2289 10.1563 25.3957 10.0682 25.5498 9.97848C25.9477 9.74733 26.355 9.77866 26.7698 9.90312C26.8825 9.93699 26.9917 9.98017 27.1111 10.0225C27.1102 9.89042 27.1102 9.77697 27.1102 9.66605Z" fill="#9B6928"/>
<path fill-rule="evenodd" clip-rule="evenodd" d="M27.2973 8.4299C27.1982 8.33084 27.111 8.32491 26.9993 8.39349C26.9603 8.4172 26.8951 8.43244 26.8562 8.4172C26.5971 8.31814 26.4549 8.00317 26.4946 7.72631C26.5268 7.50702 26.6217 7.32752 26.7343 7.14633C26.7783 7.07521 26.791 6.98546 26.824 6.90588C26.8486 6.8483 26.8342 6.75686 26.9417 6.76025C26.9544 6.76025 26.973 6.71961 26.9815 6.69505C27.0179 6.58583 27.0475 6.47238 27.0907 6.36485C27.1043 6.33183 27.1534 6.3132 27.1864 6.28865C27.205 6.32251 27.2372 6.35553 27.2414 6.39109C27.2787 6.69675 27.4285 6.9516 27.5894 7.20391C27.7012 7.38002 27.7926 7.56713 27.7994 7.78219C27.8104 8.12764 27.658 8.34269 27.3252 8.45784C27.3159 8.44853 27.3066 8.43921 27.2973 8.4299ZM27.0501 8.01079C27.1618 7.64334 27.1432 7.29535 26.9434 6.98208C26.8816 7.09892 26.8147 7.22592 26.7487 7.35208C26.6352 7.56713 26.526 7.78727 26.6454 8.03196C26.6911 8.12425 26.7698 8.20892 26.8545 8.26988C26.8909 8.29697 26.9773 8.24871 27.0408 8.24702C27.1178 8.24532 27.2084 8.23517 27.2702 8.26903C27.3676 8.32407 27.4378 8.29951 27.4963 8.23093C27.5606 8.15642 27.6267 8.07345 27.6597 7.9837C27.7443 7.74832 27.6444 7.54173 27.5335 7.33853C27.393 7.08198 27.2575 6.82375 27.1331 6.59006C27.1026 6.70521 27.0238 6.85677 27.1331 7.03034C27.1906 7.12347 27.2203 7.23947 27.2423 7.34869C27.2888 7.59677 27.1847 7.80674 27.0501 8.01079Z" fill="#9B6928"/>
<path fill-rule="evenodd" clip-rule="evenodd" d="M27.2972 8.4299C27.3065 8.43921 27.315 8.44853 27.3243 8.45784C27.3598 8.61532 27.3565 8.77534 27.442 8.92859C27.5216 9.07168 27.3564 9.14958 27.2692 9.23086C27.2049 9.29097 27.1143 9.3096 27.0322 9.23848C26.9797 9.19276 26.9094 9.15804 26.8781 9.10132C26.8459 9.04543 26.8324 8.96331 26.8451 8.90065C26.8662 8.79397 26.9297 8.69406 26.9484 8.58654C26.9678 8.46631 27.0161 8.4155 27.138 8.43074C27.1905 8.43752 27.2447 8.43074 27.2972 8.4299ZM27.2049 8.54505C27.0567 8.52134 27.0389 8.58061 27.0296 8.65935C27.022 8.72708 27.0119 8.79651 26.9856 8.85917C26.9399 8.97093 26.9602 9.07422 27.0677 9.13603C27.1033 9.15635 27.182 9.16312 27.2024 9.14111C27.2565 9.0793 27.3183 9.00141 27.326 8.92521C27.3353 8.83207 27.298 8.73132 27.2692 8.63903C27.2548 8.59246 27.2134 8.55606 27.2049 8.54505Z" fill="#9B6928"/>
<path fill-rule="evenodd" clip-rule="evenodd" d="M26.9502 5.85006C27.0179 5.97537 27.0848 6.10068 27.15 6.2226C27.2186 6.0973 27.2854 5.97368 27.3532 5.85006C27.371 5.85514 27.3879 5.86107 27.4057 5.867C27.4057 5.97876 27.4065 6.09052 27.4057 6.20228C27.4023 6.46221 27.5107 6.67896 27.6665 6.87709C27.8493 7.11077 28.0864 7.30974 28.1516 7.61963C28.4462 7.51633 28.6054 7.20221 28.5368 6.88132C28.5097 6.75517 28.4945 6.62393 28.4911 6.49354C28.4843 6.23107 28.7172 6.09645 28.9644 6.22176C28.6765 6.39533 28.7316 6.65441 28.7925 6.91011C28.8501 7.15311 28.9399 7.39018 28.978 7.63571C29.0262 7.9566 29.0389 8.28681 28.8002 8.55267C28.6393 8.73132 28.4225 8.83207 28.1906 8.87525C28.0085 8.90997 27.8637 8.98109 27.7206 9.09793C27.5826 9.21054 27.4125 9.28674 27.2499 9.36379C27.1144 9.42898 26.9815 9.37733 26.8672 9.30198C26.7156 9.20122 26.5742 9.08608 26.4261 8.98024C26.3854 8.95061 26.338 8.91843 26.2906 8.91166C26.0332 8.8761 25.7927 8.79482 25.5879 8.63564C25.4202 8.50525 25.3406 8.31899 25.3093 8.10901C25.2551 7.74917 25.377 7.41896 25.4659 7.08198C25.5049 6.93212 25.5362 6.77803 25.5455 6.62308C25.5591 6.41057 25.521 6.35299 25.3525 6.22853C25.4431 6.16503 25.5887 6.14894 25.681 6.22684C25.7453 6.28102 25.8063 6.37924 25.8088 6.45883C25.8139 6.6307 25.7843 6.80512 25.7623 6.977C25.7216 7.29196 25.8935 7.48162 26.1475 7.64503C26.2017 7.33514 26.4159 7.13617 26.5979 6.92111C26.7901 6.69251 26.9112 6.44443 26.8994 6.14048C26.896 6.04988 26.8985 5.95929 26.8985 5.86954C26.9163 5.86277 26.9332 5.85599 26.9502 5.85006ZM27.2973 8.4299C27.244 8.43075 27.1906 8.43752 27.1381 8.43075C27.0162 8.4155 26.9688 8.46631 26.9485 8.58654C26.9307 8.69322 26.8672 8.79312 26.8452 8.90065C26.8325 8.96415 26.846 9.04543 26.8782 9.10132C26.9104 9.15804 26.9798 9.19276 27.0323 9.23848C27.1144 9.3096 27.205 9.29097 27.2694 9.23086C27.3566 9.14873 27.5217 9.07168 27.4421 8.92859C27.3566 8.77535 27.3591 8.61532 27.3244 8.45784C27.6571 8.34185 27.8095 8.12679 27.7985 7.78219C27.7918 7.56798 27.7003 7.38002 27.5886 7.20391C27.4285 6.9516 27.2778 6.69674 27.2406 6.39109C27.2363 6.35553 27.205 6.32251 27.1855 6.28865C27.1525 6.3132 27.1034 6.33183 27.0899 6.36485C27.0467 6.47153 27.0171 6.58498 26.9806 6.69505C26.9722 6.7196 26.9535 6.76109 26.9408 6.76025C26.8342 6.75771 26.8477 6.8483 26.8232 6.90588C26.7901 6.98462 26.7774 7.07521 26.7334 7.14633C26.6208 7.32752 26.5251 7.50702 26.4938 7.72631C26.454 8.00402 26.5963 8.31814 26.8553 8.4172C26.8951 8.43244 26.9595 8.4172 26.9984 8.39349C27.1119 8.32491 27.1991 8.33084 27.2973 8.4299Z" fill="#FDB936"/>
<path fill-rule="evenodd" clip-rule="evenodd" d="M25.5574 3.83835C25.7242 3.73337 25.8503 3.58774 26.0434 3.66902C26.1026 3.69357 26.1695 3.76808 26.1822 3.82989C26.2627 4.21005 26.327 4.5936 26.3998 4.97545C26.4091 5.02371 26.432 5.06943 26.4481 5.11684C26.4616 5.11515 26.4743 5.11346 26.487 5.11176C26.487 5.07874 26.4921 5.04572 26.487 5.01355C26.4134 4.58767 26.338 4.16179 26.2652 3.73591C26.2356 3.56573 26.3202 3.45396 26.4591 3.36929C26.5141 3.33543 26.5649 3.29309 26.6479 3.23213C26.6733 3.51408 26.6826 3.77994 26.7241 4.04071C26.7656 4.29302 26.7419 4.55719 26.824 4.80272C26.8418 4.80018 26.8596 4.79764 26.8773 4.7951C26.8655 4.62662 26.8545 4.45813 26.8418 4.28964C26.8181 3.98991 26.78 3.69103 26.7766 3.39046C26.7757 3.31511 26.8757 3.23213 26.9408 3.1627C27.0035 3.09666 27.0805 3.04417 27.1525 2.9849C27.2245 3.04502 27.2956 3.11614 27.3786 3.16948C27.5809 3.29987 27.5479 3.49968 27.5344 3.68934C27.5166 3.93657 27.4844 4.18211 27.459 4.42849C27.4463 4.54957 27.437 4.6698 27.4446 4.79426C27.5682 4.65117 27.5208 4.46744 27.5538 4.30403C27.5877 4.13385 27.5801 3.95604 27.5962 3.78248C27.6123 3.60637 27.6351 3.4311 27.6597 3.22705C27.7808 3.32357 27.9035 3.39046 27.978 3.49291C28.0314 3.56742 28.05 3.69273 28.0348 3.78756C27.9696 4.20074 27.8849 4.61138 27.8104 5.02286C27.8053 5.0508 27.8197 5.08298 27.8256 5.11261C27.8409 5.11346 27.8561 5.1143 27.8713 5.11599C27.901 4.96613 27.9315 4.81627 27.9594 4.66725C28.0127 4.38277 28.0593 4.09659 28.1211 3.81465C28.1524 3.67241 28.2913 3.60806 28.4318 3.66225C28.5343 3.70204 28.63 3.75877 28.7282 3.82312C28.4987 3.88662 28.4539 4.07458 28.4158 4.25323C28.2684 4.96359 28.1296 5.67565 27.9865 6.38771C27.9789 6.42412 27.9611 6.45798 27.9509 6.48592C27.8078 6.36739 27.6656 6.25055 27.5251 6.13201C27.5073 6.11762 27.4853 6.09476 27.4861 6.07529C27.4878 5.9305 27.4895 5.78572 27.5022 5.64178C27.5149 5.49616 27.5208 5.36069 27.4268 5.2303C27.3193 5.08128 27.2321 4.91703 27.1517 4.7841C27.0628 4.93311 26.9417 5.10584 26.8545 5.2938C26.8079 5.39455 26.8164 5.5224 26.8062 5.6384C26.8028 5.67988 26.8189 5.72307 26.8248 5.7654C26.8587 5.99316 26.8147 6.17858 26.5785 6.28526C26.4904 6.32505 26.4218 6.40634 26.3456 6.46814C26.3058 6.28272 26.2576 6.07105 26.2135 5.85769C26.0975 5.29465 25.9866 4.7316 25.8647 4.17026C25.83 4.02378 25.7716 3.87646 25.5574 3.83835Z" fill="#FDB936"/>
<path fill-rule="evenodd" clip-rule="evenodd" d="M26.2585 9.0412C25.9672 9.11148 25.6785 9.1953 25.3839 9.24949C25.0918 9.30283 24.7929 9.31722 24.5025 9.22493C24.317 9.16567 24.1697 9.05814 24.1164 8.85493C24.3111 8.87017 24.5025 8.88457 24.693 8.89981C24.6964 8.87949 24.6997 8.85832 24.704 8.838C24.665 8.82615 24.6269 8.80752 24.588 8.80329C24.4711 8.79143 24.3526 8.79228 24.2366 8.7745C23.9708 8.73386 23.8234 8.56198 23.7438 8.29867C23.9597 8.35285 24.1646 8.4172 24.3746 8.35285C24.3755 8.33507 24.3755 8.31729 24.3763 8.29951C24.2976 8.29951 24.218 8.30121 24.1392 8.29951C23.931 8.29443 23.7396 8.2377 23.6118 8.06414C23.5542 7.98624 23.5279 7.88464 23.4822 7.7805C23.7227 7.83215 23.9267 7.87617 24.1316 7.9202C24.1375 7.89649 24.1426 7.87194 24.1486 7.84908C24.0622 7.8313 23.9767 7.80421 23.8903 7.79828C23.5525 7.77626 23.2883 7.47739 23.3374 7.17766C23.5567 7.24031 23.7777 7.30212 23.9987 7.36562C24.0055 7.34446 24.0131 7.32329 24.019 7.30212C23.9564 7.2818 23.8946 7.26064 23.8319 7.24116C23.6888 7.19629 23.5398 7.16327 23.4026 7.10485C23.2299 7.03203 23.1038 6.79073 23.1605 6.53164C23.2426 6.15826 23.4915 5.87801 23.6312 5.53849C23.6456 5.54357 23.6592 5.5478 23.6727 5.55288C23.6414 5.71036 23.6151 5.86869 23.5779 6.02448C23.5389 6.18874 23.5119 6.35299 23.6135 6.50032C23.6998 6.62563 23.8531 6.70013 24.1037 6.61039C24.3839 6.50963 24.6633 6.40634 24.9402 6.29881C25.0951 6.23869 25.2348 6.24801 25.3669 6.35215C25.5193 6.47238 25.4905 6.63748 25.4592 6.78903C25.4 7.06675 25.3161 7.33853 25.2475 7.6154C25.1603 7.96677 25.2044 8.30205 25.4355 8.58654C25.6015 8.79143 25.8462 8.88457 26.0934 8.95992C26.1467 8.97601 26.2026 8.98448 26.2568 8.99633C26.2568 9.00988 26.2576 9.02512 26.2585 9.0412Z" fill="#FDB936"/>
<path fill-rule="evenodd" clip-rule="evenodd" d="M30.6611 5.54949C30.8542 5.90256 31.1056 6.22599 31.1632 6.6434C31.1903 6.83983 31.015 7.08452 30.7856 7.15903C30.6518 7.20221 30.5113 7.22931 30.375 7.26571C30.3453 7.27333 30.3182 7.29027 30.2886 7.30297C30.2928 7.31821 30.2962 7.3326 30.2996 7.347C30.4139 7.32752 30.5291 7.31652 30.6391 7.28604C30.7509 7.25471 30.8559 7.20475 30.9651 7.16242C30.9956 7.41727 30.8381 7.67974 30.6273 7.74239C30.5037 7.7788 30.3741 7.79658 30.2488 7.82537C30.2124 7.83299 30.176 7.84654 30.1311 7.86093C30.2564 7.92782 30.4622 7.89903 30.7763 7.77457C30.8068 7.91935 30.7577 8.03619 30.6476 8.11155C30.5468 8.18098 30.4325 8.2394 30.3157 8.27157C30.1921 8.30544 30.0583 8.3012 29.9296 8.3139C29.9889 8.40704 30.1734 8.40619 30.518 8.30967C30.5358 8.44937 30.43 8.61617 30.2751 8.70338C30.1133 8.79482 29.9389 8.81091 29.7577 8.80582C29.7069 8.80413 29.6553 8.81768 29.6062 8.84223C29.7975 8.94807 29.9855 8.86171 30.1819 8.84647C30.132 9.0556 29.9897 9.16736 29.7992 9.22747C29.5266 9.31299 29.2463 9.30706 28.9703 9.25372C28.6791 9.19784 28.3929 9.11402 28.105 9.04205C28.0864 9.03781 28.0678 9.02427 28.0288 9.0048C28.3006 8.9396 28.5402 8.86086 28.7493 8.69999C28.9348 8.55521 29.027 8.3664 29.0719 8.14203C29.1464 7.77118 29.0076 7.4342 28.9161 7.08791C28.8763 6.93382 28.845 6.77464 28.8365 6.61631C28.823 6.36061 29.0499 6.1972 29.2929 6.28103C29.5579 6.37331 29.8153 6.48338 30.0803 6.57567C30.2115 6.62224 30.3436 6.67643 30.4926 6.63324C30.6569 6.58498 30.7975 6.36823 30.761 6.19805C30.7162 5.98807 30.673 5.77725 30.6307 5.56643C30.64 5.55965 30.6518 5.55457 30.6611 5.54949Z" fill="#FDB936"/>
<path fill-rule="evenodd" clip-rule="evenodd" d="M27.1516 5.96606C26.8171 5.5605 26.7265 5.48345 27.1448 4.91872C27.4962 5.38185 27.5673 5.47499 27.1516 5.96606Z" fill="#FDB936"/>
<path fill-rule="evenodd" clip-rule="evenodd" d="M27.4852 6.18789C27.8814 6.45713 28.1083 6.79157 28.1075 7.30043C27.8501 6.94143 27.4801 6.69082 27.4852 6.18789Z" fill="#FDB936"/>
<path fill-rule="evenodd" clip-rule="evenodd" d="M26.1983 7.27588C26.1788 6.86778 26.3879 6.44782 26.8053 6.21244C26.8519 6.44189 26.7139 6.68659 26.1983 7.27588Z" fill="#FDB936"/>
<path fill-rule="evenodd" clip-rule="evenodd" d="M29.5112 10.4433C29.2843 10.4391 29.0718 10.3781 28.8635 10.2867C28.5816 10.1631 28.2945 10.0327 27.977 10.0775C27.8001 10.1021 27.6248 10.1597 27.4572 10.2223C27.2574 10.2977 27.0728 10.2867 26.8814 10.1995C26.4725 10.0132 26.0686 10.0352 25.6648 10.2282C25.415 10.3476 25.1551 10.4425 24.8274 10.4433C24.9358 10.3502 24.9476 10.2426 25.1068 10.2172C25.332 10.1817 25.5496 10.0809 25.7613 9.98694C26.1228 9.82607 26.4691 9.90735 26.8188 10.0174C26.8433 10.025 26.8704 10.031 26.8907 10.0454C27.0745 10.1715 27.2396 10.1156 27.4318 10.0369C27.8754 9.85401 28.3225 9.84301 28.7695 10.0691C28.9423 10.1563 29.1514 10.1681 29.336 10.2342C29.413 10.2621 29.4697 10.3434 29.5358 10.401C29.5282 10.4154 29.5197 10.4298 29.5112 10.4433Z" fill="#FDB936"/>
<path fill-rule="evenodd" clip-rule="evenodd" d="M27.1973 10.0234C27.1973 9.89889 27.1973 9.78544 27.1973 9.66775C27.4995 9.55683 27.8009 9.40782 28.1362 9.44084C28.3174 9.45862 28.4935 9.52974 28.6705 9.57884C28.8441 9.6271 29.0176 9.67621 29.1912 9.72871C29.2242 9.73887 29.2708 9.76173 29.2801 9.78882C29.3165 9.90143 29.3411 10.0191 29.3834 10.1825C29.2132 10.1309 29.0786 10.0953 28.9474 10.0479C28.7653 9.98186 28.5901 9.89212 28.4046 9.84047C28.1142 9.76004 27.8255 9.81846 27.5436 9.89804C27.4301 9.93107 27.3192 9.97848 27.1973 10.0234Z" fill="#FDB936"/>
<path fill-rule="evenodd" clip-rule="evenodd" d="M27.1101 9.66605C27.1101 9.77612 27.1101 9.89042 27.1101 10.0217C26.9908 9.97933 26.8815 9.9353 26.7689 9.90228C26.3532 9.77866 25.946 9.74649 25.5489 9.97763C25.3948 10.0674 25.2288 10.1554 25.0239 10.1182C25.0502 9.9988 25.0773 9.88365 25.1052 9.75665C25.4236 9.74564 25.7106 9.61864 26.0044 9.5018C26.3185 9.37733 26.6309 9.45015 26.9306 9.58139C26.9899 9.60848 27.0475 9.63726 27.1101 9.66605Z" fill="#FDB936"/>
<path fill-rule="evenodd" clip-rule="evenodd" d="M27.0499 8.0108C27.1846 7.80675 27.2887 7.59677 27.2396 7.34784C27.2176 7.23862 27.1879 7.12263 27.1304 7.02949C27.022 6.85592 27.1007 6.70521 27.1304 6.58922C27.2548 6.82206 27.3903 7.08114 27.5308 7.33768C27.6418 7.54089 27.7417 7.74748 27.657 7.98285C27.624 8.07345 27.5579 8.15558 27.4936 8.23008C27.4352 8.29867 27.3657 8.32322 27.2675 8.26819C27.2057 8.23347 27.116 8.24448 27.0381 8.24617C26.9746 8.24702 26.8882 8.29613 26.8518 8.26903C26.768 8.20807 26.6884 8.1234 26.6427 8.03111C26.5225 7.78642 26.6317 7.56629 26.746 7.35123C26.8129 7.22508 26.8797 7.09807 26.9407 6.98123C27.1431 7.2945 27.1625 7.64334 27.0499 8.0108Z" fill="#FDB936"/>
<path fill-rule="evenodd" clip-rule="evenodd" d="M27.2049 8.54505C27.2133 8.55605 27.2548 8.59331 27.2692 8.63903C27.2988 8.73216 27.3353 8.83292 27.3259 8.9252C27.3183 9.00141 27.2565 9.0793 27.2023 9.14111C27.1828 9.16312 27.1041 9.15635 27.0677 9.13603C26.9602 9.07422 26.9399 8.97093 26.9856 8.85916C27.011 8.79651 27.022 8.72708 27.0296 8.65935C27.0389 8.58061 27.0567 8.52049 27.2049 8.54505Z" fill="#FDB936"/>
</g>
<defs>
<clipPath id="clip0_990_11101">
<rect width="54" height="58" fill="white"/>
</clipPath>
</defs>
</svg>
