<svg width="41" height="41" viewBox="0 0 41 41" fill="none" xmlns="http://www.w3.org/2000/svg">
<path d="M11.2146 12.553L11.115 28.9992L30.5684 29.196V12.329C30.5684 12.329 27.4829 7.36534 20.3578 7.069C13.2326 6.77266 11.2146 12.553 11.2146 12.553Z" fill="#211413"/>
<path d="M17.9124 24.4569V30.7144H23.8765V24.6098L17.9124 24.4569Z" fill="#F18C81"/>
<path d="M18.2043 30.7145H25.7035L28.914 39.716H19.0234L18.2043 30.7145Z" fill="#F1583D"/>
<path d="M17.7642 26.9243L20.7797 39.716H4.04613C4.04613 39.716 2.09741 39.716 2.09741 37.4561C2.09741 35.5246 2.09741 23.7131 2.09741 23.7131H7.37401L7.40423 31.2698C7.40423 31.2698 8.98549 26.3191 17.7642 26.9243Z" fill="#FDB936"/>
<path d="M12.0111 39.716V32.0705C12.0111 31.8234 11.8108 31.6224 11.5631 31.6224C11.3153 31.6224 11.115 31.8234 11.115 32.0705V39.7154L12.0111 39.716Z" fill="#F1583D"/>
<path opacity="0.3" d="M6.36764 37.2967C4.17119 37.2866 2.85959 36.3288 2.09741 35.3829C2.09741 36.3383 2.09741 37.0833 2.09741 37.4567C2.09741 39.7166 4.04613 39.7166 4.04613 39.7166H20.7797H28.9136L28.0341 37.2499C22.2526 37.356 9.67537 37.3109 6.36764 37.2967Z" fill="black"/>
<path d="M5.35465 16.6159V14.1379C5.35465 14.1379 5.35702 12.5934 7.04141 12.5792C8.73587 12.5656 8.73587 14.2304 8.73587 15.0826C8.73587 15.9349 8.73587 21.5096 8.73587 21.5096C8.73587 21.5096 8.50117 25.0669 4.92793 25.1587C1.35468 25.2506 0.879946 21.4118 0.879946 21.4118L0.865723 17.9571C0.865723 17.9571 1.021 16.6159 2.42861 16.6159C3.83621 16.6159 5.35465 16.6159 5.35465 16.6159Z" fill="#F9BBB7"/>
<path d="M4.8379 19.5277C4.8379 19.5277 3.25367 19.6309 3.33191 21.2649C3.39829 22.6505 5.19054 22.6547 5.73521 22.6239H5.73639C5.96102 22.6417 6.15127 22.5883 6.15127 22.2066C6.15127 21.9915 5.59534 21.9915 5.59534 21.9915C4.44555 21.9915 4.0929 21.4859 4.05793 21.3064C4.00282 20.5661 4.81774 20.1358 5.31796 20.1358C5.81818 20.1358 8.13258 20.1358 8.13258 20.1358C8.13258 20.1358 8.51723 23.862 6.47427 24.8387C8.56701 23.9515 8.73474 21.5102 8.73474 21.5102C8.73474 21.5102 8.73474 20.5981 8.73474 19.459L4.8379 19.5277Z" fill="#F18C81"/>
<path d="M7.04137 12.5798C6.46351 12.5845 6.08716 12.7706 5.83765 13.0119C6.41432 12.6746 8.20776 12.7748 8.20776 13.8404C8.20776 15.4561 8.20776 19.7725 8.20776 19.7725H8.73643C8.73643 18.0597 8.73643 15.6232 8.73643 15.0833C8.73583 14.231 8.73583 12.5656 7.04137 12.5798Z" fill="#F18C81"/>
<path d="M5.30845 17.9174C5.30845 17.9174 5.1022 19.2621 4.33646 19.2639C4.06324 19.2639 3.59028 19.2752 3.09599 19.2876C2.60229 19.2752 2.12874 19.2639 1.85552 19.2639C1.08978 19.2615 0.883531 17.9174 0.883531 17.9174C0.759662 19.9662 1.77432 19.8104 1.77432 19.8104C1.77432 19.8104 2.32729 19.8299 2.99701 19.8353V19.837C3.0308 19.837 3.06221 19.8364 3.0954 19.8364C3.12859 19.8364 3.16 19.837 3.19378 19.837V19.8353C3.86351 19.8299 4.41647 19.8104 4.41647 19.8104C4.41647 19.8104 5.43232 19.9662 5.30845 17.9174Z" fill="#F18C81"/>
<path d="M4.61084 19.4038C4.61084 19.4038 4.87577 19.1964 4.90007 18.4058C4.92436 17.6151 4.83783 16.6135 4.83783 16.6135L5.35465 16.6159L5.28412 18.7762C5.28412 18.7762 4.93859 19.4021 4.61084 19.4038Z" fill="#F18C81"/>
<path d="M13.1923 10.3785C13.1923 10.3785 9.65344 25.9582 20.9119 25.7994C32.1757 25.64 28.4893 10.3785 28.4893 10.3785H13.1923Z" fill="#F9BBB7"/>
<path d="M13.2901 11.9236C13.2901 11.9236 9.73048 11.9609 9.65403 15.5407C9.57757 19.1205 13.1917 19.2319 13.1917 19.2319L13.2901 11.9236Z" fill="#F9BBB7"/>
<path d="M13.2481 13.8403C13.2481 13.8403 11.4707 13.8587 11.4327 15.6462C11.3948 17.4337 13.1989 17.4888 13.1989 17.4888L13.2481 13.8403Z" fill="#F18C81"/>
<path d="M28.4473 19.3184C28.4473 19.3184 32.0069 19.2811 32.0833 15.7013C32.1598 12.1216 28.5451 12.0101 28.5451 12.0101L28.4473 19.3184Z" fill="#F9BBB7"/>
<path d="M28.4893 17.4017C28.4893 17.4017 30.2673 17.3833 30.3046 15.5958C30.342 13.8083 28.5385 13.7532 28.5385 13.7532L28.4893 17.4017Z" fill="#F18C81"/>
<path d="M12.0887 12.7765C12.0887 12.7765 16.1397 12.8873 18.6165 10.2677C18.6165 10.2677 20.8147 13.2957 30.1944 13.0491C30.1944 13.0491 30.5002 5.93347 25.1727 4.67403C18.025 2.98372 11.0972 3.97882 12.0887 12.7765Z" fill="#F18C81"/>
<path d="M11.282 13.3787C11.282 13.3787 17.0642 12.1666 18.5808 9.53159C18.5808 9.53159 20.913 13.1937 30.5808 13.0456C30.5808 13.0456 32.0838 0.263916 20.8609 0.263916C9.46666 0.263323 11.282 13.3787 11.282 13.3787Z" fill="#4D2F2B"/>
<path d="M23.5388 15.9467C23.5388 15.9467 23.3817 15.645 23.6846 15.3173C23.9874 14.9895 25.219 14.2487 26.3516 15.3754C26.3516 15.3754 26.6669 15.7108 26.3226 16.1287C25.9782 16.5465 25.4578 16.0605 25.4578 16.0605C25.4578 16.0605 24.8847 15.6747 24.4544 16.1287C24.0248 16.5832 23.5731 16.0611 23.5388 15.9467Z" fill="#4D2F2B"/>
<path d="M20.8408 22.094C21.3043 22.094 21.7619 22.0051 22.1904 21.8261C22.6183 21.6483 23.0053 21.3887 23.3307 21.0592C23.435 20.9561 23.4931 20.8156 23.4931 20.6692C23.4931 20.5228 23.4344 20.3823 23.3307 20.2792C23.2275 20.1749 23.0871 20.1168 22.9407 20.1168C22.7949 20.1168 22.6538 20.1755 22.5507 20.2792C22.0955 20.7302 21.4821 20.9833 20.8414 20.9833C20.2019 20.9833 19.5867 20.7296 19.1316 20.2792C19.029 20.1749 18.888 20.1168 18.7416 20.1168C18.5952 20.1168 18.4547 20.1755 18.3516 20.2792C18.2491 20.3823 18.1892 20.5228 18.1892 20.6692C18.1892 20.8156 18.2491 20.9561 18.3516 21.0592C18.677 21.3899 19.064 21.6524 19.4925 21.8314C19.9192 22.0104 20.3786 22.1023 20.8414 22.1023L20.8408 22.094Z" fill="#4D2F2B"/>
<path d="M18.1537 15.9467C18.1537 15.9467 18.3107 15.645 18.0079 15.3173C17.705 14.9895 16.4734 14.2487 15.3408 15.3754C15.3408 15.3754 15.0249 15.7108 15.3693 16.1287C15.7136 16.5465 16.234 16.0605 16.234 16.0605C16.234 16.0605 16.8065 15.6747 17.2368 16.1287C17.6671 16.5827 18.1199 16.0611 18.1537 15.9467Z" fill="#4D2F2B"/>
<path d="M21.3966 17.8629V17.3952L21.396 16.8701C21.396 16.8701 21.4417 16.2573 20.8407 16.2561C20.2848 16.2549 20.2854 16.8701 20.2854 16.8701V17.3952V17.5321V17.9998H20.2859V18.5249C20.2859 18.5249 20.2403 19.1377 20.8413 19.1389C21.3972 19.1401 21.3966 18.5249 21.3966 18.5249V17.9998V17.8629Z" fill="#4D2F2B"/>
<g opacity="0.4">
<path d="M16.7021 19.1241C18.7214 19.1241 20.3583 17.4871 20.3583 15.4679C20.3583 13.4486 18.7214 11.8116 16.7021 11.8116C14.6828 11.8116 13.0459 13.4486 13.0459 15.4679C13.0459 17.4871 14.6828 19.1241 16.7021 19.1241Z" fill="#1F9FDA"/>
<path opacity="0.5" d="M13.3992 17.0278C13.7429 17.7538 14.3154 18.3483 15.0273 18.7157L18.0961 12.0884C17.6664 11.9112 17.1953 11.8116 16.7016 11.8116C16.3738 11.8116 16.0579 11.8591 15.7551 11.9397L13.3992 17.0278Z" fill="white"/>
<path opacity="0.5" d="M18.5905 12.3416L15.5388 18.9315C15.9045 19.0542 16.2951 19.1235 16.7022 19.1235C16.7775 19.1235 16.851 19.1164 16.9245 19.1123L19.6259 13.2786C19.3444 12.9046 18.9935 12.5851 18.5905 12.3416Z" fill="white"/>
</g>
<g opacity="0.4">
<path d="M24.9914 19.1994C27.0107 19.1994 28.6476 17.5625 28.6476 15.5432C28.6476 13.5239 27.0107 11.887 24.9914 11.887C22.9721 11.887 21.3352 13.5239 21.3352 15.5432C21.3352 17.5625 22.9721 19.1994 24.9914 19.1994Z" fill="#1F9FDA"/>
<path opacity="0.5" d="M21.6433 17.0089C21.9693 17.7527 22.5353 18.3685 23.2447 18.7549L26.31 12.1353C25.9011 11.9764 25.4578 11.8864 24.9913 11.8864C24.6274 11.8864 24.276 11.9415 23.9441 12.0404L21.6433 17.0089Z" fill="white"/>
<path opacity="0.5" d="M26.8102 12.3748L23.752 18.9795C24.1396 19.1188 24.555 19.1994 24.9912 19.1994C25.0357 19.1994 25.0784 19.1941 25.1228 19.1923L27.8604 13.281C27.5718 12.9159 27.2161 12.6083 26.8102 12.3748Z" fill="white"/>
</g>
<path d="M16.7021 19.0855C18.6814 19.0855 20.286 17.481 20.286 15.5016C20.286 13.5223 18.6814 11.9177 16.7021 11.9177C14.7227 11.9177 13.1182 13.5223 13.1182 15.5016C13.1182 17.481 14.7227 19.0855 16.7021 19.0855Z" stroke="#263E8C" stroke-miterlimit="10"/>
<path d="M25.0268 19.0855C27.0061 19.0855 28.6107 17.481 28.6107 15.5016C28.6107 13.5223 27.0061 11.9177 25.0268 11.9177C23.0474 11.9177 21.4429 13.5223 21.4429 15.5016C21.4429 17.481 23.0474 19.0855 25.0268 19.0855Z" stroke="#263E8C" stroke-miterlimit="10"/>
<path d="M21.4963 14.9534H20.1907V15.8424H21.4963V14.9534Z" fill="#263E8C"/>
<path d="M21.5212 27.3154V24.915C21.5212 24.915 21.5663 24.5535 22.1287 24.6163C22.6912 24.6804 30.7042 26.9562 30.7042 26.9562C30.7042 26.9562 31.3757 27.2401 31.4124 28.1528C31.4492 29.0656 31.3686 29.7951 31.3686 29.7951L21.5212 27.3154Z" fill="#EDEDED"/>
<path d="M40.8483 27.4624V25.0621C40.8483 25.0621 40.8032 24.7011 40.2408 24.7639C39.6783 24.8274 32.0458 26.9758 32.0458 26.9758C32.0458 26.9758 31.4419 27.2022 31.4129 28.1523C31.385 29.0294 31.385 29.8734 31.385 29.8734L40.8483 27.4624Z" fill="#D6D6D6"/>
<path d="M21.5212 27.0541L21.3825 37.7732C21.3825 37.7732 21.3576 38.504 21.8762 38.6605C22.3948 38.8175 30.7118 40.3792 30.7118 40.3792V29.6061L21.5212 27.0541Z" fill="#263E8C"/>
<path d="M40.8406 27.271L40.8791 38.0968C40.8791 38.0968 40.9034 38.827 40.3848 38.9835C39.8662 39.1405 32.2195 40.3792 32.2195 40.3792V29.6002L40.8406 27.271Z" fill="#151E3C"/>
<path d="M32.2197 29.6002H30.7036V40.3792H32.2197V29.6002Z" fill="#23335E"/>
</svg>
