<?xml version="1.0" encoding="utf-8"?>
<!-- Generator: Adobe Illustrator 25.4.1, SVG Export Plug-In . SVG Version: 6.00 Build 0)  -->
<svg version="1.1" id="Layer_1" xmlns="http://www.w3.org/2000/svg" xmlns:xlink="http://www.w3.org/1999/xlink" x="0px" y="0px"
	 viewBox="0 0 1920 1080" style="enable-background:new 0 0 1920 1080;" xml:space="preserve">
<style type="text/css">
	
		.st0{clip-path:url(#SVGID_00000120553056849583283700000005269779876904924567_);fill:url(#SVGID_00000083798092096412397340000009465322579480903613_);}
	
		.st1{clip-path:url(#SVGID_00000078735566550072137930000016905019891523800730_);fill:url(#SVGID_00000090252510136960613480000001402830628580168861_);}
	
		.st2{clip-path:url(#SVGID_00000087405727092946826540000010218497387630243251_);fill:url(#SVGID_00000085227002874749948870000017253293699549533863_);}
	
		.st3{clip-path:url(#SVGID_00000075857541666707713130000008581213616599125666_);fill:url(#SVGID_00000124864654789124005820000002874655505763390650_);}
	
		.st4{clip-path:url(#SVGID_00000072266074360394955850000005962639126718237313_);fill:url(#SVGID_00000171695851169419498300000006637979519539925922_);}
	
		.st5{clip-path:url(#SVGID_00000127739444746991172260000013672268923237174443_);fill:url(#SVGID_00000011746709347912955410000003596583278040506520_);}
	
		.st6{clip-path:url(#SVGID_00000026881654451125525240000013553420194383505317_);fill:url(#SVGID_00000000924024002140504680000016862361385625719170_);}
	
		.st7{clip-path:url(#SVGID_00000021107288653463198880000017770649944046279314_);fill:url(#SVGID_00000032650020068649281940000008206524540424854715_);}
</style>
<g>
	<g>
		<defs>
			<path id="SVGID_1_" d="M249.02,577.31h73.77v122.25c-16.86,12.09-36.25,21.36-58.18,27.82c-21.92,6.46-43.84,9.7-65.76,9.7
				c-30.92,0-58.74-6.53-83.47-19.6c-24.73-13.07-44.13-31.26-58.18-54.59c-14.06-23.32-21.08-49.74-21.08-79.25
				s7.02-55.92,21.08-79.25c14.05-23.32,33.58-41.52,58.6-54.59c25.01-13.07,53.25-19.6,84.73-19.6c27.54,0,52.27,4.64,74.19,13.91
				c21.92,9.27,40.19,22.63,54.8,40.05l-53.12,48.06c-19.96-21.92-43.84-32.88-71.66-32.88c-25.29,0-45.67,7.66-61.13,22.98
				c-15.46,15.32-23.19,35.77-23.19,61.34c0,16.3,3.51,30.84,10.54,43.63c7.02,12.79,16.86,22.76,29.51,29.93
				c12.65,7.17,27.12,10.75,43.42,10.75c16.02,0,31.05-3.23,45.11-9.7V577.31z"/>
		</defs>
		<clipPath id="SVGID_00000173878839647427026480000015173013347009015994_">
			<use xlink:href="#SVGID_1_"  style="overflow:visible;"/>
		</clipPath>
		
			<linearGradient id="SVGID_00000119810966883517621480000004869305231557297338_" gradientUnits="userSpaceOnUse" x1="-49.3336" y1="565.0838" x2="1998.4634" y2="565.0838">
			<stop  offset="0" style="stop-color:#D2002D"/>
			<stop  offset="0.0351" style="stop-color:#D40530"/>
			<stop  offset="0.3292" style="stop-color:#E72D45"/>
			<stop  offset="0.598" style="stop-color:#F44A55"/>
			<stop  offset="0.8304" style="stop-color:#FC5C5F"/>
			<stop  offset="1" style="stop-color:#FF6262"/>
		</linearGradient>
		
			<rect x="-49.33" y="254.58" style="clip-path:url(#SVGID_00000173878839647427026480000015173013347009015994_);fill:url(#SVGID_00000119810966883517621480000004869305231557297338_);" width="2047.8" height="621.02"/>
	</g>
	<g>
		<defs>
			<path id="SVGID_00000070088035239766564520000006174533474408210835_" d="M508.27,652.77h-45.53v78.41h-83.47V436.09h134.9
				c26.7,0,49.88,4.43,69.56,13.28c19.67,8.85,34.84,21.5,45.53,37.94c10.68,16.44,16.02,35.77,16.02,57.96
				c0,21.36-4.99,39.98-14.97,55.86c-9.98,15.88-24.24,28.32-42.79,37.31l63.66,92.74h-89.37L508.27,652.77z M547.9,513.23
				c-8.71-7.59-21.64-11.38-38.78-11.38h-46.37v86.42h46.37c17.14,0,30.07-3.72,38.78-11.17c8.71-7.44,13.07-18.05,13.07-31.83
				C560.96,531.5,556.6,520.82,547.9,513.23z"/>
		</defs>
		<clipPath id="SVGID_00000131338528583911269370000008080441999054145204_">
			<use xlink:href="#SVGID_00000070088035239766564520000006174533474408210835_"  style="overflow:visible;"/>
		</clipPath>
		
			<linearGradient id="SVGID_00000052802708218416794080000017801050998569962410_" gradientUnits="userSpaceOnUse" x1="-49.3336" y1="565.0838" x2="1998.4634" y2="565.0838">
			<stop  offset="0" style="stop-color:#D2002D"/>
			<stop  offset="0.0351" style="stop-color:#D40530"/>
			<stop  offset="0.3292" style="stop-color:#E72D45"/>
			<stop  offset="0.598" style="stop-color:#F44A55"/>
			<stop  offset="0.8304" style="stop-color:#FC5C5F"/>
			<stop  offset="1" style="stop-color:#FF6262"/>
		</linearGradient>
		
			<rect x="-49.33" y="254.58" style="clip-path:url(#SVGID_00000131338528583911269370000008080441999054145204_);fill:url(#SVGID_00000052802708218416794080000017801050998569962410_);" width="2047.8" height="621.02"/>
	</g>
	<g>
		<defs>
			<path id="SVGID_00000108305326860789162170000016497104401209497015_" d="M892.3,673.84H767.52l-23.19,57.33h-85.15
				l130.26-295.09h82.2l130.68,295.09h-86.84L892.3,673.84z M867.86,612.3l-37.94-94.43l-37.94,94.43H867.86z"/>
		</defs>
		<clipPath id="SVGID_00000060727472085847494550000012120710452678001300_">
			<use xlink:href="#SVGID_00000108305326860789162170000016497104401209497015_"  style="overflow:visible;"/>
		</clipPath>
		
			<linearGradient id="SVGID_00000157308004251682445710000017267507517395289269_" gradientUnits="userSpaceOnUse" x1="-49.3336" y1="565.0838" x2="1998.4634" y2="565.0838">
			<stop  offset="0" style="stop-color:#D2002D"/>
			<stop  offset="0.0351" style="stop-color:#D40530"/>
			<stop  offset="0.3292" style="stop-color:#E72D45"/>
			<stop  offset="0.598" style="stop-color:#F44A55"/>
			<stop  offset="0.8304" style="stop-color:#FC5C5F"/>
			<stop  offset="1" style="stop-color:#FF6262"/>
		</linearGradient>
		
			<rect x="-49.33" y="254.58" style="clip-path:url(#SVGID_00000060727472085847494550000012120710452678001300_);fill:url(#SVGID_00000157308004251682445710000017267507517395289269_);" width="2047.8" height="621.02"/>
	</g>
	<g>
		<defs>
			<path id="SVGID_00000058565746524607935930000006819881541025807785_" d="M1271.01,436.09l-126.47,295.09h-82.2L936.29,436.09
				h90.21l80.1,192.23l81.78-192.23H1271.01z"/>
		</defs>
		<clipPath id="SVGID_00000179647747428798186140000003226669987114162579_">
			<use xlink:href="#SVGID_00000058565746524607935930000006819881541025807785_"  style="overflow:visible;"/>
		</clipPath>
		
			<linearGradient id="SVGID_00000008108377163746175030000005416376989366980503_" gradientUnits="userSpaceOnUse" x1="-49.3336" y1="565.0838" x2="1998.4634" y2="565.0838">
			<stop  offset="0" style="stop-color:#D2002D"/>
			<stop  offset="0.0351" style="stop-color:#D40530"/>
			<stop  offset="0.3292" style="stop-color:#E72D45"/>
			<stop  offset="0.598" style="stop-color:#F44A55"/>
			<stop  offset="0.8304" style="stop-color:#FC5C5F"/>
			<stop  offset="1" style="stop-color:#FF6262"/>
		</linearGradient>
		
			<rect x="-49.33" y="254.58" style="clip-path:url(#SVGID_00000179647747428798186140000003226669987114162579_);fill:url(#SVGID_00000008108377163746175030000005416376989366980503_);" width="2047.8" height="621.02"/>
	</g>
	<g>
		<defs>
			<path id="SVGID_00000025415690619497912550000005430747376881056150_" d="M1291.66,436.09h83.47v295.09h-83.47V436.09z"/>
		</defs>
		<clipPath id="SVGID_00000010998859862749363990000011470332612755941514_">
			<use xlink:href="#SVGID_00000025415690619497912550000005430747376881056150_"  style="overflow:visible;"/>
		</clipPath>
		
			<linearGradient id="SVGID_00000023270677680900209840000000952139426426053256_" gradientUnits="userSpaceOnUse" x1="-49.3336" y1="565.0838" x2="1998.4634" y2="565.0838">
			<stop  offset="0" style="stop-color:#D2002D"/>
			<stop  offset="0.0351" style="stop-color:#D40530"/>
			<stop  offset="0.3292" style="stop-color:#E72D45"/>
			<stop  offset="0.598" style="stop-color:#F44A55"/>
			<stop  offset="0.8304" style="stop-color:#FC5C5F"/>
			<stop  offset="1" style="stop-color:#FF6262"/>
		</linearGradient>
		
			<rect x="-49.33" y="254.58" style="clip-path:url(#SVGID_00000010998859862749363990000011470332612755941514_);fill:url(#SVGID_00000023270677680900209840000000952139426426053256_);" width="2047.8" height="621.02"/>
	</g>
	<g>
		<defs>
			<path id="SVGID_00000050629632019703570640000013483055302550559371_" d="M1477.72,717.27c-24.87-13.21-44.41-31.47-58.6-54.8
				c-14.19-23.32-21.29-49.6-21.29-78.83c0-29.23,7.1-55.5,21.29-78.83c14.19-23.32,33.72-41.59,58.6-54.8
				c24.87-13.21,52.9-19.81,84.1-19.81s59.23,6.61,84.1,19.81c24.87,13.21,44.4,31.48,58.6,54.8c14.19,23.33,21.29,49.6,21.29,78.83
				c0,29.23-7.1,55.51-21.29,78.83c-14.19,23.33-33.72,41.6-58.6,54.8c-24.87,13.21-52.9,19.81-84.1,19.81
				S1502.59,730.48,1477.72,717.27z M1602.29,657.41c12.08-7.02,21.64-16.93,28.67-29.72c7.02-12.78,10.54-27.47,10.54-44.05
				c0-16.58-3.52-31.26-10.54-44.05c-7.03-12.79-16.59-22.69-28.67-29.72c-12.09-7.02-25.58-10.54-40.47-10.54
				c-14.9,0-28.39,3.52-40.47,10.54c-12.09,7.03-21.64,16.94-28.67,29.72c-7.03,12.79-10.54,27.47-10.54,44.05
				c0,16.58,3.51,31.27,10.54,44.05c7.02,12.79,16.58,22.7,28.67,29.72c12.08,7.03,25.57,10.54,40.47,10.54
				C1576.71,667.94,1590.2,664.43,1602.29,657.41z"/>
		</defs>
		<clipPath id="SVGID_00000043441695877106361050000001104320647592980147_">
			<use xlink:href="#SVGID_00000050629632019703570640000013483055302550559371_"  style="overflow:visible;"/>
		</clipPath>
		
			<linearGradient id="SVGID_00000019675550965515731610000009038821213508130721_" gradientUnits="userSpaceOnUse" x1="-49.3336" y1="565.0838" x2="1998.4634" y2="565.0838">
			<stop  offset="0" style="stop-color:#D2002D"/>
			<stop  offset="0.0351" style="stop-color:#D40530"/>
			<stop  offset="0.3292" style="stop-color:#E72D45"/>
			<stop  offset="0.598" style="stop-color:#F44A55"/>
			<stop  offset="0.8304" style="stop-color:#FC5C5F"/>
			<stop  offset="1" style="stop-color:#FF6262"/>
		</linearGradient>
		
			<rect x="-49.33" y="254.58" style="clip-path:url(#SVGID_00000043441695877106361050000001104320647592980147_);fill:url(#SVGID_00000019675550965515731610000009038821213508130721_);" width="2047.8" height="621.02"/>
	</g>
	<g>
		<defs>
			<path id="SVGID_00000085231030249202495560000014900489743039121281_" d="M1711.1,363.66h-28.4v-20.74h82.82v20.74h-28.27v71.72
				h-26.15V363.66z"/>
		</defs>
		<clipPath id="SVGID_00000029736691051833076150000004019099503661673354_">
			<use xlink:href="#SVGID_00000085231030249202495560000014900489743039121281_"  style="overflow:visible;"/>
		</clipPath>
		
			<linearGradient id="SVGID_00000123403203202025010480000001854347526181896072_" gradientUnits="userSpaceOnUse" x1="-49.3336" y1="565.0838" x2="1998.4634" y2="565.0838">
			<stop  offset="0" style="stop-color:#D2002D"/>
			<stop  offset="0.0351" style="stop-color:#D40530"/>
			<stop  offset="0.3292" style="stop-color:#E72D45"/>
			<stop  offset="0.598" style="stop-color:#F44A55"/>
			<stop  offset="0.8304" style="stop-color:#FC5C5F"/>
			<stop  offset="1" style="stop-color:#FF6262"/>
		</linearGradient>
		
			<rect x="-49.33" y="254.58" style="clip-path:url(#SVGID_00000029736691051833076150000004019099503661673354_);fill:url(#SVGID_00000123403203202025010480000001854347526181896072_);" width="2047.8" height="621.02"/>
	</g>
	<g>
		<defs>
			<path id="SVGID_00000183965914100045297940000007042959845306854815_" d="M1859.83,435.38l-0.26-49l-23.78,39.89h-11.62
				l-23.64-38.57v47.68h-24.17v-92.46h21.53l32.49,53.36l31.7-53.36h21.53l0.26,92.46H1859.83z"/>
		</defs>
		<clipPath id="SVGID_00000178179502396039097690000000990459124950618258_">
			<use xlink:href="#SVGID_00000183965914100045297940000007042959845306854815_"  style="overflow:visible;"/>
		</clipPath>
		
			<linearGradient id="SVGID_00000042729322292669987170000002738315481134537387_" gradientUnits="userSpaceOnUse" x1="-49.3336" y1="565.0838" x2="1998.4634" y2="565.0838">
			<stop  offset="0" style="stop-color:#D2002D"/>
			<stop  offset="0.0351" style="stop-color:#D40530"/>
			<stop  offset="0.3292" style="stop-color:#E72D45"/>
			<stop  offset="0.598" style="stop-color:#F44A55"/>
			<stop  offset="0.8304" style="stop-color:#FC5C5F"/>
			<stop  offset="1" style="stop-color:#FF6262"/>
		</linearGradient>
		
			<rect x="-49.33" y="254.58" style="clip-path:url(#SVGID_00000178179502396039097690000000990459124950618258_);fill:url(#SVGID_00000042729322292669987170000002738315481134537387_);" width="2047.8" height="621.02"/>
	</g>
</g>
</svg>
